# Blender v2.79 (sub 0) OBJ File: 'figures.blend'
# www.blender.org
mtllib fp3_3.mtl
o source_floorplan3_Plane.011
v -15.000000 0.000000 0.000000
v 0.000000 0.000000 0.000000
v -15.000000 0.000000 -9.999998
v 0.000000 0.000000 -9.999998
vn 0.0000 1.0000 0.0000
usemtl None
s off
f 1//1 2//1 4//1 3//1
o bathroom_2_Plane.024
v -0.154345 0.000000 -2.560604
v -0.154345 0.000000 -5.594926
v -2.792528 0.000000 -5.594926
v -2.792528 0.000000 -5.171542
v -3.113734 0.000000 -3.890359
v -3.113734 0.000000 -5.171542
v -0.154345 4.000000 -2.560604
v -0.154345 4.000000 -5.594926
v -2.792528 4.000000 -5.594926
v -2.792528 4.000000 -5.171542
v -3.113734 3.016288 -5.171542
v -3.113734 3.016288 -3.890359
v -2.792528 3.016288 -3.890359
v -2.792528 3.016288 -5.171542
v -2.792528 0.000000 -2.560604
v -2.792528 0.000000 -3.890359
v -2.792528 4.000000 -3.890359
v -2.792528 4.000000 -2.560604
vn 0.0000 1.0000 0.0000
vn 0.0000 -1.0000 0.0000
vn 0.0000 0.0000 1.0000
vn 0.0000 0.0000 -1.0000
vn 1.0000 0.0000 0.0000
vn -1.0000 0.0000 -0.0000
usemtl floor
s off
f 6//2 7//2 8//2 20//2 19//2 5//2
usemtl doors
f 18//3 17//3 16//3 15//3
f 20//2 8//2 10//2 9//2
f 8//4 18//4 15//4 10//4
f 17//5 20//5 9//5 16//5
usemtl walls
f 19//5 22//5 11//5 5//5
f 7//6 13//6 14//6 18//6 8//6
f 5//7 11//7 12//7 6//7
f 6//4 12//4 13//4 7//4
f 20//6 17//6 21//6 22//6 19//6
usemtl ceil
f 11//3 22//3 21//3 14//3 13//3 12//3
usemtl wabove
f 18//6 14//6 21//6 17//6
o hall_3_Plane.023
v -9.822233 0.000000 -2.560604
v -5.229194 0.000000 -2.560604
v -5.229194 0.000000 -10.000002
v -9.822233 0.000000 -10.000002
v -6.897095 0.000000 -2.239398
v -8.178278 0.000000 -2.239398
v -8.178278 0.000000 -2.560604
v -6.897095 0.000000 -2.560604
v -5.229194 4.000000 -10.000002
v -9.822233 4.000000 -10.000002
v -9.822233 4.000000 -2.560604
v -5.229194 4.000000 -2.560604
v -6.897095 4.000000 -2.560604
v -8.178278 4.000000 -2.560604
v -6.897095 3.016288 -2.239398
v -8.178278 3.016288 -2.239398
v -6.897095 3.016288 -2.560604
v -8.178278 3.016288 -2.560604
vn 0.0000 1.0000 0.0000
vn 1.0000 0.0000 0.0000
vn -1.0000 0.0000 0.0000
vn 0.0000 -1.0000 0.0000
vn 0.0000 0.0000 1.0000
vn -0.0000 0.0000 -1.0000
usemtl floor
s off
f 25//8 26//8 23//8 29//8 30//8 24//8
usemtl doors
f 38//9 28//9 29//9 40//9
f 28//8 27//8 30//8 29//8
f 27//10 37//10 39//10 30//10
f 37//11 38//11 40//11 39//11
usemtl windowwall
f 25//12 31//12 32//12 26//12
usemtl walls
f 23//13 33//13 36//13 40//13 29//13
f 30//13 39//13 35//13 34//13 24//13
f 26//9 32//9 33//9 23//9
f 24//10 34//10 31//10 25//10
usemtl ceil
f 33//11 32//11 31//11 34//11 35//11 36//11
usemtl wabove
f 40//13 36//13 35//13 39//13
o hall_2_Plane.022
v -10.143438 0.000000 -2.400001
v -10.143438 0.000000 -10.000002
v -14.897082 0.000000 -10.000002
v -14.897082 0.000000 -0.160604
v -10.143438 0.000000 -0.160604
v -10.143438 0.000000 -0.559410
v -10.143438 0.000000 -1.840593
v -9.822233 0.000000 -1.840593
v -9.822233 0.000000 -0.559410
v -14.897082 4.000000 -10.000002
v -14.897082 4.000000 -0.160604
v -10.143438 4.000000 -0.160604
v -10.143438 4.000000 -10.000002
v -10.143438 4.000000 -2.400001
v -10.143438 4.000000 -1.840593
v -10.143438 4.000000 -0.559410
v -9.822233 3.016288 -1.840593
v -9.822233 3.016288 -0.559410
v -10.143438 3.016288 -0.559410
v -10.143438 3.016288 -1.840593
vn 0.0000 1.0000 0.0000
vn 0.0000 0.0000 -1.0000
vn 0.0000 -1.0000 0.0000
vn 0.0000 0.0000 1.0000
vn -1.0000 0.0000 0.0000
vn 1.0000 0.0000 0.0000
usemtl floor
s off
f 44//14 45//14 46//14 47//14 41//14 42//14 43//14
usemtl doors
f 58//15 49//15 46//15 59//15
f 57//16 58//16 59//16 60//16
f 48//17 57//17 60//17 47//17
f 49//14 48//14 47//14 46//14
usemtl windowwall
f 42//17 53//17 50//17 43//17
usemtl walls
f 45//18 52//18 56//18 59//18 46//18
f 43//19 50//19 51//19 44//19
f 41//18 54//18 53//18 42//18
f 47//18 60//18 55//18 54//18 41//18
f 44//15 51//15 52//15 45//15
usemtl ceil
f 54//16 55//16 56//16 52//16 51//16 50//16 53//16
usemtl wabove
f 59//18 56//18 55//18 60//18
o kitchen_2_Plane.021
v -4.907988 0.000000 -5.916132
v -2.953131 0.000000 -5.916132
v -0.154345 0.000000 -5.916132
v -0.154345 0.000000 -10.000002
v -4.907988 0.000000 -10.000002
v -4.632405 0.000000 -5.916132
v -3.351223 0.000000 -5.916132
v -3.351223 0.000000 -5.594926
v -4.632405 0.000000 -5.594926
v -0.154345 4.000000 -5.916132
v -0.154345 4.000000 -10.000002
v -4.907988 4.000000 -10.000002
v -4.907988 4.000000 -5.916132
v -2.953131 4.000000 -5.916132
v -3.351223 4.000000 -5.916132
v -4.632405 4.000000 -5.916132
v -3.351223 3.016288 -5.916132
v -4.632405 3.016288 -5.916132
v -3.351223 3.016288 -5.594926
v -4.632405 3.016288 -5.594926
vn 0.0000 1.0000 0.0000
vn 1.0000 0.0000 0.0000
vn 0.0000 -1.0000 0.0000
vn -1.0000 0.0000 0.0000
vn 0.0000 0.0000 1.0000
vn 0.0000 0.0000 -1.0000
usemtl floor
s off
f 64//20 65//20 61//20 66//20 67//20 62//20 63//20
usemtl doors
f 80//21 69//21 66//21 78//21
f 69//20 68//20 67//20 66//20
f 79//22 80//22 78//22 77//22
f 68//23 79//23 77//23 67//23
usemtl windowwall
f 64//24 71//24 72//24 65//24
usemtl walls
f 65//21 72//21 73//21 61//21
f 62//25 74//25 70//25 63//25
f 67//25 77//25 75//25 74//25 62//25
f 61//25 73//25 76//25 78//25 66//25
f 63//23 70//23 71//23 64//23
usemtl ceil
f 73//22 72//22 71//22 70//22 74//22 75//22 76//22
usemtl wabove
f 78//25 76//25 75//25 77//25
o hallway_2_Plane.012
v -10.143438 0.000000 -10.000002
v -5.229194 0.000000 -10.000002
v -9.822233 0.000000 -10.000002
v -3.113734 0.000000 -2.239398
v -3.113734 0.000000 -5.594926
v -4.907988 0.000000 -5.594926
v -4.907988 0.000000 -2.239398
v -9.822233 0.000000 -2.239398
v -9.822233 0.000000 -0.160604
v -4.907988 0.000000 -0.160604
v -3.113734 0.000000 -0.160604
v -0.154345 0.000000 -0.160604
v -0.154345 0.000000 -2.239398
v -0.154345 0.000000 -10.000002
v -4.907988 0.000000 -10.000002
v -3.113734 0.000000 -3.890359
v -3.113734 0.000000 -5.171542
v -3.351223 0.000000 -5.594926
v -4.632405 0.000000 -5.594926
v -6.897095 0.000000 -2.239398
v -8.178278 0.000000 -2.239398
v -9.822233 0.000000 -1.840593
v -9.822233 0.000000 -0.559410
v -1.630985 0.000000 -0.160604
v -0.349802 0.000000 -0.160604
v -4.907988 4.000000 -0.160604
v -9.822233 4.000000 -0.160604
v -0.154345 4.000000 -0.160604
v -0.154345 4.000000 -2.239398
v -3.113734 4.000000 -0.160604
v -4.907988 4.000000 -2.239398
v -4.907988 4.000000 -5.594926
v -3.113734 4.000000 -5.171542
v -3.113734 4.000000 -3.890359
v -4.632405 4.000000 -5.594926
v -3.351223 4.000000 -5.594926
v -8.178278 4.000000 -2.239398
v -6.897095 4.000000 -2.239398
v -9.822233 4.000000 -0.559410
v -9.822233 4.000000 -1.840593
v -0.349802 4.000000 -0.160604
v -1.630985 4.000000 -0.160604
v -3.113734 4.000000 -2.239398
v -3.113734 4.000000 -5.594926
v -9.822233 4.000000 -2.239398
v -1.630985 3.016288 -0.160604
v -0.349802 3.016288 -0.160604
v -0.349802 0.000000 -0.000001
v -1.630985 0.000000 -0.000001
v -1.630985 3.016288 -0.000001
v -0.349802 3.016288 -0.000001
v -3.113734 3.016288 -5.171542
v -3.113734 3.016288 -3.890359
v -6.897095 3.016288 -2.239398
v -8.178278 3.016288 -2.239398
v -9.822233 3.016288 -1.840593
v -9.822233 3.016288 -0.559410
v -3.351223 3.016288 -5.594926
v -4.632405 3.016288 -5.594926
v 0.000000 4.000000 -0.160604
v -0.154345 0.000000 -10.256763
v -14.897082 0.000000 -10.256763
v -5.068591 0.000000 -10.256763
v -9.982836 0.000000 -10.256763
v -5.068591 0.000000 -10.000002
v -9.982836 0.000000 -10.000002
vn 0.0000 1.0000 0.0000
vn 1.0000 0.0000 0.0000
vn -1.0000 0.0000 0.0000
vn 0.0000 -1.0000 0.0000
vn 0.0000 0.0000 1.0000
vn 0.0000 0.0000 -1.0000
usemtl floor
s off
f 84//26 91//26 104//26 105//26 92//26 93//26
f 87//26 84//26 96//26 97//26 85//26 98//26 99//26 86//26
f 89//26 90//26 87//26 100//26 101//26 88//26 102//26 103//26
f 91//26 84//26 87//26 90//26
usemtl doors
f 104//27 126//27 130//27 129//27
f 127//28 105//28 128//28 131//28
f 126//29 127//29 131//29 130//29
f 105//26 104//26 129//26 128//26
usemtl walls
f 86//27 112//27 111//27 87//27
f 101//30 135//30 117//30 125//30 88//30
f 87//30 111//30 118//30 134//30 100//30
f 88//27 125//27 120//27 136//27 102//27
f 103//27 137//27 119//27 107//27 89//27
f 89//31 107//31 106//31 90//31
f 91//31 110//31 122//31 126//31 104//31
f 92//28 108//28 109//28 93//28
f 105//31 127//31 121//31 108//31 92//31
f 93//30 109//30 123//30 84//30
f 90//31 106//31 110//31 91//31
f 84//28 123//28 114//28 133//28 96//28
f 97//28 132//28 113//28 124//28 85//28
f 85//30 124//30 116//30 138//30 98//30
f 99//30 139//30 115//30 112//30 86//30
usemtl ceil
f 123//29 111//29 112//29 115//29 116//29 124//29 113//29 114//29
f 111//29 123//29 110//29 106//29
f 106//29 107//29 119//29 120//29 125//29 117//29 118//29 111//29
f 110//29 123//29 109//29 108//29 121//29 122//29
usemtl wabove
f 134//30 118//30 117//30 135//30
f 136//27 120//27 119//27 137//27
f 138//30 116//30 115//30 139//30
f 127//31 126//31 122//31 121//31
f 132//28 133//28 114//28 113//28
l 108 140
l 94 141
l 144 142
l 141 143
l 143 144
l 95 145
l 145 82
l 83 146
l 146 81
