# Blender v2.79 (sub 0) OBJ File: 'testcity.blend'
# www.blender.org
mtllib lottest2.mtl
o Plane.019
v -89.426514 56.091698 -133.337463
v -89.426514 61.003082 -133.337463
v -89.426514 56.091698 -126.007965
v -89.426514 61.003082 -126.007965
v -55.255150 56.091698 -133.337463
v -55.255150 61.003082 -133.337463
v -55.255150 56.091698 -126.007965
v -55.255150 61.003082 -126.007965
v -89.426514 56.091698 -137.601776
v -89.426514 61.003082 -137.601776
v -89.426514 56.091698 -121.743668
v -89.426514 61.003082 -121.743668
v -55.255150 56.091698 -137.601776
v -55.255150 61.003082 -137.601776
v -55.255150 56.091698 -121.743668
v -55.255150 61.003082 -121.743668
v -89.426514 62.280548 -133.337463
v -89.426514 62.280548 -126.007965
v -55.255150 62.280548 -133.337463
v -55.255150 62.280548 -126.007965
v -89.426514 62.280548 -137.601776
v -55.255150 62.280548 -137.601776
v -55.255150 62.280548 -121.743668
v -89.426514 62.280548 -121.743668
v -55.255150 55.097103 -126.007965
v -89.426514 55.097103 -126.007965
v -55.255150 55.097103 -133.337463
v -89.426514 55.097103 -133.337463
v -55.255150 55.097103 -121.743668
v -89.426514 55.097103 -121.743668
v -55.255150 55.097103 -137.601776
v -89.426514 55.097103 -137.601776
v -111.173386 56.091698 -133.337463
v -111.173386 61.003082 -133.337463
v -111.173386 56.091698 -126.007965
v -111.173386 61.003082 -126.007965
v -33.508270 56.091698 -133.337463
v -33.508270 61.003082 -133.337463
v -33.508270 56.091698 -126.007965
v -33.508270 61.003082 -126.007965
v -111.173386 56.091698 -137.601776
v -111.173386 61.003082 -137.601776
v -111.173386 56.091698 -121.743668
v -111.173386 61.003082 -121.743668
v -33.508270 56.091698 -137.601776
v -33.508270 61.003082 -137.601776
v -33.508270 56.091698 -121.743668
v -33.508270 61.003082 -121.743668
v -111.173386 55.097103 -126.007965
v -111.173386 55.097103 -121.743668
v -33.508270 55.097103 -121.743668
v -33.508270 55.097103 -126.007965
v -33.508270 55.097103 -137.601776
v -33.508270 55.097103 -133.337463
v -111.173386 55.097103 -137.601776
v -111.173386 55.097103 -133.337463
v -89.426514 56.091698 -133.692627
v -89.426514 60.647942 -133.692627
v -89.426514 56.091698 -125.652824
v -89.426514 60.647942 -125.652824
v -55.255150 56.091698 -133.692627
v -55.255150 60.647942 -133.692627
v -55.255150 56.091698 -125.652824
v -55.255150 60.647942 -125.652824
v -89.426514 56.091698 -137.246613
v -89.426514 60.647942 -137.246613
v -89.426514 56.091698 -122.098808
v -89.426514 60.647942 -122.098808
v -55.255150 56.091698 -137.246613
v -55.255150 60.647942 -137.246613
v -55.255150 56.091698 -122.098808
v -55.255150 60.647942 -122.098808
v -111.173386 60.647942 -137.246613
v -111.173386 60.647942 -133.692627
v -111.173386 56.091698 -122.098808
v -89.426514 55.452248 -122.098808
v -111.173386 55.452248 -122.098808
v -89.426514 55.452248 -125.652824
v -55.255150 55.452248 -122.098808
v -55.255150 55.452248 -125.652824
v -55.255150 55.452248 -137.246613
v -55.255150 55.452248 -133.692627
v -89.426514 55.452248 -137.246613
v -89.426514 55.452248 -133.692627
v -111.173386 56.091698 -133.692627
v -111.173386 56.091698 -125.652824
v -111.173386 60.647942 -125.652824
v -33.508270 56.091698 -133.692627
v -33.508270 60.647942 -133.692627
v -33.508270 56.091698 -125.652824
v -33.508270 60.647942 -125.652824
v -111.173386 56.091698 -137.246613
v -111.173386 60.647942 -122.098808
v -33.508270 56.091698 -137.246613
v -33.508270 60.647942 -137.246613
v -33.508270 56.091698 -122.098808
v -33.508270 60.647942 -122.098808
v -111.173386 55.452248 -125.652824
v -33.508270 55.452248 -122.098808
v -33.508270 55.452248 -125.652824
v -33.508270 55.452248 -137.246613
v -33.508270 55.452248 -133.692627
v -111.173386 55.452248 -137.246613
v -111.173386 55.452248 -133.692627
v -89.426514 56.091698 -127.441017
v -89.426514 61.003082 -127.441017
v -89.426514 56.091698 -131.904465
v -89.426514 61.003082 -131.904465
vn 1.0000 0.0000 0.0000
vn -1.0000 0.0000 0.0000
vn 0.0000 0.0000 -1.0000
vn 0.0000 1.0000 0.0000
vn 0.0000 0.0000 1.0000
vn 0.0000 -1.0000 0.0000
usemtl white
s off
f 12//1 4//1 18//1 24//1
f 6//2 5//2 7//2 8//2
f 16//3 12//3 24//3 23//3
f 1//4 3//4 7//4 5//4
f 7//5 3//5 26//5 25//5
f 11//3 12//3 16//3 15//3
f 10//5 9//5 13//5 14//5
f 45//1 46//1 95//1 94//1
f 9//1 10//1 66//1 65//1
f 55//2 56//2 104//2 103//2
f 4//1 2//1 17//1 18//1
f 7//2 25//2 80//2 63//2
f 43//2 44//2 93//2 75//2
f 18//6 17//6 19//6 20//6
f 19//6 17//6 21//6 22//6
f 18//6 20//6 23//6 24//6
f 2//1 10//1 21//1 17//1
f 6//2 8//2 20//2 19//2
f 8//2 16//2 23//2 20//2
f 10//5 14//5 22//5 21//5
f 14//2 6//2 19//2 22//2
f 25//4 26//4 30//4 29//4
f 28//4 27//4 31//4 32//4
f 13//5 9//5 32//5 31//5
f 54//1 53//1 101//1 102//1
f 1//3 5//3 27//3 28//3
f 28//1 32//1 83//1 84//1
f 11//3 15//3 29//3 30//3
f 4//1 12//1 68//1 60//1
f 35//1 36//1 44//1 43//1
f 37//2 38//2 46//2 45//2
f 47//2 39//2 52//2 51//2
f 34//1 33//1 41//1 42//1
f 40//2 39//2 47//2 48//2
f 41//1 33//1 56//1 55//1
f 35//1 43//1 50//1 49//1
f 37//2 45//2 53//2 54//2
f 3//1 4//1 60//1 59//1
f 42//2 41//2 92//2 73//2
f 51//1 52//1 100//1 99//1
f 31//2 27//2 82//2 81//2
f 6//2 14//2 70//2 62//2
f 2//1 1//1 57//1 58//1
f 39//1 40//1 91//1 90//1
f 49//2 50//2 77//2 98//2
f 25//2 29//2 79//2 80//2
f 10//1 2//1 58//1 66//1
f 38//1 37//1 88//1 89//1
f 40//1 48//1 97//1 91//1
f 30//1 26//1 78//1 76//1
f 36//2 35//2 86//2 87//2
f 50//2 43//2 75//2 77//2
f 33//2 34//2 74//2 85//2
f 78//5 59//5 86//5 98//5
f 60//6 68//6 93//6 87//6
f 79//3 71//3 96//3 99//3
f 62//6 70//6 95//6 89//6
f 71//3 72//3 97//3 96//3
f 63//5 80//5 100//5 90//5
f 66//6 58//6 74//6 73//6
f 67//3 76//3 77//3 75//3
f 83//5 65//5 92//5 103//5
f 58//3 57//3 85//3 74//3
f 76//4 78//4 98//4 77//4
f 61//3 62//3 89//3 88//3
f 69//5 81//5 101//5 94//5
f 59//5 60//5 87//5 86//5
f 80//4 79//4 99//4 100//4
f 65//5 66//5 73//5 92//5
f 72//6 64//6 91//6 97//6
f 64//5 63//5 90//5 91//5
f 57//3 84//3 104//3 85//3
f 81//4 82//4 102//4 101//4
f 68//3 67//3 75//3 93//3
f 82//3 61//3 88//3 102//3
f 84//4 83//4 103//4 104//4
f 70//5 69//5 94//5 95//5
f 29//2 15//2 71//2 79//2
f 52//1 39//1 90//1 100//1
f 12//1 11//1 67//1 68//1
f 48//1 47//1 96//1 97//1
f 16//2 8//2 64//2 72//2
f 26//1 3//1 59//1 78//1
f 47//1 51//1 99//1 96//1
f 14//2 13//2 69//2 70//2
f 32//1 9//1 65//1 83//1
f 35//2 49//2 98//2 86//2
f 15//2 16//2 72//2 71//2
f 13//2 31//2 81//2 69//2
f 41//2 55//2 103//2 92//2
f 34//2 42//2 73//2 74//2
f 1//1 28//1 84//1 57//1
f 53//1 45//1 94//1 101//1
f 46//1 38//1 89//1 95//1
f 5//2 6//2 62//2 61//2
f 27//2 5//2 61//2 82//2
f 56//2 33//2 85//2 104//2
f 44//2 36//2 87//2 93//2
f 8//2 7//2 63//2 64//2
f 11//1 30//1 76//1 67//1
f 37//1 54//1 102//1 88//1
f 4//1 3//1 105//1 106//1
f 1//1 2//1 108//1 107//1
o Plane.018
v 124.731873 67.811279 143.140610
v 124.731873 67.811279 -6.114410
v -99.256561 67.811295 -151.612427
v 62.918098 67.811279 -303.586426
v 20.201099 67.811287 -277.506592
v 11.476814 67.811707 -279.623108
v 14.498795 67.811287 -274.093201
v -42.194405 67.811295 -241.022217
v -50.785797 67.811020 -243.071442
v -47.950264 67.811295 -237.738708
v -109.505516 67.811096 -203.235748
v -123.624725 67.811745 -203.373428
v -120.451935 67.811531 -197.308319
v -111.106941 67.811295 -189.611450
v -172.351318 67.811302 -171.454468
v -178.434723 67.793770 -175.753357
v -192.208496 67.811295 -67.458344
v -185.876221 67.811295 -67.458344
v -185.128784 67.811295 -74.049286
v 124.731873 67.811279 -6.114410
v -196.282867 67.811287 46.627014
v -195.683472 67.811287 40.055969
v -202.575470 67.811287 46.627014
v -191.079468 67.811287 -10.416443
v -190.479309 67.811287 -16.995850
v -197.378265 67.811287 -10.416443
v -74.196678 67.811295 -141.563385
v -99.256561 67.811295 -142.012543
v -77.307274 67.811295 -133.990540
v -70.759102 67.811295 -135.906494
v -111.931923 67.811295 -133.320862
v -105.375099 67.811295 -133.990540
v -104.763138 67.811295 -142.012543
v -112.611031 67.811295 -139.910675
v -179.176208 67.811295 -119.427032
v -178.268768 67.811295 -126.344666
v -184.622192 67.800957 -126.344666
v -13.847801 67.811287 -257.557739
v -79.618752 67.811295 -220.169189
v 39.713291 67.811287 -242.139038
v -19.913261 67.811287 -209.949890
v -25.787941 67.811295 -206.832092
v -92.741966 67.811295 -172.081543
v -145.510742 67.811302 -185.081177
v -191.332764 67.810005 -74.049286
v -182.152496 67.811295 -96.738159
v -108.877892 67.811295 -103.685059
v -102.286568 67.811295 -104.019897
v -145.476318 67.811295 -74.049255
v -145.828674 67.811295 -67.458313
v -194.782867 67.811295 -42.227112
v -196.951172 67.811287 -16.995850
v -188.884293 67.806244 -96.094849
v -186.043854 67.801926 -117.747986
v -193.381470 67.811287 14.819763
v -155.794708 67.811287 41.796936
v -156.394104 67.811287 48.367981
v -188.177765 67.811295 -42.227112
v -150.511169 67.811287 -16.125366
v -151.111328 67.811287 -9.545959
v -52.227760 67.811295 -105.411255
v -59.094734 67.811295 -104.019897
v -115.640617 67.811295 -169.309265
v -175.310028 67.811302 -148.899567
v -145.439911 67.811295 -133.127686
v -145.554077 67.811295 -126.373962
v -148.169922 67.811295 -41.791840
v -153.453033 67.811287 16.125488
v -201.973602 67.811287 39.674866
v -145.515198 67.811295 -100.211609
v -199.846405 67.811287 14.750191
v -145.475342 67.811302 -159.104431
v -59.264946 67.811295 -189.456787
v 9.900017 67.811287 -226.044434
v 41.559601 67.811287 -290.546509
v 46.035629 67.811287 -244.766602
v 93.824982 67.811279 -279.422852
v 69.930305 67.811279 -262.094727
v -76.003456 67.811295 -180.769165
v -95.452995 67.811295 -211.384460
v -63.784477 67.811295 -228.953979
v -42.526459 67.811295 -198.144409
v -181.938232 67.797836 -147.776901
v -146.667648 67.802910 -191.881195
v -113.155396 67.811295 -209.100937
v -67.127342 67.811295 -234.637024
v -83.019180 67.811295 -225.820328
v -98.370682 67.811295 -217.303406
v -45.036816 67.811188 -246.159393
v -104.763138 67.811295 -151.612427
v -16.709347 67.808266 -262.363861
v 17.710369 67.811409 -283.073242
v 36.982292 67.811287 -295.467865
v 58.340790 67.811279 -308.507782
v -98.996643 67.811295 -169.682678
v -81.312462 67.811295 -140.581482
v -106.054314 67.811295 -140.581482
v -109.002342 67.811295 -169.188690
v -99.256561 62.811295 -151.612427
v -99.256561 62.811295 -142.012543
v -104.763138 62.811295 -142.012543
v -104.763138 62.811295 -151.612427
v -104.763138 65.802185 -151.612427
v -99.256561 65.802185 -151.612427
v -99.256561 65.802185 -142.012543
v -104.763138 65.802185 -142.012543
v -99.256561 60.460320 -131.904465
v -104.763138 60.460320 -131.904465
v -99.256561 63.451206 -131.904465
v -104.763138 63.451206 -131.904465
v -99.256561 60.460320 -127.441017
v -104.763138 60.460320 -127.441017
v -99.256561 63.451206 -127.441017
v -104.763138 63.451206 -127.441017
v -89.426514 56.091698 -131.904465
v -89.426514 61.003082 -131.904465
v -89.426514 56.091698 -127.441017
v -89.426514 61.003082 -127.441017
vn 0.0000 1.0000 0.0000
vn 0.0000 0.0000 1.0000
vn -1.0000 0.0000 0.0000
vn 0.0000 -0.9740 -0.2265
vn 1.0000 0.0000 0.0000
vn 0.0000 0.0000 -1.0000
vn 0.0000 0.9740 0.2265
vn 0.0000 -1.0000 0.0000
vn -0.2417 -0.9704 0.0000
vn 0.4061 0.9138 0.0000
vn -0.0011 1.0000 -0.0002
vn -0.0015 1.0000 -0.0003
vn -0.0004 1.0000 -0.0005
vn -0.0023 1.0000 -0.0004
vn -0.0005 1.0000 -0.0001
vn -0.0001 1.0000 -0.0001
vn -0.0019 1.0000 -0.0003
vn -0.0010 1.0000 -0.0017
vn -0.0001 1.0000 -0.0003
vn -0.0002 1.0000 -0.0002
usemtl white
s off
f 122//7 206//7 203//7
f 212//8 211//8 210//8 207//8
f 111//7 136//7 204//7 203//7
f 141//7 198//7 206//7 205//7
f 198//7 111//7 203//7 206//7
f 136//7 141//7 205//7 204//7
f 208//7 207//7 210//7 209//7
f 213//9 212//9 207//9 208//9
f 214//10 213//10 217//10 218//10
f 211//11 214//11 209//11 210//11
f 198//11 141//11 214//11 211//11
f 141//12 136//12 213//12 214//12
f 136//9 111//9 212//9 213//9
f 111//8 198//8 211//8 212//8
f 216//11 218//11 222//11 220//11
f 209//11 214//11 218//11 216//11
f 208//13 209//13 216//13 215//13
f 213//9 208//9 215//9 217//9
f 222//12 221//12 219//12 220//12
f 215//7 216//7 220//7 219//7
f 218//14 217//14 221//14 222//14
f 221//15 217//15 224//15 226//15
f 219//12 221//12 226//12 225//12
f 215//16 219//16 225//16 223//16
f 217//8 215//8 223//8 224//8
usemtl subroad
f 132//7 133//7 160//7 134//7
f 143//17 162//17 161//17 154//17
f 143//18 144//18 145//18 162//18
f 166//7 159//7 160//7 133//7
f 135//7 204//7 137//7 138//7
f 139//7 140//7 205//7 142//7
f 113//7 183//7 201//7 200//7
f 119//7 188//7 196//7 193//7
f 149//7 116//7 118//7 150//7
f 135//7 151//7 203//7 204//7
f 120//19 192//19 152//19 121//19
f 157//7 127//7 126//7 158//7
f 134//7 179//7 163//7 132//7
f 164//7 130//7 129//7 165//7
f 126//7 125//7 159//7 166//7
f 167//7 133//7 132//7 168//7
f 169//7 138//7 137//7 170//7
f 121//7 171//7 206//7 122//7
f 124//20 191//20 172//20 123//20
f 173//7 144//7 143//7 174//7
f 142//7 173//7 174//7 139//7
f 139//7 155//7 156//7 140//7
f 163//7 179//7 177//7 130//7
f 161//21 153//21 127//21 154//21
f 148//7 184//7 113//7 115//7
f 127//22 153//22 125//22 126//22
f 129//7 130//7 177//7 131//7
f 120//7 121//7 119//7 193//7
f 172//23 191//23 145//23 144//23
f 152//24 192//24 124//24 123//24
f 121//7 122//7 119//7
f 196//7 188//7 147//7 195//7
f 195//7 147//7 189//7 194//7
f 194//7 189//7 118//7 117//7
f 117//7 118//7 116//7 197//7
f 197//25 116//25 146//25 199//25
f 114//26 199//26 146//26 115//26
f 114//7 115//7 113//7 200//7
f 206//7 171//7 142//7 205//7
f 201//7 183//7 112//7 202//7
f 203//7 151//7 119//7 122//7
f 137//7 204//7 205//7 140//7
usemtl lot
f 186//7 183//7 113//7 184//7
f 182//7 148//7 115//7 146//7
f 181//7 190//7 189//7 147//7
f 180//7 173//7 142//7 171//7
f 178//7 154//7 127//7 157//7
f 166//7 175//7 158//7 126//7
f 133//7 167//7 175//7 166//7
f 163//7 176//7 168//7 132//7
f 130//7 164//7 176//7 163//7
f 139//7 174//7 178//7 155//7
f 174//7 143//7 154//7 178//7
f 152//7 180//7 171//7 121//7
f 123//7 172//7 180//7 152//7
f 172//7 144//7 173//7 180//7
f 137//7 140//7 156//7 170//7
f 151//7 187//7 188//7 119//7
f 149//7 182//7 146//7 116//7
f 185//7 112//7 183//7 186//7
f 188//7 187//7 181//7 147//7
f 189//7 190//7 150//7 118//7
