# Blender v2.79 (sub 0) OBJ File: 'subspace_tonnel.blend'
# www.blender.org
mtllib sst_entrance.mtl
o shell_Cube
v 1.251920 0.174883 0.825117
v 1.251920 1.825117 0.825117
v 1.251920 0.174883 -0.825117
v 1.251920 1.825117 -0.825117
v -5.996113 0.000000 1.000000
v 1.251920 0.000000 1.000000
v 1.251920 2.000000 1.000000
v -2.372096 0.000000 3.409497
v -2.372096 2.000000 3.409497
v -2.372096 0.000000 -3.409497
v -2.372096 2.000000 -3.409497
v 1.251920 2.000000 -1.000000
v 1.251920 0.000000 -1.000000
v -5.996113 2.000000 1.000000
v -5.996113 0.000000 -1.000000
v -5.996113 2.000000 -1.000000
v 0.869982 2.000000 3.409497
v 1.251920 2.000000 3.027560
v 1.251920 0.000000 3.027560
v 0.869982 0.000000 3.409497
v 0.869982 0.000000 -3.409497
v 1.251920 0.000000 -3.027560
v 1.251920 2.000000 -3.027560
v 0.869982 2.000000 -3.409497
v -5.996113 2.000000 3.027560
v -5.614175 2.000000 3.409497
v -5.614175 0.000000 3.409497
v -5.996113 0.000000 3.027560
v -5.614175 2.000000 -3.409497
v -5.996113 2.000000 -3.027560
v -5.996113 0.000000 -3.027560
v -5.614175 0.000000 -3.409497
v -2.372096 -0.753710 0.882050
v 0.824466 -0.753710 0.882050
v -5.568658 -0.753710 0.882050
v 0.824466 2.753710 0.882050
v -2.372096 2.753710 0.882050
v -2.372096 2.753710 -0.882049
v -2.372096 -0.753710 3.007346
v -2.372096 2.753710 3.007346
v -2.372096 -0.753710 -0.882049
v 0.824466 -0.753710 -0.882049
v -2.372096 -0.753710 -3.007345
v 0.824466 2.753710 -0.882049
v -5.568658 -0.753710 -0.882049
v -2.372096 2.753710 -3.007345
v -5.568658 2.753710 0.882050
v -5.568658 2.753710 -0.882049
v 0.824466 2.753710 2.670458
v 0.487578 2.753710 3.007346
v 0.487578 -0.753710 3.007346
v 0.824466 -0.753710 2.670458
v 0.487578 2.753710 -3.007345
v 0.824466 2.753710 -2.670457
v 0.824466 -0.753710 -2.670457
v 0.487578 -0.753710 -3.007345
v -5.231770 2.753710 3.007346
v -5.568658 2.753710 2.670458
v -5.568658 -0.753710 2.670458
v -5.231770 -0.753710 3.007346
v -5.568658 2.753710 -2.670457
v -5.231770 2.753710 -3.007345
v -5.231770 -0.753710 -3.007345
v -5.568658 -0.753710 -2.670457
v -5.996113 0.361107 0.825117
v -5.996113 0.174883 0.638893
v -5.996113 0.043202 0.956798
v -5.996113 1.825117 0.638893
v -5.996113 1.638893 0.825117
v -5.996113 1.956798 0.956798
v -5.996113 0.174883 -0.638893
v -5.996113 0.361107 -0.825117
v -5.996113 0.043203 -0.956798
v -5.996113 1.638893 -0.825117
v -5.996113 1.825117 -0.638893
v -5.996113 1.956798 -0.956798
v -5.569310 0.361107 -0.825117
v -5.569310 0.174883 -0.638893
v -5.383086 0.174883 -0.825117
v -5.569310 0.174883 0.638893
v -5.569310 0.361107 0.825117
v -5.383086 0.174883 0.825117
v -5.569310 1.638893 0.825117
v -5.569310 1.825117 0.638893
v -5.383086 1.825117 0.825117
v -5.569310 1.825117 -0.638893
v -5.569310 1.638893 -0.825117
v -5.383086 1.825117 -0.825117
vn 0.0000 0.0000 1.0000
vn 0.5695 0.5928 0.5695
vn 0.8698 0.4933 0.0000
vn -0.8698 0.4933 0.0000
vn 0.0000 0.0000 -1.0000
vn -1.0000 0.0000 0.0000
vn 0.0000 -1.0000 0.0000
vn 1.0000 0.0000 0.0000
vn -0.5695 0.5928 -0.5695
vn 0.8698 -0.4933 -0.0000
vn 0.0000 0.4707 0.8823
vn 0.0000 -0.4707 0.8823
vn -0.5695 -0.5928 0.5695
vn 0.0000 0.4707 -0.8823
vn 0.0000 -0.4707 -0.8823
vn -0.5695 0.5928 0.5695
vn 0.7071 0.0000 0.7071
vn 0.7071 0.0000 -0.7071
vn -0.7071 0.0000 0.7071
vn -0.7071 0.0000 -0.7071
vn 0.0000 1.0000 0.0000
vn -0.8698 -0.4933 0.0000
vn -0.5695 -0.5928 -0.5695
vn 0.5695 -0.5928 0.5695
vn 0.5695 0.5928 -0.5695
vn 0.5695 -0.5928 -0.5695
vn 0.5774 0.5774 0.5773
vn 0.5774 0.5774 -0.5773
vn 0.5774 -0.5774 -0.5773
vn 0.5774 -0.5774 0.5773
vn 0.0000 -0.7071 0.7071
vn 0.0000 -0.7071 -0.7071
vn 0.0000 0.7071 -0.7071
vn 0.0000 0.7071 0.7071
usemtl white
s off
f 74//1 72//1 77//1 87//1
f 17//2 18//2 49//2 50//2
f 7//3 12//3 44//3 36//3
f 14//4 25//4 58//4 47//4
f 65//5 69//5 83//5 81//5
f 76//6 75//6 68//6 70//6 14//6 16//6
f 68//7 75//7 86//7 84//7
f 4//8 3//8 13//8 12//8
f 3//8 1//8 6//8 13//8
f 2//8 4//8 12//8 7//8
f 1//8 2//8 7//8 6//8
f 67//6 66//6 71//6 73//6 15//6 5//6
f 73//6 72//6 74//6 76//6 16//6 15//6
f 70//6 69//6 65//6 67//6 5//6 14//6
f 3//8 4//8 2//8 1//8
f 29//9 30//9 61//9 62//9
f 13//10 6//10 34//10 42//10
f 26//11 9//11 40//11 57//11
f 8//12 27//12 60//12 39//12
f 20//1 17//1 9//1 8//1
f 27//13 28//13 59//13 60//13
f 22//8 23//8 12//8 13//8
f 21//5 10//5 11//5 24//5
f 8//1 9//1 26//1 27//1
f 24//14 11//14 46//14 53//14
f 16//4 14//4 47//4 48//4
f 14//6 5//6 28//6 25//6
f 11//5 10//5 32//5 29//5
f 10//15 21//15 56//15 43//15
f 30//6 31//6 15//6 16//6
f 25//16 26//16 57//16 58//16
f 17//17 20//17 19//17 18//17
f 23//18 22//18 21//18 24//18
f 25//19 28//19 27//19 26//19
f 29//20 32//20 31//20 30//20
f 6//8 7//8 18//8 19//8
f 43//7 56//7 55//7 42//7 41//7
f 41//7 42//7 34//7 33//7
f 38//21 48//21 47//21 37//21
f 44//21 38//21 37//21 36//21
f 45//7 41//7 33//7 35//7
f 33//7 39//7 60//7 59//7 35//7
f 36//21 37//21 40//21 50//21 49//21
f 33//7 34//7 52//7 51//7 39//7
f 54//21 53//21 46//21 38//21 44//21
f 40//21 37//21 47//21 58//21 57//21
f 38//21 46//21 62//21 61//21 48//21
f 43//7 41//7 45//7 64//7 63//7
f 28//22 5//22 35//22 59//22
f 31//23 32//23 63//23 64//23
f 11//14 29//14 62//14 46//14
f 19//24 20//24 51//24 52//24
f 32//15 10//15 43//15 63//15
f 6//10 19//10 52//10 34//10
f 30//4 16//4 48//4 61//4
f 5//22 15//22 45//22 35//22
f 18//3 7//3 36//3 49//3
f 23//25 24//25 53//25 54//25
f 15//22 31//22 64//22 45//22
f 20//12 8//12 39//12 51//12
f 9//11 17//11 50//11 40//11
f 21//26 22//26 55//26 56//26
f 22//10 13//10 42//10 55//10
f 12//3 23//3 54//3 44//3
f 65//6 66//6 67//6
f 68//6 69//6 70//6
f 71//6 72//6 73//6
f 74//6 75//6 76//6
f 77//27 78//27 79//27
f 80//28 81//28 82//28
f 83//29 84//29 85//29
f 86//30 87//30 88//30
f 74//31 87//31 86//31 75//31
f 83//32 69//32 68//32 84//32
f 65//33 81//33 80//33 66//33
f 77//34 72//34 71//34 78//34
f 71//21 66//21 80//21 78//21
