# Blender v2.79 (sub 0) OBJ File: 'interiors_modular.blend'
# www.blender.org
mtllib door_01.mtl
o source.door_frame_01_Plane.087
v 0.743861 0.000000 -0.800869
v 0.743861 2.000000 -0.800869
v -1.057006 2.000000 -0.800869
v -1.057006 0.000000 -0.800869
vn 0.0000 0.0000 1.0000
usemtl default
s 1
f 3//1 4//1 1//1 2//1
o target_door_frame_01_Plane.011
v 0.587288 0.000000 -0.800869
v 0.554523 0.288905 -0.800869
v -0.900433 2.000000 -0.800869
v 0.554523 1.550278 -0.800869
v 0.587288 2.000000 -0.800869
v 0.272556 0.036313 -0.979905
v 0.357949 0.253312 -0.979905
v -0.671094 0.253312 -0.979905
v -0.585701 0.036313 -0.979905
v -0.867668 0.288905 -0.800869
v -0.867668 1.550278 -0.800869
v -0.583482 0.040263 -0.800869
v -0.701200 0.288905 -0.800869
v -0.900433 0.000000 -0.800869
v 0.388055 0.288905 -0.800869
v 0.270337 0.040263 -0.800869
v -0.675950 1.791097 -0.800869
v -0.701200 1.372138 -0.800869
v -0.458471 1.546512 -0.800869
v 0.145326 1.546512 -0.800869
v 0.355289 1.357545 -0.800869
v 0.349110 1.758332 -0.800869
v -0.671094 1.360442 -0.979905
v -0.460040 1.550391 -0.979905
v 0.146895 1.550391 -0.979905
v 0.357949 1.360442 -0.979905
v 0.587288 1.563728 -0.800869
v 0.587288 0.256139 -0.800869
v -0.900433 1.563728 -0.800869
v -0.900433 0.256139 -0.800869
v -0.668434 1.357545 -0.800869
v -0.471044 1.579278 -0.800869
v 0.157899 1.579278 -0.800869
v 0.388055 1.372138 -0.800869
v -0.668434 0.256139 -0.800869
v 0.355289 0.256139 -0.800869
v -0.662256 1.758332 -0.800869
v 0.362805 1.791097 -0.800869
v 0.388055 1.372138 -0.821364
v 0.554523 1.550278 -0.821364
v -0.471044 1.579278 -0.821364
v -0.662256 1.758332 -0.821364
v 0.349110 1.758332 -0.821364
v 0.157899 1.579278 -0.821364
v -0.867668 1.550278 -0.821364
v -0.701200 1.372138 -0.821364
v 0.554523 0.288905 -0.821364
v -0.867668 0.288905 -0.821364
v -0.701200 0.288905 -0.821364
v 0.388055 0.288905 -0.821364
v 0.145326 1.546512 -0.940260
v -0.458471 1.546512 -0.940260
v -0.668434 1.357545 -0.940260
v 0.270337 0.040263 -0.940260
v -0.583482 0.040263 -0.940260
v 0.355289 0.256139 -0.940260
v 0.355289 1.357545 -0.940260
v -0.668434 0.256139 -0.940260
v 0.151891 1.563619 -0.973486
v -0.465036 1.563619 -0.973486
v -0.685173 1.365000 -0.973486
v 0.280652 0.025118 -0.973486
v -0.593797 0.025118 -0.973486
v 0.373292 0.252724 -0.973486
v 0.372028 1.365000 -0.973486
v -0.686437 0.252724 -0.973486
v 0.372028 1.365000 -0.940260
v 0.373292 0.252724 -0.940260
v 0.280652 0.025118 -0.940260
v -0.593797 0.025118 -0.940260
v -0.686437 0.252724 -0.940260
v 0.151891 1.563619 -0.940260
v -0.685173 1.365000 -0.940260
v -0.465036 1.563619 -0.940260
v 0.274703 0.032492 -1.000000
v 0.360523 0.250576 -1.000000
v -0.673668 0.250576 -1.000000
v -0.587848 0.032492 -1.000000
v -0.673668 1.363245 -1.000000
v -0.461558 1.554145 -1.000000
v 0.148413 1.554145 -1.000000
v 0.360523 1.363245 -1.000000
v -0.156573 0.000000 -0.800869
v -0.156573 0.040263 -0.940260
v -0.156573 0.040263 -0.800869
v -0.156573 0.032492 -1.000000
v -0.156573 0.025118 -0.940260
v -0.156573 0.036313 -0.979905
v -0.156573 0.025118 -0.973486
v -0.156573 1.550391 -0.979905
v -0.156573 1.563619 -0.973486
v -0.156573 1.546512 -0.800869
v -0.156573 1.563619 -0.940260
v -0.156573 1.546512 -0.940260
v -0.156573 1.554145 -1.000000
v -0.156573 1.579278 -0.821364
v -0.156573 1.758332 -0.821364
v -0.156573 1.791097 -0.800869
v -0.156573 1.579278 -0.800869
v -0.156573 1.758332 -0.800869
v -0.156573 2.000000 -0.800869
v 0.743861 0.000000 -0.800869
v 0.743861 2.000000 -0.800869
v 0.743861 1.563728 -0.800869
v 0.743861 0.256139 -0.800869
v -1.057006 2.000000 -0.800869
v -1.057006 0.000000 -0.800869
v -1.057006 1.563728 -0.800869
v -1.057006 0.256139 -0.800869
vt 0.314773 0.515058
vt 0.380299 0.694844
vt 0.376333 0.693109
vt 0.310844 0.515682
vt 0.255071 0.507880
vt 0.255742 0.451584
vt 0.260059 0.452449
vt 0.259503 0.506621
vt 0.952536 0.606570
vt 0.956108 0.544462
vt 0.959539 0.544502
vt 0.956662 0.606862
vt 0.681754 0.160092
vt 0.643043 0.061721
vt 0.787472 0.043374
vt 0.787472 0.160092
vt 0.967823 0.607104
vt 0.947481 0.831434
vt 0.944443 0.830655
vt 0.964061 0.607305
vt 0.932939 0.829708
vt 0.936300 0.829975
vt 0.942000 0.882453
vt 0.923661 0.978072
vt 0.921276 0.977623
vt 0.939051 0.881882
vt 0.924105 0.099459
vt 0.905475 0.014912
vt 0.908000 0.014345
vt 0.927191 0.098986
vt 0.965706 0.355780
vt 0.968944 0.416685
vt 0.966059 0.416807
vt 0.962067 0.355658
vt 0.928661 0.880464
vt 0.932096 0.880928
vt 0.969296 0.480526
vt 0.966544 0.480544
vt 0.365958 0.209336
vt 0.600209 0.094068
vt 0.598953 0.100045
vt 0.368902 0.212930
vt 0.109540 0.043374
vt 0.448506 0.043374
vt 0.448506 0.061721
vt 0.253970 0.061720
vt 0.619591 0.125583
vt 0.612946 0.124515
vt 0.787473 0.954744
vt 0.448506 0.954744
vt 0.448506 0.859550
vt 0.685179 0.859550
vt 0.215259 0.160092
vt 0.109540 0.160092
vt 0.425408 0.245052
vt 0.421856 0.240661
vt 0.772542 0.749812
vt 0.772542 0.175023
vt 0.787473 0.755941
vt 0.124471 0.175023
vt 0.124471 0.749812
vt 0.109540 0.755941
vt 0.305206 0.763027
vt 0.200328 0.668636
vt 0.215259 0.661986
vt 0.310936 0.748096
vt 0.696685 0.668636
vt 0.591806 0.763027
vt 0.586077 0.748096
vt 0.681754 0.661986
vt 0.200328 0.175023
vt 0.696685 0.175023
vt 0.448506 0.763027
vt 0.448506 0.748096
vt 0.218074 0.844619
vt 0.211834 0.859550
vt 0.678939 0.844619
vt 0.448506 0.844619
vt 0.310423 0.440620
vt 0.365298 0.302012
vt 0.334520 0.256658
vt 0.355301 0.700873
vt 0.335453 0.370126
vt 0.300668 0.356348
vt 0.369390 0.304731
vt 0.296122 0.354610
vt 0.339479 0.371719
vt 0.315333 0.441459
vt 0.353585 0.706038
vt 0.330860 0.254709
vt 0.927467 0.543078
vt 0.928213 0.480850
vt 0.955432 0.480619
vt 0.926211 0.418172
vt 0.923694 0.358734
vt 0.951023 0.356738
vt 0.955452 0.417171
vt 0.903004 0.147595
vt 0.928696 0.145139
vt 0.898152 0.875684
vt 0.904842 0.826623
vt 0.897143 0.103039
vt 0.881590 0.019797
vt 0.924004 0.603800
vt 0.931788 0.144846
vt 0.933363 0.097799
vt 0.939334 0.144005
vt 0.966844 0.544526
vt 0.958817 0.417088
vt 0.954996 0.356388
vt 0.958677 0.480600
vt 0.915974 0.012614
vt 0.969776 0.544602
vt 0.942113 0.143229
vt 0.936002 0.097230
vt 0.951088 0.832182
vt 0.946515 0.883184
vt 0.974182 0.544667
vt 0.971899 0.607076
vt 0.918095 0.012174
vt 0.921456 0.011454
vt 0.940044 0.096483
vt 0.973125 0.480500
vt 0.945443 0.142460
vt 0.969625 0.355724
vt 0.973287 0.416541
vt 0.909466 0.975271
vt 0.882207 0.970264
vt 0.912304 0.975856
vt 0.927440 0.978810
vt 0.109540 0.954743
vt 0.858820 0.755941
vt 0.858820 0.954744
vt 0.858820 0.043374
vt 0.858820 0.160092
vt 0.038192 0.954743
vt 0.038192 0.755941
vt 0.038192 0.160092
vt 0.038192 0.043374
vn 0.9135 0.4068 0.0000
vn 1.0000 0.0000 0.0000
vn -0.9251 -0.3797 0.0000
vn -0.3856 -0.9227 0.0000
vn -0.0000 0.0000 -1.0000
vn -0.0000 0.0000 1.0000
vn -0.3510 -0.1753 0.9198
vn -0.4063 0.0886 0.9094
vn -0.4055 0.0737 0.9111
vn -0.3577 -0.1537 0.9211
vn -0.2097 0.3449 0.9149
vn 0.0000 0.4974 0.8675
vn -0.2182 0.3379 0.9155
vn 0.3510 -0.1753 0.9198
vn 0.1505 -0.3875 0.9095
vn 0.1495 -0.3879 0.9095
vn 0.3577 -0.1537 0.9211
vn 0.0000 -0.4366 0.8997
vn 0.9251 -0.3797 0.0000
vn 0.0000 1.0000 0.0000
vn -1.0000 0.0000 0.0000
vn -0.9135 0.4068 0.0000
vn -0.3583 0.9336 0.0000
vn 0.0000 -1.0000 0.0000
vn 0.3583 0.9336 0.0000
vn 0.3856 -0.9227 0.0000
vn -0.3583 -0.9336 0.0000
vn 0.3583 -0.9336 0.0000
vn 0.9135 -0.4068 0.0000
vn 0.9825 0.1864 0.0000
vn -0.9305 0.3662 0.0000
vn -0.9825 0.1864 0.0000
vn -0.9135 -0.4068 0.0000
vn 0.9305 0.3662 0.0000
vn -0.9815 0.1915 0.0000
vn -0.9262 0.3770 0.0000
vn 0.9815 0.1915 0.0000
vn 0.9262 0.3770 0.0000
vn -0.3588 -0.9334 0.0000
vn 0.3588 -0.9334 0.0000
vn -0.1505 -0.3875 0.9095
vn -0.1495 -0.3879 0.9095
vn 0.4063 0.0886 0.9094
vn 0.4055 0.0737 0.9111
vn 0.2097 0.3449 0.9149
vn 0.2182 0.3379 0.9155
vn -0.9175 0.3611 -0.1667
vn -0.9740 0.1715 -0.1481
vn -0.9689 0.1964 -0.1508
vn -0.9083 -0.3824 -0.1697
vn -0.3504 -0.9155 -0.1975
vn -0.3519 -0.9150 -0.1975
vn -0.8924 -0.4169 -0.1725
vn 0.0000 0.9824 -0.1868
vn 0.0000 -0.9830 -0.1836
vn 0.9740 0.1715 -0.1481
vn 0.9175 0.3611 -0.1667
vn 0.9689 0.1964 -0.1508
vn 0.9083 -0.3824 -0.1697
vn 0.8924 -0.4169 -0.1725
vn 0.3504 -0.9155 -0.1975
vn 0.3519 -0.9150 -0.1975
usemtl door
s 1
f 38/1/2 19/2/3 54/3/3 43/4/2
f 8/5/4 26/6/5 47/7/5 44/8/4
f 61/9/6 55/10/6 76/11/6 71/12/6
f 40/13/7 20/14/7 5/15/7 32/16/7
f 30/17/8 11/18/9 68/19/10 69/20/11
f 60/21/6 61/9/6 71/12/6 72/22/6
f 10/23/12 92/24/13 93/25/13 66/26/14
f 59/27/6 88/28/6 91/29/6 74/30/6
f 27/31/15 28/32/16 64/33/17 65/34/18
f 58/35/6 60/21/6 72/22/6 73/36/6
f 28/32/16 94/37/19 95/38/19 64/33/17
f 15/39/20 14/40/3 52/41/3 49/42/20
f 18/43/7 87/44/7 89/45/7 16/46/7
f 14/40/21 17/47/21 53/48/21 52/41/21
f 9/49/7 105/50/7 102/51/7 42/52/7
f 39/53/7 34/54/7 18/43/7 16/46/7
f 17/47/22 22/55/23 50/56/23 53/48/22
f 8/57/7 6/58/7 32/16/7 31/59/7
f 14/60/7 15/61/7 33/62/7 34/54/7
f 36/63/7 22/64/7 35/65/7 23/66/7
f 38/67/7 37/68/7 24/69/7 25/70/7
f 22/64/7 17/71/7 39/53/7 35/65/7
f 19/72/7 38/67/7 25/70/7 40/13/7
f 37/68/7 103/73/7 96/74/7 24/69/7
f 15/61/7 41/75/7 21/76/7 33/62/7
f 26/77/7 8/57/7 31/59/7 42/52/7
f 41/75/7 104/78/7 102/51/7 21/76/7
f 6/58/7 19/72/7 40/13/7 32/16/7
f 17/71/7 14/60/7 34/54/7 39/53/7
f 43/4/7 44/8/7 47/7/7 48/79/7
f 50/56/7 45/80/7 46/81/7 49/42/7
f 44/8/7 43/4/7 54/3/7 51/82/7
f 45/80/7 100/83/7 101/84/7 46/81/7
f 52/41/7 53/48/7 50/56/7 49/42/7
f 22/55/23 36/85/24 45/80/24 50/56/23
f 26/6/5 104/86/25 101/84/25 47/7/5
f 36/85/24 103/87/21 100/83/21 45/80/24
f 37/88/26 38/1/2 43/4/2 48/79/26
f 19/2/21 6/89/21 51/82/21 54/3/21
f 6/89/22 8/5/4 44/8/4 51/82/22
f 41/90/27 15/39/20 49/42/20 46/81/27
f 24/91/28 96/92/25 98/93/25 55/10/28
f 23/94/29 35/95/30 57/96/30 56/97/29
f 35/95/30 39/98/31 62/99/31 57/96/30
f 20/100/32 40/101/33 60/21/33 58/35/32
f 16/102/21 89/103/21 88/28/21 59/27/21
f 40/101/33 25/104/34 61/9/34 60/21/33
f 25/104/34 24/91/28 55/10/28 61/9/34
f 39/98/31 16/102/35 59/27/35 62/99/31
f 72/22/36 71/12/34 69/20/34 68/19/36
f 73/36/37 72/22/36 68/19/36 66/26/37
f 75/105/38 74/30/39 67/106/39 70/107/38
f 71/12/34 76/11/40 63/108/40 69/20/34
f 78/109/41 77/110/30 65/34/30 64/33/41
f 76/11/40 97/111/25 95/38/25 63/108/40
f 77/110/30 75/105/38 70/107/38 65/34/30
f 74/30/21 91/29/21 93/112/21 67/106/21
f 29/113/42 30/17/8 69/20/11 63/108/43
f 62/99/6 59/27/6 74/30/6 75/105/6
f 12/114/44 27/31/15 65/34/18 70/107/45
f 55/10/6 98/93/6 97/111/6 76/11/6
f 56/97/6 57/96/6 77/110/6 78/109/6
f 11/18/9 10/23/12 66/26/14 68/19/10
f 13/115/46 12/114/44 70/107/45 67/106/47
f 57/96/6 62/99/6 75/105/6 77/110/6
f 10/23/48 11/18/49 80/116/50 79/117/48
f 30/17/51 29/113/52 85/118/53 86/119/54
f 13/115/55 92/120/55 90/121/55 82/122/55
f 29/113/52 94/37/56 99/123/56 85/118/53
f 12/114/57 13/115/58 82/122/58 81/124/59
f 27/31/60 12/114/57 81/124/59 83/125/61
f 11/18/49 30/17/51 86/119/54 80/116/50
f 28/32/62 27/31/60 83/125/61 84/126/63
f 89/45/7 87/44/7 5/15/7 20/14/7
f 88/127/21 89/128/21 20/100/21 58/35/21
f 91/129/6 88/127/6 58/35/6 73/36/6
f 90/130/55 92/24/55 10/23/55 79/117/55
f 93/112/13 92/120/13 13/115/46 67/106/47
f 93/25/21 91/129/21 73/36/21 66/26/21
f 95/38/19 94/37/19 29/113/42 63/108/43
f 97/111/6 98/93/6 56/97/6 78/109/6
f 95/38/25 97/111/25 78/109/41 64/33/41
f 99/123/56 94/37/56 28/32/62 84/126/63
f 98/93/25 96/92/25 23/94/29 56/97/29
f 100/83/21 103/87/21 37/88/26 48/79/26
f 102/51/7 104/78/7 26/77/7 42/52/7
f 96/74/7 103/73/7 36/63/7 23/66/7
f 101/84/25 104/86/25 41/90/27 46/81/27
f 101/84/7 100/83/7 48/79/7 47/7/7
f 102/51/7 105/50/7 7/131/7 21/76/7
f 9/49/7 42/52/7 31/59/7
f 7/131/7 33/62/7 21/76/7
f 9/49/7 31/59/7 108/132/7 107/133/7
f 32/16/7 5/15/7 106/134/7 109/135/7
f 31/59/7 32/16/7 109/135/7 108/132/7
f 33/62/7 7/131/7 110/136/7 112/137/7
f 18/43/7 34/54/7 113/138/7 111/139/7
f 34/54/7 33/62/7 112/137/7 113/138/7
