# Blender v2.79 (sub 0) OBJ File: 'figures_2.blend'
# www.blender.org
mtllib door02.mtl
o source.014_Cube.033
v -4.483850 0.000000 0.000000
v -4.483850 1.904128 0.000000
v -3.516150 0.000000 0.000000
v -3.516150 1.904128 0.000000
vn 0.0000 0.0000 -1.0000
usemtl None
s off
f 1//1 2//1 4//1 3//1
o target_door_02_Cube.013
v -4.483850 0.000000 0.000000
v -4.483850 1.904128 0.000000
v -3.516150 0.000000 0.000000
v -3.516150 1.904128 0.000000
v -3.914018 1.877221 -0.017997
v -4.000000 1.885690 -0.017997
v -4.085982 1.877221 -0.017997
v -4.168660 1.852141 -0.017997
v -3.559270 1.444959 -0.017997
v -4.244856 1.811413 -0.017997
v -4.311643 1.756603 -0.017997
v -4.366454 1.689816 -0.017997
v -4.407181 1.613620 -0.017997
v -4.432261 1.530942 -0.017997
v -3.559270 0.000000 -0.019381
v -3.559270 1.444959 0.000000
v -3.613477 0.070373 -0.019381
v -4.440730 0.000000 -0.019381
v -4.386523 0.070373 -0.019381
v -4.440730 1.444960 0.000000
v -4.075407 1.824056 0.094335
v -4.440730 1.444960 -0.017997
v -4.440730 0.000000 0.000000
v -4.147916 1.802061 0.094335
v -4.386523 1.444960 0.094335
v -3.559270 0.000000 0.000000
v -3.613477 1.444959 0.094335
v -3.620904 1.520366 0.094335
v -3.567739 1.530942 -0.017997
v -3.592819 1.613619 -0.017997
v -3.642899 1.592875 0.094335
v -3.678618 1.659700 0.094335
v -3.726687 1.718273 0.094335
v -3.785259 1.766342 0.094335
v -3.852084 1.802060 0.094335
v -3.924593 1.824056 0.094335
v -4.000000 1.831483 0.094335
v -4.214741 1.766342 0.094335
v -4.273313 1.718273 0.094335
v -4.321382 1.659700 0.094335
v -4.357101 1.592876 0.094335
v -4.379096 1.520367 0.094335
v -3.633546 1.689816 -0.017997
v -3.688357 1.756603 -0.017997
v -3.755143 1.811413 -0.017997
v -3.831340 1.852141 -0.017997
v -4.379096 1.520367 -0.017997
v -4.357101 1.592876 -0.017997
v -4.321382 1.659700 -0.017997
v -4.273313 1.718273 -0.017997
v -4.214741 1.766342 -0.017997
v -4.147916 1.802061 -0.017997
v -4.075407 1.824056 -0.017997
v -4.000000 1.831483 -0.017997
v -3.924593 1.824056 -0.017997
v -3.852084 1.802060 -0.017997
v -3.785259 1.766342 -0.017997
v -3.726687 1.718273 -0.017997
v -3.678618 1.659700 -0.017997
v -3.642899 1.592875 -0.017997
v -3.620904 1.520366 -0.017997
v -3.613477 1.444959 -0.017997
v -4.386523 1.444960 -0.017997
v -3.914018 1.877221 0.000000
v -4.000000 1.885690 0.000000
v -4.085982 1.877221 0.000000
v -4.168660 1.852141 0.000000
v -4.386523 0.070373 0.101590
v -4.244856 1.811413 0.000000
v -4.311643 1.756603 0.000000
v -4.366454 1.689816 0.000000
v -4.407181 1.613620 0.000000
v -4.432261 1.530942 -0.000000
v -3.613477 0.070373 0.101590
v -3.567739 1.530942 -0.000000
v -3.592819 1.613619 0.000000
v -3.633546 1.689816 0.000000
v -3.688357 1.756603 0.000000
v -3.755143 1.811413 0.000000
v -3.831340 1.852141 0.000000
v -3.613477 1.374217 0.094335
v -4.386523 1.374217 0.094335
v -4.070477 1.799268 0.094335
v -4.000000 1.806210 0.094335
v -3.929523 1.799268 0.094335
v -3.861756 1.778711 0.094335
v -3.799300 1.745328 0.094335
v -3.744558 1.700402 0.094335
v -3.699632 1.645659 0.094335
v -3.666249 1.583204 0.094335
v -3.645691 1.515436 0.094335
v -3.638628 1.443724 0.094335
v -3.638628 1.399369 0.094335
v -4.361372 1.399369 0.094335
v -4.361372 1.443724 0.094335
v -4.354309 1.515436 0.094335
v -4.333751 1.583204 0.094335
v -4.300368 1.645659 0.094335
v -4.255442 1.700402 0.094335
v -4.200700 1.745328 0.094335
v -4.138244 1.778711 0.094335
v -3.956553 1.517606 0.094335
v -3.895110 1.456162 0.094335
v -3.885153 1.399369 0.094335
v -4.114847 1.399369 0.094335
v -4.104890 1.456162 0.094335
v -4.043447 1.517606 0.094335
v -3.960667 1.507673 0.100259
v -3.904352 1.451357 0.100259
v -3.896979 1.409301 0.100259
v -4.103021 1.409302 0.100259
v -4.095648 1.451357 0.100259
v -4.039333 1.507673 0.100259
v -4.125331 1.772249 0.100259
v -4.068529 1.789479 0.100259
v -4.000000 1.796229 0.100259
v -3.931471 1.789479 0.100259
v -3.874669 1.772249 0.100259
v -3.963514 1.527538 0.100259
v -4.036486 1.527539 0.100259
v -3.804845 1.737029 0.100259
v -3.751615 1.693344 0.100259
v -3.707930 1.640114 0.100259
v -3.679617 1.587144 0.100259
v -3.893382 1.468482 0.100259
v -3.945059 1.520159 0.100259
v -3.856330 1.764549 0.100259
v -3.655480 1.513489 0.100259
v -3.648561 1.443236 0.100259
v -3.648561 1.409301 0.100259
v -3.876810 1.409301 0.100259
v -3.884105 1.450911 0.100259
v -3.672183 1.568549 0.100259
v -4.351439 1.443236 0.100259
v -4.344520 1.513489 0.100259
v -4.327817 1.568550 0.100259
v -4.115895 1.450911 0.100259
v -4.123190 1.409302 0.100259
v -4.351439 1.409302 0.100259
v -4.292069 1.640115 0.100259
v -4.248385 1.693345 0.100259
v -4.195155 1.737029 0.100259
v -4.143670 1.764549 0.100259
v -4.054941 1.520159 0.100259
v -4.106618 1.468482 0.100259
v -4.320383 1.587144 0.100259
vn -0.9952 -0.0980 0.0000
vn 0.0980 -0.9952 0.0000
vn 0.0000 0.0000 -1.0000
vn -0.0006 0.0010 -1.0000
vn -0.9569 -0.2903 0.0000
vn 0.2903 -0.9569 0.0000
vn -0.8819 -0.4714 0.0000
vn 0.4714 -0.8819 0.0000
vn -0.7730 -0.6344 0.0000
vn -0.2903 -0.9569 0.0000
vn 0.9952 -0.0980 0.0000
vn 0.0006 0.0010 -1.0000
vn 0.6344 -0.7730 0.0000
vn -0.6344 -0.7730 0.0000
vn 0.7730 -0.6344 0.0000
vn -0.4714 -0.8819 0.0000
vn 0.8819 -0.4714 0.0000
vn 0.9569 -0.2903 0.0000
vn -0.0980 -0.9952 0.0000
vn -0.0980 0.9952 0.0000
vn -0.9569 0.2903 0.0000
vn -0.2903 0.9569 0.0000
vn 0.6344 0.7730 0.0000
vn 0.4714 0.8819 0.0000
vn 0.2903 0.9569 0.0000
vn -0.4714 0.8819 0.0000
vn -0.6344 0.7730 0.0000
vn -0.9952 0.0980 0.0000
vn 0.9569 0.2903 0.0000
vn -0.7730 0.6344 0.0000
vn 0.9952 0.0980 0.0000
vn 0.8819 0.4714 0.0000
vn 0.0980 0.9952 0.0000
vn 0.7730 0.6344 0.0000
vn -0.8819 0.4714 0.0000
vn 1.0000 -0.0000 0.0000
vn -1.0000 0.0000 0.0000
vn 0.0000 1.0000 0.0000
vn -0.3622 -0.3622 -0.8588
vn -0.5045 -0.0885 -0.8588
vn 0.0000 0.5122 -0.8588
vn 0.5045 -0.0884 -0.8588
vn 0.3622 -0.3622 -0.8588
vn -0.0000 -0.5122 -0.8588
vn 0.1487 -0.4902 -0.8588
vn 0.0502 -0.5098 -0.8589
vn -0.0502 -0.5098 -0.8588
vn -0.1487 -0.4902 -0.8588
vn -0.4815 0.1748 -0.8588
vn 0.4815 0.1748 -0.8588
vn -0.3250 -0.3960 -0.8588
vn -0.3960 -0.3250 -0.8588
vn -0.4518 -0.2415 -0.8588
vn -0.2486 0.4479 -0.8588
vn 0.3622 0.3622 -0.8588
vn 0.4815 -0.1748 -0.8588
vn -0.2415 -0.4518 -0.8588
vn -0.5098 -0.0502 -0.8588
vn -0.5122 0.0000 -0.8588
vn 0.5045 0.0884 -0.8588
vn 0.2486 -0.4479 -0.8588
vn -0.4902 -0.1487 -0.8588
vn 0.5098 -0.0502 -0.8588
vn 0.4902 -0.1487 -0.8588
vn -0.2486 -0.4479 -0.8588
vn -0.5045 0.0885 -0.8588
vn 0.5122 0.0000 -0.8588
vn 0.3960 -0.3250 -0.8588
vn 0.3250 -0.3960 -0.8588
vn 0.2415 -0.4518 -0.8588
vn -0.4815 -0.1748 -0.8588
vn -0.3622 0.3622 -0.8588
vn 0.2486 0.4479 -0.8588
vn 0.4518 -0.2415 -0.8588
vn 0.0000 -0.0056 -1.0000
usemtl wall
s off
f 65//2 66//2 31//2 32//2
f 57//3 58//3 41//3 25//3
f 64//4 63//4 47//4 34//4
f 67//5 23//5 22//5 26//5
f 30//4 20//4 8//4 7//4
f 64//6 65//6 32//6 35//6
f 56//7 57//7 25//7 28//7
f 63//8 64//8 35//8 36//8
f 55//9 56//9 28//9 42//9
f 62//10 63//10 36//10 37//10
f 59//11 60//11 39//11 40//11
f 67//12 51//12 46//12 29//12
f 24//4 27//4 5//4 6//4
f 21//13 66//13 13//13 19//13
f 54//14 55//14 42//14 43//14
f 56//4 55//4 14//4 12//4
f 61//15 62//15 37//15 38//15
f 63//4 62//4 48//4 47//4
f 53//16 54//16 43//16 44//16
f 60//17 61//17 38//17 39//17
f 55//4 54//4 15//4 14//4
f 52//18 53//18 44//18 45//18
f 60//4 59//4 9//4 50//4
f 51//4 67//4 26//4 18//4
f 51//19 52//19 45//19 46//19
f 58//20 59//20 40//20 41//20
f 62//4 61//4 49//4 48//4
f 54//4 53//4 16//4 15//4
f 61//4 60//4 50//4 49//4
f 53//4 52//4 17//4 16//4
f 57//4 56//4 12//4 11//4
f 65//4 64//4 34//4 33//4
f 58//4 57//4 11//4 10//4
f 66//4 65//4 33//4 13//4
f 59//4 58//4 10//4 9//4
f 52//4 51//4 18//4 17//4
f 10//21 11//21 70//21 69//21
f 17//22 18//22 77//22 76//22
f 11//23 12//23 71//23 70//23
f 48//24 49//24 83//24 82//24
f 49//25 50//25 84//25 83//25
f 50//26 9//26 68//26 84//26
f 12//27 14//27 73//27 71//27
f 14//28 15//28 74//28 73//28
f 18//29 26//29 24//29 77//29
f 33//30 34//30 80//30 79//30
f 15//31 16//31 75//31 74//31
f 13//32 33//32 79//32 20//32
f 34//33 47//33 81//33 80//33
f 9//34 10//34 69//34 68//34
f 47//35 48//35 82//35 81//35
f 16//36 17//36 76//36 75//36
f 8//4 69//4 6//4
f 20//37 30//37 19//37 13//37
f 22//38 27//38 24//38 26//38
f 66//38 21//38 78//38 85//38 31//38
f 23//37 67//37 29//37 86//37 72//37
f 21//39 23//39 72//39 78//39
f 19//4 22//4 23//4 21//4
f 6//4 77//4 24//4
f 69//4 8//4 68//4
f 77//4 6//4 76//4
f 76//4 6//4 75//4
f 75//4 6//4 74//4
f 74//4 6//4 73//4
f 73//4 6//4 71//4
f 71//4 6//4 70//4
f 70//4 6//4 69//4
f 68//4 8//4 84//4
f 84//4 8//4 83//4
f 83//4 8//4 82//4
f 82//4 8//4 81//4
f 81//4 8//4 80//4
f 80//4 8//4 79//4
f 79//4 8//4 20//4
usemtl frame
f 25//4 41//4 88//4 87//4
f 41//4 40//4 89//4 88//4
f 40//4 39//4 90//4 89//4
f 39//4 38//4 91//4 90//4
f 38//4 37//4 92//4 91//4
f 37//4 36//4 93//4 92//4
f 36//4 35//4 94//4 93//4
f 35//4 32//4 95//4 94//4
f 32//4 31//4 96//4 95//4
f 31//4 85//4 97//4 96//4
f 85//4 86//4 98//4 97//4
f 86//4 29//4 99//4 98//4
f 29//4 46//4 100//4 99//4
f 46//4 45//4 101//4 100//4
f 45//4 44//4 102//4 101//4
f 44//4 43//4 103//4 102//4
f 43//4 42//4 104//4 103//4
f 42//4 28//4 105//4 104//4
f 28//4 25//4 87//4 105//4
f 106//40 107//40 113//40 112//40
f 107//41 108//41 114//41 113//41
f 108//42 109//42 115//42 114//42
f 109//43 110//43 116//43 115//43
f 110//44 111//44 117//44 116//44
f 111//45 106//45 112//45 117//45
f 105//46 87//46 119//46 118//46
f 87//47 88//47 120//47 119//47
f 88//48 89//48 121//48 120//48
f 89//49 90//49 122//49 121//49
f 90//50 106//50 123//50 122//50
f 106//42 111//42 124//42 123//42
f 111//51 105//51 118//51 124//51
f 91//52 92//52 126//52 125//52
f 92//53 93//53 127//53 126//53
f 93//54 94//54 128//54 127//54
f 94//55 107//55 129//55 128//55
f 107//56 106//56 130//56 129//56
f 106//57 90//57 131//57 130//57
f 90//58 91//58 125//58 131//58
f 95//59 96//59 133//59 132//59
f 96//60 97//60 134//60 133//60
f 97//42 108//42 135//42 134//42
f 108//61 107//61 136//61 135//61
f 107//62 94//62 137//62 136//62
f 94//63 95//63 132//63 137//63
f 99//64 100//64 139//64 138//64
f 100//65 101//65 140//65 139//65
f 101//66 110//66 141//66 140//66
f 110//67 109//67 142//67 141//67
f 109//42 98//42 143//42 142//42
f 98//68 99//68 138//68 143//68
f 102//69 103//69 145//69 144//69
f 103//70 104//70 146//70 145//70
f 104//71 105//71 147//71 146//71
f 105//72 111//72 148//72 147//72
f 111//73 110//73 149//73 148//73
f 110//74 101//74 150//74 149//74
f 101//75 102//75 144//75 150//75
usemtl window
f 112//4 113//4 114//4 115//4 116//4 117//4
f 118//4 119//4 120//4 121//4 122//4 123//4 124//4
f 125//4 126//4 127//4 128//4 129//4 130//4 131//4
f 132//4 133//4 134//4 135//4 136//4 137//4
f 138//4 139//4 140//4 141//4 142//4 143//4
f 144//4 145//4 146//4 147//4 148//4 149//4 150//4
usemtl door
f 86//76 85//76 78//76 72//76
