# Blender v2.79 (sub 0) OBJ File: 'figures_2.blend'
# www.blender.org
mtllib door03.mtl
o source.015_Cube.034
v -6.676511 0.000000 0.000000
v -6.676511 1.904128 0.000000
v -5.323489 0.000000 0.000000
v -5.323489 1.904128 0.000000
vn 0.0000 0.0000 -1.0000
usemtl None
s off
f 1//1 2//1 4//1 3//1
o target_door_03_Cube.016
v -6.676511 0.000000 0.000000
v -6.676511 1.904128 0.000000
v -5.323489 0.000000 0.000000
v -5.323489 1.904128 0.000000
v -6.567927 1.725703 0.000000
v -5.432073 1.725703 0.000000
v -5.432073 0.000000 0.000000
v -6.567927 0.000000 0.000000
v -6.392055 1.549830 0.095116
v -5.607945 1.549830 0.095116
v -5.607945 0.000000 0.095116
v -6.392055 0.000000 0.095116
v -5.649431 0.000000 0.095116
v -6.350569 0.000000 0.095116
v -5.649431 1.508345 0.095116
v -6.350569 1.508345 0.095116
v -5.649431 1.508345 0.226328
v -6.350569 1.508345 0.226328
v -6.350569 0.000000 0.226328
v -5.649431 0.000000 0.226328
vn 0.0000 0.0000 -1.0000
vn 0.0000 -0.4757 -0.8796
vn -0.4757 0.0000 -0.8796
vn 0.4757 0.0000 -0.8796
vn -1.0000 0.0000 0.0000
vn 0.0000 1.0000 0.0000
vn 0.0000 -1.0000 0.0000
vn 1.0000 0.0000 0.0000
usemtl wall
s off
f 6//2 8//2 10//2 9//2
f 8//2 7//2 11//2 10//2
f 5//2 6//2 9//2 12//2
f 9//3 10//3 14//3 13//3
f 10//4 11//4 15//4 14//4
f 12//5 9//5 13//5 16//5
f 13//2 14//2 19//2 20//2
f 14//2 15//2 17//2 19//2
f 19//6 17//6 24//6 21//6
f 16//2 13//2 20//2 18//2
f 15//7 11//7 12//7 16//7 18//7 17//7
f 20//8 19//8 21//8 22//8
f 17//7 18//7 23//7 24//7
f 18//9 20//9 22//9 23//9
usemtl door
f 22//2 21//2 24//2 23//2
