# Blender v2.79 (sub 0) OBJ File: 'figures_2.blend'
# www.blender.org
mtllib window03.mtl
o source.003_Cube.021
v -0.433550 2.071102 0.000000
v -0.433550 4.000000 0.000000
v 0.433550 2.071102 0.000000
v 0.433550 4.000000 0.000000
vn 0.0000 0.0000 -1.0000
usemtl None
s off
f 1//1 2//1 4//1 3//1
o target_window_03_Cube.004
v 0.433550 4.000000 0.000000
v 0.349494 3.529352 0.096835
v 0.305931 3.679586 0.096835
v -0.349494 3.529352 0.096835
v -0.349473 2.094923 0.096835
v 0.349473 2.094923 0.096835
v -0.305931 3.679586 0.096835
v -0.246811 3.798632 0.096835
v -0.111199 3.880113 0.096835
v 0.000000 3.904921 0.096835
v 0.111199 3.880113 0.096835
v 0.246811 3.798632 0.096835
v 0.000000 2.094923 0.096835
v 0.000000 3.529352 0.096835
v 0.279316 3.669214 0.096835
v 0.311621 3.557803 0.096835
v 0.030183 3.557803 0.096835
v 0.028628 3.869384 0.096835
v 0.100501 3.853350 0.096835
v 0.225029 3.778529 0.096835
v 0.028451 3.500902 0.096835
v 0.321043 3.500902 0.096835
v 0.321023 2.123373 0.096835
v 0.028451 2.123373 0.096835
v -0.321043 3.500902 0.096835
v -0.028451 3.500902 0.096835
v -0.028451 2.123373 0.096835
v -0.321023 2.123373 0.096835
v -0.028274 3.869463 0.096835
v -0.026719 3.557803 0.096835
v -0.311621 3.557803 0.096835
v -0.279316 3.669214 0.096835
v -0.225029 3.778529 0.096835
v -0.100501 3.853350 0.096835
v 0.028451 3.041726 0.096835
v 0.028451 2.582550 0.096835
v 0.321036 3.041726 0.096835
v 0.321030 2.582550 0.096835
v -0.321036 3.041726 0.096835
v -0.321030 2.582550 0.096835
v -0.028451 3.041726 0.096835
v -0.028451 2.582550 0.096835
v 0.267740 3.664703 0.105228
v 0.295149 3.570178 0.105228
v 0.042496 3.570178 0.105228
v 0.041080 3.853927 0.105228
v 0.095848 3.841709 0.105228
v 0.215555 3.769785 0.105228
v 0.040825 2.570175 0.105228
v 0.308655 2.570175 0.105228
v 0.308649 2.135748 0.105228
v 0.040825 2.135748 0.105228
v -0.308655 2.570175 0.105228
v -0.040825 2.570175 0.105228
v -0.040825 2.135748 0.105228
v -0.308649 2.135748 0.105228
v -0.040572 3.854041 0.105228
v -0.039155 3.570178 0.105228
v -0.295149 3.570178 0.105228
v -0.267740 3.664703 0.105228
v -0.215555 3.769785 0.105228
v -0.095848 3.841709 0.105228
v -0.308668 3.488527 0.105228
v -0.040825 3.488527 0.105228
v -0.040825 3.054100 0.105228
v -0.308662 3.054100 0.105228
v -0.308661 3.029351 0.105228
v -0.040825 3.029351 0.105228
v -0.040825 2.594924 0.105228
v -0.308655 2.594924 0.105228
v 0.040825 3.488527 0.105228
v 0.308668 3.488527 0.105228
v 0.308662 3.054100 0.105228
v 0.040825 3.054100 0.105228
v 0.040825 3.029351 0.105228
v 0.308661 3.029351 0.105228
v 0.308655 2.594924 0.105228
v 0.040825 2.594924 0.105228
v -0.349494 3.568380 0.096835
v -0.349494 3.568380 0.016576
v 0.349494 3.568380 0.096835
v 0.349494 3.568380 0.016576
v -0.349494 3.516105 0.096835
v -0.349494 3.516105 0.016576
v 0.349494 3.516105 0.096835
v 0.349494 3.516105 0.016576
v -0.368209 2.094923 0.000000
v -0.349473 2.094923 0.020367
v -0.368230 3.542908 0.000000
v -0.349494 3.529352 0.020367
v 0.368230 3.542908 0.000000
v 0.349494 3.529352 0.020367
v 0.349473 2.094923 0.020367
v 0.368209 2.094923 0.000000
v -0.328496 3.679939 0.000000
v -0.305931 3.679586 0.020367
v -0.262404 3.813024 0.000000
v -0.246811 3.798632 0.020367
v -0.118857 3.899272 0.000000
v -0.111199 3.880113 0.020367
v -0.000000 3.925788 0.000000
v 0.000000 3.904921 0.020367
v 0.118857 3.899272 0.000000
v 0.111199 3.880113 0.020367
v 0.262404 3.813024 0.000000
v 0.246811 3.798632 0.020367
v 0.328495 3.679940 0.000000
v 0.305931 3.679586 0.020367
v -0.368209 2.094923 -0.021233
v 0.368209 2.094923 -0.021233
v -0.368209 2.071102 -0.021233
v 0.368209 2.071102 -0.021233
v -0.368209 2.071102 0.000000
v 0.368209 2.071102 0.000000
v 0.433550 2.094923 -0.021233
v 0.433550 2.094923 0.000000
v -0.433550 2.094923 0.000000
v -0.433550 2.094923 -0.021233
v 0.433550 2.071102 -0.021233
v -0.433550 2.071102 -0.021233
v 0.433550 2.071102 0.000000
v -0.433550 2.071102 0.000000
v -0.433550 3.998913 0.000000
vn 1.0000 0.0000 0.0000
vn 0.9604 -0.2785 0.0000
vn -1.0000 0.0000 0.0000
vn 0.0000 1.0000 0.0000
vn -0.2177 -0.9760 0.0000
vn -0.9604 -0.2785 0.0000
vn 0.8956 -0.4448 0.0000
vn 0.0000 0.0000 -1.0000
vn -0.5150 -0.8572 0.0000
vn 0.5150 -0.8572 0.0000
vn -0.8956 -0.4448 0.0000
vn 0.2177 -0.9760 0.0000
vn 0.0000 0.0000 1.0000
vn 0.0000 -1.0000 0.0000
vn -0.6561 -0.1903 -0.7303
vn 0.7360 0.0000 -0.6770
vn 0.6561 -0.1903 -0.7303
vn 0.6333 -0.3145 -0.7071
vn 0.3642 -0.6061 -0.7071
vn 0.1540 -0.6901 -0.7071
vn -0.1540 -0.6901 -0.7071
vn -0.3642 -0.6061 -0.7071
vn -0.6333 -0.3145 -0.7071
vn -0.7360 0.0000 -0.6770
vn -0.5391 -0.1563 -0.8276
vn 0.0000 0.5613 -0.8276
vn 0.5613 0.0028 -0.8276
vn -0.1222 -0.5479 -0.8276
vn -0.2891 -0.4811 -0.8276
vn -0.5027 -0.2497 -0.8276
vn 0.0000 -0.5613 -0.8276
vn -0.5613 0.0000 -0.8276
vn 0.5613 0.0000 -0.8276
vn -0.5613 -0.0028 -0.8276
vn 0.5391 -0.1563 -0.8276
vn 0.5027 -0.2497 -0.8276
vn 0.2891 -0.4811 -0.8276
vn 0.1222 -0.5479 -0.8276
usemtl wall
s off
f 92//2 94//2 8//2 9//2
f 94//3 100//3 11//3 8//3
f 96//4 97//4 10//4 6//4
f 97//5 98//5 91//5 92//5 9//5 17//5 10//5
f 106//6 108//6 15//6 14//6
f 112//7 96//7 6//7 7//7
f 100//8 102//8 12//8 11//8
f 5//9 125//9 98//9 95//9
f 108//10 110//10 16//10 15//10
f 102//11 104//11 13//11 12//11
f 127//9 5//9 105//9
f 110//12 112//12 7//12 16//12
f 104//13 106//13 14//13 13//13
f 126//9 127//9 93//9 91//9
f 86//5 84//5 83//5 85//5
f 8//14 6//14 85//14 83//14
f 88//15 90//15 89//15 87//15
f 6//14 8//14 87//14 89//14
f 86//9 90//9 88//9 84//9
f 111//16 95//16 96//16 112//16
f 94//17 92//17 91//17 93//17
f 93//18 99//18 100//18 94//18
f 99//19 101//19 102//19 100//19
f 101//20 103//20 104//20 102//20
f 103//21 105//21 106//21 104//21
f 105//22 107//22 108//22 106//22
f 107//23 109//23 110//23 108//23
f 109//24 111//24 112//24 110//24
f 95//25 98//25 97//25 96//25
f 125//9 126//9 91//9 98//9
f 98//5 114//5 113//5 91//5
f 114//9 116//9 115//9 113//9
f 116//15 118//15 117//15 115//15
f 118//15 116//15 123//15 125//15
f 121//4 122//4 124//4 126//4
f 119//2 120//2 125//2 123//2
f 113//9 115//9 124//9 122//9
f 114//5 98//5 120//5 119//5
f 115//15 117//15 126//15 124//15
f 116//9 114//9 119//9 123//9
f 91//5 113//5 122//5 121//5
f 127//9 105//9 103//9
f 105//9 5//9 107//9
f 103//9 101//9 127//9
f 101//9 99//9 127//9
f 99//9 93//9 127//9
f 107//9 5//9 109//9
f 109//9 5//9 111//9
f 111//9 5//9 95//9
usemtl frame
f 7//9 6//9 20//9 19//9
f 6//9 18//9 21//9 20//9
f 18//9 14//9 22//9 21//9
f 14//9 15//9 23//9 22//9
f 15//9 16//9 24//9 23//9
f 16//9 7//9 19//9 24//9
f 18//9 6//9 26//9 25//9
f 6//9 10//9 27//9 42//9 41//9 26//9
f 10//9 17//9 28//9 27//9
f 17//9 18//9 25//9 39//9 40//9 28//9
f 8//9 18//9 30//9 29//9
f 18//9 17//9 31//9 46//9 45//9 30//9
f 17//9 9//9 32//9 31//9
f 9//9 8//9 29//9 43//9 44//9 32//9
f 14//9 18//9 34//9 33//9
f 18//9 8//9 35//9 34//9
f 8//9 11//9 36//9 35//9
f 11//9 12//9 37//9 36//9
f 12//9 13//9 38//9 37//9
f 13//9 14//9 33//9 38//9
f 19//26 20//26 48//26 47//26
f 20//27 21//27 49//27 48//27
f 21//28 22//28 50//28 49//28
f 22//29 23//29 51//29 50//29
f 23//30 24//30 52//30 51//30
f 24//31 19//31 47//31 52//31
f 40//32 42//32 54//32 53//32
f 42//33 27//33 55//33 54//33
f 27//27 28//27 56//27 55//27
f 28//34 40//34 53//34 56//34
f 44//32 46//32 58//32 57//32
f 46//33 31//33 59//33 58//33
f 31//27 32//27 60//27 59//27
f 32//34 44//34 57//34 60//34
f 33//35 34//35 62//35 61//35
f 34//27 35//27 63//27 62//27
f 35//36 36//36 64//36 63//36
f 36//37 37//37 65//37 64//37
f 37//38 38//38 66//38 65//38
f 38//39 33//39 61//39 66//39
f 29//32 30//32 68//32 67//32
f 30//33 45//33 69//33 68//33
f 45//27 43//27 70//27 69//27
f 43//34 29//34 67//34 70//34
f 43//32 45//32 72//32 71//32
f 45//33 46//33 73//33 72//33
f 46//27 44//27 74//27 73//27
f 44//34 43//34 71//34 74//34
f 25//32 26//32 76//32 75//32
f 26//33 41//33 77//33 76//33
f 41//27 39//27 78//27 77//27
f 39//34 25//34 75//34 78//34
f 39//32 41//32 80//32 79//32
f 41//33 42//33 81//33 80//33
f 42//27 40//27 82//27 81//27
f 40//34 39//34 79//34 82//34
usemtl window
f 47//9 48//9 49//9 50//9 51//9 52//9
f 53//9 54//9 55//9 56//9
f 57//9 58//9 59//9 60//9
f 61//9 62//9 63//9 64//9 65//9 66//9
f 67//9 68//9 69//9 70//9
f 71//9 72//9 73//9 74//9
f 75//9 76//9 77//9 78//9
f 79//9 80//9 81//9 82//9
