# Blender v2.79 (sub 0) OBJ File: 'testcity.blend'
# www.blender.org
mtllib building_generator_test.mtl
o Plane.017
v 124.731873 67.811279 192.140076
v 152.791763 67.811279 -2.578949
v 152.791763 67.811279 -139.715332
v 124.731873 67.811279 -255.259277
v 152.791763 67.811279 -237.562256
v 18.163586 67.811279 192.140076
v 152.791763 67.811279 192.140076
v 152.791779 67.811279 -10.476837
v 152.791763 67.811279 94.780579
v 152.791763 67.811279 46.100830
v 152.791763 67.811279 143.460327
v 124.731873 67.811279 143.140610
v 124.731964 67.811279 142.798782
v 14.627720 67.811279 142.035187
v 124.731873 67.811279 94.780579
v 14.627941 67.811287 94.780579
v 124.731888 67.811279 187.205948
v 124.731956 67.811279 137.996964
v 124.731956 67.811279 147.732910
v 124.731873 67.811279 89.912598
v 124.731888 67.811279 99.582397
v 21.698849 67.811287 94.780579
v 21.699242 67.811279 142.084229
v 124.731873 67.811279 1.353455
v 128.267334 67.811279 -2.578949
v 124.731873 67.811279 -6.114410
v 34.515182 67.811287 45.288666
v 14.627796 67.811287 61.778900
v 21.698685 67.811287 52.749908
v -6.007233 67.811279 192.140060
v -6.006989 67.811279 141.863892
v -5.741386 67.811287 94.780579
v 124.731873 67.811279 42.563843
v 124.731873 67.811279 49.638000
v 128.267334 67.811279 46.100922
v 21.699036 67.811279 187.132126
v 14.628113 67.811279 187.129608
v 21.698925 67.811279 137.332520
v 14.628002 67.811279 137.309723
v 14.628025 67.811279 147.045685
v 21.698948 67.811279 147.068466
v 21.698822 67.811287 90.223816
v 14.627899 67.811287 90.234497
v 14.627926 67.811287 99.506058
v 21.698849 67.811287 99.508575
v 47.456982 67.811287 51.971924
v 73.215279 67.811287 51.193939
v 98.973579 67.811279 50.415955
v 47.457085 67.811287 90.145996
v 73.215347 67.811279 90.068207
v 98.973618 67.811279 89.990417
v 98.973671 67.811279 187.187500
v 73.215454 67.811279 187.169037
v 47.457245 67.811279 187.150574
v 98.973709 67.811279 147.566803
v 73.215454 67.811279 147.400696
v 47.457199 67.811279 147.234589
v 98.973694 67.811279 137.830856
v 73.215439 67.811279 137.664749
v 47.457184 67.811279 137.498627
v 98.973625 67.811279 99.563934
v 73.215363 67.811279 99.545486
v 47.457108 67.811287 99.527039
v 14.627850 67.811287 76.632111
v 6.264839 67.811287 75.328369
v -6.007210 67.811279 187.129669
v -6.007011 67.811279 146.838165
v 119.487900 67.811279 -141.041077
v 124.731674 67.811279 -138.389618
v 58.502022 67.811279 -308.611877
v 62.918098 67.811279 -303.586426
v 20.201099 67.811287 -277.506592
v 13.668930 67.811287 -281.240112
v 14.498795 67.811287 -274.093201
v -42.194405 67.811295 -241.022217
v -48.625504 67.811295 -244.901733
v -47.950264 67.811295 -237.738708
v -111.287239 67.811295 -202.599731
v -117.526894 67.811295 -206.675659
v -118.670189 67.811295 -198.707825
v -111.106941 67.811295 -189.611450
v 50.770226 67.811287 -111.377808
v 44.576935 67.811287 -108.704346
v 48.507877 67.811287 -103.222412
v 54.701164 67.811287 -105.895874
v -33.696411 67.811295 -74.916016
v -40.882195 67.811295 -74.049286
v -39.042091 67.811295 -67.458344
v -33.859558 67.811295 -59.754608
v -30.690331 67.811295 -69.034882
v -172.351318 67.811302 -171.454468
v -178.434723 67.793770 -175.753357
v -62.299461 67.811279 188.844620
v -59.003990 67.811279 195.435562
v -55.708519 67.811279 188.844620
v -122.542229 67.811279 188.844635
v -129.160522 67.811279 188.844635
v -126.151985 67.811279 195.435577
v -209.255646 67.811279 188.844635
v -216.475189 67.811279 195.435577
v -105.823875 67.811295 -74.049225
v -105.781105 67.811295 -67.458282
v -99.162804 67.811295 -67.458282
v -99.198036 67.811295 -74.049225
v -192.208496 67.811295 -70.753815
v -185.876221 67.811295 -67.458344
v -185.128784 67.811295 -74.049286
v -62.299477 67.811279 144.298294
v -55.708534 67.811279 144.445206
v -55.708534 67.811279 137.853516
v -62.299477 67.811279 137.704391
v -62.299446 67.811287 97.966431
v -55.708504 67.811287 98.076111
v -55.708527 67.811287 91.485168
v -62.299461 67.811287 91.371735
v -62.299721 67.811287 52.474457
v -55.708771 67.811287 52.496918
v -54.955559 67.811287 45.874054
v -61.682686 67.811287 45.904175
v 124.731873 67.811279 -6.114410
v 119.636307 67.811279 -4.029816
v 10.755867 67.811287 43.472809
v -13.785225 67.811279 188.844589
v -9.896133 67.811279 195.435532
v -13.803642 67.811279 138.481888
v -13.785019 67.811279 145.073868
v -12.016708 67.811287 91.485107
v -14.032097 67.811287 98.076050
v 90.160080 67.811279 -54.532623
v 87.276497 67.811279 -60.467743
v 81.140167 67.811287 -57.714844
v 85.050476 67.811279 -52.261719
v 124.731873 67.811279 -76.499542
v 124.731873 67.811279 -69.330170
v -5.365242 67.811287 -10.439819
v -7.980942 67.811287 -16.491791
v -14.602448 67.811287 -15.199127
v -11.796227 67.811287 -8.706329
v -51.017128 67.811287 -7.498749
v -44.292007 67.811287 -7.518860
v -42.965111 67.811287 -14.162689
v -49.705627 67.811287 -14.065491
v -118.325890 67.811279 142.622009
v -117.726051 67.811279 136.046051
v -124.326347 67.811279 135.848572
v -124.926186 67.811279 142.424515
v -211.777985 67.811279 143.941162
v -204.803284 67.811279 140.034424
v -204.203461 67.811279 133.458481
v -210.955994 67.811279 134.929825
v -207.340149 67.811279 140.469330
v -211.401306 67.811279 135.278198
v -212.216675 67.811279 139.535309
v -200.539062 67.811287 93.286835
v -199.939362 67.811287 86.712433
v -206.834473 67.811287 89.587280
v -120.690514 67.811287 95.989838
v -114.092583 67.811287 96.213165
v -113.492882 67.811287 89.638763
v -120.090813 67.811287 89.415436
v -116.505363 67.811287 50.108917
v -109.913292 67.811287 50.396606
v -109.313896 67.811287 43.825562
v -115.905968 67.811287 43.537872
v -196.282867 67.811287 46.627014
v -195.683472 67.811287 40.055969
v -202.575470 67.811287 42.896942
v -191.079468 67.811287 -10.416443
v -190.479309 67.811287 -16.995850
v -197.378265 67.811287 -14.078766
v -104.537331 67.811287 -8.538788
v -103.937065 67.811287 -15.119324
v -110.543007 67.811287 -15.254883
v -111.143166 67.811287 -8.675476
v -74.196678 67.811295 -141.563385
v -81.312462 67.811295 -140.581482
v -77.307274 67.811295 -133.990540
v -70.759102 67.811295 -135.906494
v -3.625610 67.811287 -175.925476
v 0.270653 67.811287 -170.491943
v 6.257149 67.811287 -173.453796
v 2.367874 67.811287 -178.877563
v 124.731873 67.811279 -200.855530
v 124.731873 67.811279 -194.119080
v -111.931923 67.811295 -133.320862
v -105.375099 67.811295 -133.990540
v -106.054314 67.811295 -140.581482
v -112.611031 67.811295 -139.910675
v 64.927788 67.811287 -210.184814
v 69.097054 67.811287 -204.901123
v 78.249596 67.811279 -203.942017
v 71.870155 67.811287 -212.026672
v -179.176208 67.811295 -119.427032
v -178.268768 67.811295 -126.344666
v -185.406250 67.800957 -122.608612
v 124.731949 67.811279 -136.125977
v 124.731781 67.811279 -145.035400
v 18.103394 67.811287 43.859924
v 12.432869 67.811287 50.006866
v -13.785118 67.811279 166.959229
v -13.847801 67.811287 -257.557739
v -79.618752 67.811295 -220.169189
v 39.713291 67.811287 -242.139038
v -19.913261 67.811287 -209.949890
v -25.787941 67.811295 -206.832092
v -92.741966 67.811295 -172.081543
v 85.129059 67.811279 -126.209442
v 5.440262 67.811287 -91.810181
v 8.908775 67.811287 -86.128662
v -145.510742 67.811302 -185.081177
v -92.420845 67.811279 188.844635
v -169.208099 67.811279 188.844635
v -62.299461 67.811279 166.571457
v -55.708527 67.811279 166.644913
v -182.152496 67.811295 -96.738159
v -108.877892 67.811295 -103.685059
v -102.286568 67.811295 -104.019897
v -70.040123 67.811295 -74.049255
v -69.102440 67.811295 -67.458313
v -127.043358 67.811279 165.634583
v -120.434059 67.811279 165.733322
v -145.476318 67.811295 -74.049255
v -145.828674 67.811295 -67.458313
v -207.029449 67.811279 164.439529
v -62.299461 67.811287 117.835419
v -55.708519 67.811287 117.964813
v -62.299583 67.811287 71.923096
v -55.708649 67.811287 71.991028
v -56.349907 67.811287 19.202698
v -49.623787 67.811287 19.177612
v -0.520180 67.811287 17.383240
v 6.369072 67.811287 16.710052
v -22.099846 67.811287 44.673431
v -34.870300 67.811287 98.076080
v -33.862617 67.811287 91.485138
v -34.746872 67.811279 188.844604
v -34.756088 67.811279 138.167694
v -34.746773 67.811279 144.759537
v 64.824020 67.811287 -80.468628
v 70.988831 67.811287 -83.181824
v -19.335640 67.811287 -42.763336
v -44.373863 67.811295 -40.761902
v -28.044121 67.811287 -8.112610
v 39.842617 67.811287 -31.350769
v 36.579613 67.811287 -37.103333
v 107.445984 67.811279 -61.931396
v 106.004189 67.811279 -68.483643
v -122.508430 67.811287 115.919205
v -115.909325 67.811287 116.129608
v -202.371246 67.811287 113.372650
v -164.264893 67.811279 134.653534
v -164.864746 67.811279 141.229462
v -90.012764 67.811279 136.875214
v -90.312675 67.811279 143.460144
v -198.111115 67.811287 66.669739
v -118.298088 67.811287 69.762177
v -111.703087 67.811287 70.017700
v -87.896172 67.811287 90.505249
v -88.196007 67.811287 97.089783
v -160.015076 67.811287 88.063934
v -160.614777 67.811287 94.638336
v -113.524559 67.811287 17.431213
v -106.925621 67.811287 17.643372
v -193.381470 67.811287 14.819763
v -85.498283 67.811287 44.864868
v -86.106499 67.811287 51.435547
v -155.794708 67.811287 41.796936
v -156.394104 67.811287 48.367981
v -188.177765 67.811295 -42.227112
v -108.162056 67.811295 -41.356567
v -101.549934 67.811295 -41.288818
v -150.511169 67.811287 -16.125366
v -151.111328 67.811287 -9.545959
v -76.821342 67.811287 -14.592407
v -77.777229 67.811287 -8.018768
v -52.227760 67.811295 -105.411255
v -59.094734 67.811295 -104.019897
v 28.513687 67.811287 -142.415802
v 22.423794 67.811287 -139.598145
v -115.640617 67.811295 -169.309265
v 94.292473 67.811279 -172.971069
v -175.310028 67.811302 -148.899567
v -91.341179 67.811295 -133.990540
v 33.647831 67.811287 -194.531189
v 37.677101 67.811287 -189.177490
v -145.439911 67.811295 -133.127686
v -145.554077 67.811295 -126.373962
v -38.911140 67.811295 -158.744446
v -35.244225 67.811295 -153.199219
v 124.731873 67.811279 -37.722290
v -13.917870 67.811287 118.278961
v 124.731873 67.811279 -6.114410
v 89.716553 67.811279 -121.010925
v -21.637947 67.811287 51.251892
v 68.869850 67.811287 19.915039
v 0.208076 67.811287 70.745972
v -27.750282 67.811287 71.368530
v -148.169922 67.811295 -41.791840
v -72.961891 67.811295 -41.025360
v -25.071983 67.811287 18.280396
v -153.453033 67.811287 16.125488
v -34.813194 67.811287 118.121887
v -89.104393 67.811287 116.982498
v -158.204590 67.811287 68.215942
v -14.901985 67.811287 -122.504700
v 124.731873 67.811279 -22.818970
v -162.439850 67.811287 114.645935
v 70.419228 67.811287 27.803528
v 61.403084 67.811287 -157.693420
v -81.637749 67.811287 18.423035
v -145.515198 67.811295 -100.211609
v -34.746819 67.811279 166.802063
v -167.036407 67.811279 165.037048
v -91.366753 67.811279 166.152390
v -87.001335 67.811287 70.970398
v -145.475342 67.811302 -159.104431
v -80.690651 67.811295 -104.019897
v -59.264946 67.811295 -189.456787
v 9.900017 67.811287 -226.044434
v 41.559601 67.811287 -290.546509
v 46.035629 67.811287 -244.766602
v 93.824982 67.811279 -279.422852
v 98.301018 67.811279 -233.642944
v 69.930305 67.811279 -262.094727
v 124.731873 67.811279 -62.297577
v 118.096466 67.811279 -66.490051
v 14.299328 67.811287 -26.797546
v 46.263481 67.811287 39.567291
v -56.553917 67.811295 -150.153931
v 43.486622 67.811287 31.887482
v -33.564873 67.811295 -113.957977
v -76.003456 67.811295 -180.769165
v -95.452995 67.811295 -211.384460
v -10.890770 67.811287 -77.581787
v 17.238674 67.811287 -20.895294
v -14.128075 67.811287 -83.363098
v -53.001663 67.811295 -144.552856
v 28.708328 67.811287 -94.675537
v 94.253067 67.811279 7.942627
v -63.784477 67.811295 -228.953979
v 47.561207 67.811287 44.894623
v -17.486786 67.811287 -161.845581
v 25.008598 67.811287 -100.257263
v 3.760902 67.811287 -131.051422
v -42.526459 67.811295 -198.144409
v -21.268379 67.811295 -167.334961
v 62.446548 67.811287 -41.806244
v 58.859890 67.811287 -47.409088
v 73.466064 67.811287 44.112213
v 99.501938 67.811279 43.325867
v 97.575554 67.811279 14.578491
v 124.731873 67.811279 28.553741
vn 0.0000 1.0000 -0.0000
vn 0.0000 -1.0000 -0.0000
vn -0.0016 1.0000 -0.0002
vn -0.0007 1.0000 -0.0011
vn -0.0008 1.0000 -0.0002
vn -0.0021 1.0000 -0.0003
usemtl white
s off
f 27//1 341//1 328//1
f 81//1 187//1 176//1
f 65//1 64//1 28//1
f 89//1 141//1 137//1
f 151//1 152//1 153//1
f 150//2 152//2 151//2 147//2
f 197//1 184//1 191//1
f 192//1 183//1 4//1 323//1
usemtl subroad
f 1//1 7//1 11//1 12//1
f 3//1 5//1 4//1 183//1 184//1 69//1
f 126//1 67//1 31//1 125//1
f 44//1 45//1 22//1 16//1
f 12//1 11//1 9//1 15//1
f 15//1 9//1 10//1 35//1 34//1 20//1
f 1//1 17//1 52//1 53//1 54//1 36//1 37//1 6//1
f 16//1 22//1 42//1 43//1
f 14//1 23//1 38//1 39//1
f 19//1 13//1 23//1 41//1 57//1 56//1 55//1
f 24//1 121//1 339//1 351//1
f 32//1 128//1 291//1 125//1 31//1
f 33//1 34//1 35//1
f 27//1 198//1 29//1
f 33//1 350//1 48//1 34//1
f 36//1 41//1 40//1 37//1
f 28//1 64//1 43//1 42//1 29//1
f 38//1 45//1 44//1 39//1
f 33//1 35//1 10//1 2//1 25//1 24//1 352//1
f 38//1 23//1 13//1 18//1 58//1 59//1 60//1
f 41//1 23//1 14//1 40//1
f 42//1 22//1 15//1 20//1 51//1 50//1 49//1
f 22//1 45//1 63//1 62//1 61//1 21//1 15//1
f 40//1 14//1 31//1 67//1
f 30//1 6//1 37//1 66//1
f 66//1 123//1 124//1 30//1
f 67//1 126//1 200//1 123//1 66//1
f 72//1 73//1 74//1
f 75//1 76//1 77//1
f 78//1 79//1 80//1 81//1
f 82//1 83//1 84//1 85//1
f 86//1 87//1 88//1 89//1 90//1
f 93//1 94//1 95//1
f 96//1 97//1 98//1
f 101//1 102//1 103//1 104//1
f 105//1 106//1 107//1
f 108//1 109//1 110//1 111//1
f 112//1 113//1 114//1 115//1
f 116//1 117//1 118//1 119//1
f 24//1 25//1 26//1 292//1 120//1 121//1
f 127//1 128//1 32//1
f 129//1 130//1 131//1 132//1
f 135//1 136//1 137//1 138//1
f 139//1 140//1 141//1 142//1
f 143//1 144//1 145//1 146//1
f 147//1 148//1 149//1 150//1
f 154//1 155//1 156//1
f 157//1 158//1 159//1 160//1
f 161//1 162//1 163//1 164//1
f 165//1 166//1 167//1
f 168//1 169//1 170//1
f 171//1 172//1 173//1 174//1
f 175//1 176//1 177//1 178//1
f 179//1 180//1 181//1 182//1
f 185//1 186//1 187//1 188//1
f 189//1 190//1 191//1 192//1
f 193//3 194//3 195//3
f 72//1 320//1 71//1 70//1 73//1
f 75//1 201//1 74//1 73//1 76//1
f 78//1 333//1 202//1 340//1 77//1 76//1 79//1
f 192//1 321//1 203//1 189//1
f 204//1 75//1 77//1 205//1
f 175//1 206//1 78//1 81//1 176//1
f 207//1 82//1 85//1 293//1
f 208//1 336//1 334//1 209//1
f 79//4 92//4 91//4 210//4 80//4
f 93//1 211//1 96//1 98//1 94//1
f 97//1 212//1 99//1 100//1 98//1
f 213//1 93//1 95//1 214//1
f 195//5 105//5 107//5 215//5 193//5
f 216//1 101//1 104//1 217//1
f 218//1 104//1 103//1 219//1
f 220//1 97//1 96//1 221//1
f 222//1 107//1 106//1 223//1
f 147//1 100//1 99//1 224//1 148//1
f 225//1 111//1 110//1 226//1
f 227//1 115//1 114//1 228//1
f 229//1 119//1 118//1 230//1
f 231//1 122//1 198//1 232//1
f 294//1 199//1 122//1 233//1
f 234//1 128//1 127//1 235//1
f 123//1 236//1 95//1 94//1 124//1
f 237//1 110//1 109//1 238//1
f 239//1 131//1 130//1 240//1
f 89//1 137//1 136//1 241//1 90//1
f 88//1 242//1 142//1 141//1 89//1
f 140//1 243//1 138//1 137//1 141//1
f 244//1 347//1 348//1 245//1
f 246//1 326//1 134//1 133//1 247//1
f 248//1 145//1 144//1 249//1
f 156//1 150//1 149//1 250//1 154//1
f 251//1 149//1 148//1 252//1
f 253//1 144//1 143//1 254//1
f 167//1 156//1 155//1 255//1 165//1
f 256//1 160//1 159//1 257//1
f 258//1 159//1 158//1 259//1
f 260//1 155//1 154//1 261//1
f 262//1 164//1 163//1 263//1
f 170//1 167//1 166//1 264//1 168//1
f 265//1 163//1 162//1 266//1
f 267//1 166//1 165//1 268//1
f 105//1 170//1 169//1 269//1 106//1
f 270//1 173//1 172//1 271//1
f 272//1 169//1 168//1 273//1
f 274//1 172//1 171//1 275//1
f 276//1 178//1 177//1 277//1
f 278//1 181//1 180//1 279//1
f 80//1 280//1 188//1 187//1 81//1
f 29//1 198//1 199//1 28//1
f 92//6 195//6 194//6 282//6 91//6
f 176//1 187//1 186//1 283//1 177//1
f 183//1 192//1 191//1 184//1
f 284//1 182//1 181//1 285//1
f 286//1 194//1 193//1 287//1
f 288//1 329//1 337//1 289//1
f 26//1 25//1 2//1 8//1 3//1 69//1 133//1 134//1 325//1 290//1 306//1
f 122//1 199//1 198//1
f 69//1 197//1 191//1 190//1 281//1 68//1
f 28//1 199//1 296//1 127//1 32//1 65//1
f 179//1 346//1 342//1 180//1
f 188//1 286//1 287//1 185//1
f 189//1 284//1 285//1 190//1
f 82//1 278//1 279//1 83//1
f 86//1 276//1 277//1 87//1
f 142//1 274//1 275//1 139//1
f 173//1 272//1 273//1 174//1
f 102//1 270//1 271//1 103//1
f 164//1 267//1 268//1 161//1
f 119//1 265//1 266//1 116//1
f 174//1 262//1 263//1 171//1
f 160//1 260//1 261//1 157//1
f 115//1 258//1 259//1 112//1
f 161//1 256//1 257//1 162//1
f 111//1 253//1 254//1 108//1
f 145//1 251//1 252//1 146//1
f 157//1 248//1 249//1 158//1
f 129//1 246//1 247//1 130//1
f 135//1 335//1 327//1 136//1
f 84//1 239//1 240//1 85//1
f 125//1 237//1 238//1 126//1
f 113//1 234//1 235//1 114//1
f 117//1 294//1 233//1 118//1
f 138//1 231//1 232//1 135//1
f 139//1 229//1 230//1 140//1
f 116//1 227//1 228//1 117//1
f 112//1 225//1 226//1 113//1
f 101//1 222//1 223//1 102//1
f 146//1 220//1 221//1 143//1
f 87//1 218//1 219//1 88//1
f 185//1 216//1 217//1 186//1
f 108//1 213//1 214//1 109//1
f 83//1 343//1 338//1 84//1
f 68//1 207//1 293//1 196//1 69//1
f 182//1 204//1 205//1 179//1
f 203//1 321//1 72//1 74//1
f 327//1 335//1 244//1 245//1
f 337//1 329//1 175//1 178//1
f 334//1 336//1 86//1 90//1
f 348//1 347//1 132//1 131//1
f 338//1 343//1 208//1 209//1
f 342//1 346//1 288//1 289//1
f 328//1 330//1 198//1 27//1
f 46//1 341//1 27//1 29//1
f 308//1 295//1 330//1 328//1
f 47//1 349//1 341//1 46//1
f 48//1 350//1 349//1 47//1
f 351//1 339//1 295//1 308//1
usemtl green
f 40//1 67//1 66//1 37//1
f 17//1 19//1 55//1 56//1 57//1 41//1 36//1 54//1 53//1 52//1
usemtl lot
f 324//1 320//1 72//1 321//1
f 319//1 203//1 74//1 201//1
f 318//1 345//1 340//1 202//1
f 317//1 217//1 104//1 218//1
f 316//1 286//1 188//1 280//1
f 315//1 227//1 116//1 266//1
f 314//1 254//1 143//1 221//1
f 313//1 252//1 148//1 224//1
f 312//1 214//1 95//1 236//1
f 311//1 215//1 107//1 222//1
f 310//1 229//1 139//1 275//1
f 309//1 285//1 181//1 278//1
f 307//1 248//1 157//1 261//1
f 305//1 344//1 342//1 289//1
f 304//1 256//1 161//1 268//1
f 303//1 225//1 112//1 259//1
f 302//1 226//1 110//1 237//1
f 301//1 262//1 174//1 273//1
f 300//1 230//1 118//1 233//1
f 299//1 242//1 88//1 219//1
f 298//1 270//1 102//1 223//1
f 297//1 228//1 114//1 235//1
f 296//1 297//1 235//1 127//1
f 199//1 294//1 297//1 296//1
f 294//1 117//1 228//1 297//1
f 269//1 298//1 223//1 106//1
f 169//1 272//1 298//1 269//1
f 272//1 173//1 270//1 298//1
f 271//1 299//1 219//1 103//1
f 172//1 274//1 299//1 271//1
f 274//1 142//1 242//1 299//1
f 231//1 300//1 233//1 122//1
f 138//1 243//1 300//1 231//1
f 243//1 140//1 230//1 300//1
f 264//1 301//1 273//1 168//1
f 166//1 267//1 301//1 264//1
f 267//1 164//1 262//1 301//1
f 291//1 302//1 237//1 125//1
f 128//1 234//1 302//1 291//1
f 234//1 113//1 226//1 302//1
f 249//1 303//1 259//1 158//1
f 144//1 253//1 303//1 249//1
f 253//1 111//1 225//1 303//1
f 255//1 304//1 268//1 165//1
f 155//1 260//1 304//1 255//1
f 260//1 160//1 256//1 304//1
f 276//1 331//1 337//1 178//1
f 86//1 336//1 331//1 276//1
f 208//1 343//1 344//1 305//1
f 250//1 307//1 261//1 154//1
f 149//1 251//1 307//1 250//1
f 251//1 145//1 248//1 307//1
f 207//1 309//1 278//1 82//1
f 68//1 281//1 309//1 207//1
f 281//1 190//1 285//1 309//1
f 263//1 310//1 275//1 171//1
f 163//1 265//1 310//1 263//1
f 265//1 119//1 229//1 310//1
f 216//1 311//1 222//1 101//1
f 185//1 287//1 311//1 216//1
f 287//1 193//1 215//1 311//1
f 200//1 312//1 236//1 123//1
f 126//1 238//1 312//1 200//1
f 238//1 109//1 214//1 312//1
f 212//1 313//1 224//1 99//1
f 97//1 220//1 313//1 212//1
f 220//1 146//1 252//1 313//1
f 211//1 314//1 221//1 96//1
f 93//1 213//1 314//1 211//1
f 213//1 108//1 254//1 314//1
f 257//1 315//1 266//1 162//1
f 159//1 258//1 315//1 257//1
f 258//1 115//1 227//1 315//1
f 210//1 316//1 280//1 80//1
f 91//1 282//1 316//1 210//1
f 282//1 194//1 286//1 316//1
f 277//1 317//1 218//1 87//1
f 177//1 283//1 317//1 277//1
f 283//1 186//1 217//1 317//1
f 206//1 332//1 333//1 78//1
f 175//1 329//1 332//1 206//1
f 288//1 346//1 345//1 318//1
f 204//1 319//1 201//1 75//1
f 182//1 284//1 319//1 204//1
f 284//1 189//1 203//1 319//1
f 323//1 324//1 321//1 192//1
f 4//1 322//1 324//1 323//1
f 322//1 71//1 320//1 324//1
f 337//1 331//1 305//1 289//1
f 332//1 329//1 288//1 318//1
f 331//1 336//1 208//1 305//1
f 333//1 332//1 318//1 202//1
f 345//1 346//1 179//1 205//1
f 344//1 343//1 83//1 279//1
f 342//1 344//1 279//1 180//1
f 340//1 345//1 205//1 77//1
