# Blender v2.79 (sub 0) OBJ File: 'figures.blend'
# www.blender.org
mtllib fp2_2.mtl
o source_floorplan2_Plane.009
v -15.000000 0.000000 10.000000
v -2.000000 0.000000 10.000000
v -15.000000 0.000000 0.000000
v -2.000000 0.000000 0.000000
vn 0.0000 1.0000 0.0000
usemtl None
s off
f 1//1 2//1 4//1 3//1
o target_fp_2_Plane.008
v -14.897082 0.000000 9.909868
v -8.543159 0.000000 9.909868
v -8.543159 0.000000 6.132631
v -8.543159 0.000000 0.077185
v -14.897082 0.000000 0.077185
v -5.902187 0.000000 2.477184
v -5.902187 0.000000 6.029714
v -2.102917 0.000000 6.029714
v -2.102917 0.000000 2.477184
v -8.337325 0.000000 6.235548
v -8.337325 0.000000 9.909868
v -2.102917 0.000000 9.909868
v -2.102917 0.000000 6.235548
v -6.005105 0.000000 6.235548
v -6.108022 0.000000 2.271350
v -2.102917 0.000000 2.271350
v -2.102917 0.000000 0.077185
v -8.337325 0.000000 0.077185
v -8.337325 0.000000 6.029714
v -6.108022 0.000000 6.029714
v -7.880058 3.016288 6.029714
v -6.565289 3.016288 6.029714
v -8.337325 3.016288 4.051162
v -8.337325 3.016288 5.365932
v -6.565289 3.016288 6.235548
v -7.880058 3.016288 6.235548
v -8.543159 0.000000 5.365932
v -8.543159 0.000000 4.051162
v -4.118743 0.000000 2.477184
v -5.433513 0.000000 2.477184
v -6.565289 0.000000 6.235548
v -7.880058 0.000000 6.235548
v -5.433513 0.000000 2.271350
v -4.118743 0.000000 2.271350
v -8.337325 0.000000 4.051162
v -8.337325 0.000000 5.365932
v -7.880058 0.000000 6.029714
v -6.565289 0.000000 6.029714
v -2.102917 0.000000 1.937919
v -2.102917 0.000000 0.410615
v -8.543159 3.016288 5.365932
v -8.543159 3.016288 4.051162
v -14.897082 4.000000 9.909868
v -8.543159 4.000000 9.909868
v -2.102917 4.000000 6.029714
v -2.102917 4.000000 2.477184
v -8.543159 4.000000 0.077185
v -14.897082 4.000000 0.077185
v -2.102917 4.000000 0.077185
v -8.337325 4.000000 0.077185
v -8.337325 4.000000 9.909868
v -2.102917 4.000000 9.909868
v -2.102917 4.000000 6.235548
v -8.543159 4.000000 6.132631
v -5.902187 4.000000 6.029714
v -5.902187 4.000000 2.477184
v -8.337325 4.000000 6.235548
v -6.005105 4.000000 6.235548
v -6.108022 4.000000 6.029714
v -6.108022 4.000000 2.271350
v -8.543159 4.000000 4.051162
v -8.543159 4.000000 5.365932
v -5.433513 4.000000 2.477184
v -4.118743 4.000000 2.477184
v -7.880058 4.000000 6.235548
v -6.565289 4.000000 6.235548
v -4.118743 4.000000 2.271350
v -5.433513 4.000000 2.271350
v -8.337325 4.000000 5.365932
v -8.337325 4.000000 4.051162
v -6.565289 4.000000 6.029714
v -7.880058 4.000000 6.029714
v -8.337325 4.000000 6.029714
v -2.102917 4.000000 2.271350
v -2.102917 4.000000 0.410615
v -2.102917 4.000000 1.937919
v -5.433513 3.016288 2.477184
v -4.118743 3.016288 2.477184
v -4.118743 3.016288 2.271350
v -5.433513 3.016288 2.271350
v -2.000000 0.000000 0.410615
v -2.000000 0.000000 1.937919
v -2.102917 3.016288 0.410615
v -2.102917 3.016288 1.937919
v -2.000000 3.016288 0.410615
v -2.000000 3.016288 1.937919
v -1.880483 3.999999 9.909868
v -1.880483 3.999999 10.457314
v -15.000000 3.999999 10.457314
v -8.440242 3.999999 10.457314
v -8.440242 4.000000 9.909868
v -15.000000 4.000000 9.909868
vn 0.0000 -1.0000 0.0000
vn 0.0000 1.0000 0.0000
vn 0.0000 0.0000 -1.0000
vn 0.0000 0.0000 1.0000
vn 1.0000 0.0000 0.0000
vn -1.0000 0.0000 0.0000
usemtl doors
s off
f 81//2 84//2 83//2 82//2
f 28//2 45//2 46//2 27//2
f 26//2 29//2 30//2 25//2
f 36//3 35//3 42//3 41//3
f 34//3 33//3 38//3 37//3
f 32//3 31//3 40//3 39//3
f 28//4 40//4 31//4 45//4
f 27//5 46//5 32//5 39//5
f 84//6 81//6 34//6 37//6
f 83//7 38//7 33//7 82//7
f 26//7 42//7 35//7 29//7
f 25//6 30//6 36//6 41//6
f 88//2 87//2 89//2 90//2
f 44//3 43//3 86//3 85//3
f 85//5 89//5 87//5 44//5
f 86//4 43//4 88//4 90//4
usemtl floor
f 44//3 21//3 22//3 39//3 40//3 23//3 41//3 42//3 24//3 19//3 37//3 38//3 20//3 43//3
f 9//3 5//3 6//3 7//3 31//3 32//3 8//3
f 14//3 15//3 16//3 17//3 18//3 35//3 36//3
f 11//3 12//3 13//3 33//3 34//3 10//3
usemtl ceil
f 60//2 67//2 68//2 50//2 49//2 59//2
f 61//2 69//2 70//2 62//2 57//2 56//2 55//2
f 64//2 63//2 75//2 76//2 77//2 73//2 74//2 54//2 53//2 79//2 80//2 78//2 71//2 72//2
f 47//2 52//2 51//2 65//2 66//2 58//2 48//2
usemtl walls
f 18//5 62//5 70//5 35//5
f 42//4 75//4 63//4 24//4
f 22//6 54//6 74//6 39//6
f 14//6 61//6 55//6 15//6
f 17//5 57//5 62//5 18//5
f 19//4 64//4 72//4 37//4
f 12//7 49//7 50//7 13//7
f 34//5 67//5 60//5 10//5
f 8//5 51//5 52//5 9//5
f 70//5 69//5 30//5 29//5
f 9//6 52//6 47//6 5//6
f 20//7 78//7 80//7 43//7
f 66//7 65//7 46//7 45//7
f 38//4 71//4 78//4 20//4
f 21//5 53//5 54//5 22//5
f 44//7 79//7 53//7 21//7
f 13//5 50//5 68//5 33//5
f 74//6 73//6 28//6 27//6
f 10//6 60//6 59//6 11//6
f 11//4 59//4 49//4 12//4
f 40//6 73//6 77//6 23//6
f 16//7 56//7 57//7 17//7
f 24//7 63//7 64//7 19//7
f 23//4 77//4 76//4 41//4
f 32//7 65//7 51//7 8//7
f 36//5 69//5 61//5 14//5
f 76//4 75//4 26//4 25//4
f 7//7 58//7 66//7 31//7
f 6//7 48//7 58//7 7//7
f 72//4 71//4 83//4 84//4
f 68//5 67//5 81//5 82//5
f 80//7 79//7 87//7 88//7
usemtl windowwall
f 15//4 55//4 56//4 16//4
f 5//4 47//4 48//4 6//4
l 56 91
l 91 92
l 94 93
l 92 94
l 55 95
l 95 48
l 47 96
