# Blender v2.79 (sub 0) OBJ File: 'figures.blend'
# www.blender.org
mtllib inset_test.mtl
o target_c_Plane.003
v -1.000000 0.000000 1.000000
v 1.000000 0.000000 1.000000
v -1.000000 0.000000 -1.000000
v 1.000000 0.000000 -1.000000
v -0.796164 0.123032 -0.796164
v -0.796164 0.123032 0.796164
v 0.796164 0.123032 0.796164
v 0.796164 0.123032 -0.796164
v -0.796164 0.413808 -0.796164
v -0.796164 0.413808 0.796164
v 0.796164 0.413808 0.796164
v 0.796164 0.413808 -0.796164
v -0.535429 0.600054 -0.535429
v -0.535429 0.600054 0.535429
v 0.535429 0.600054 0.535429
v 0.535429 0.600054 -0.535429
v -0.535429 0.937767 -0.514231
v -0.535429 1.236103 0.514231
v 0.535429 1.236103 0.514231
v 0.535429 0.937767 -0.514231
v -0.444743 1.653523 -0.627433
v -0.444743 1.901330 0.226838
v 0.444743 1.901330 0.226838
v 0.444743 1.653523 -0.627433
v -0.444743 1.814839 -0.732871
v -0.444743 2.475792 -0.137616
v 0.444743 2.475792 -0.137616
v 0.444743 1.814839 -0.732871
v -0.574062 1.873110 -0.990813
v -0.574062 2.726248 -0.222474
v 0.574062 2.726248 -0.222474
v 0.574062 1.873110 -0.990813
v -0.574062 1.977112 -1.106294
v -0.574062 2.830251 -0.337955
v 0.574062 2.830251 -0.337955
v 0.574062 1.977112 -1.106294
v -0.419589 2.091897 -1.002919
v -0.419589 2.715466 -0.441330
v 0.419589 2.715466 -0.441330
v 0.419589 2.091897 -1.002919
v -0.419589 1.987298 -0.886776
v -0.419589 2.610868 -0.325188
v 0.419589 2.610868 -0.325188
v 0.419589 1.987298 -0.886776
vn 1.0000 0.0000 0.0000
vn -0.5167 0.8561 0.0000
vn 0.0000 0.8561 0.5167
vn 0.5167 0.8561 0.0000
vn 0.0000 0.8561 -0.5167
vn 0.0000 0.8137 -0.5813
vn -1.0000 0.0000 0.0000
vn 0.0000 0.0000 -1.0000
vn 0.0000 0.0000 1.0000
vn 0.0000 0.8137 0.5813
vn 0.5813 0.8137 0.0000
vn -0.5813 0.8137 0.0000
vn 0.0000 -0.1562 -0.9877
vn 0.0000 0.0626 -0.9980
vn 0.0000 0.0333 0.9994
vn 0.0000 0.5357 0.8444
vn 0.0000 0.3966 0.9180
vn 0.9921 0.1202 -0.0349
vn -0.9921 0.1202 -0.0349
vn 0.8723 -0.3273 0.3634
vn 0.0000 -0.5471 -0.8371
vn 0.0000 -0.7431 -0.6692
vn -0.8723 -0.3273 0.3634
vn 0.0000 -0.9754 -0.2204
vn 0.0000 0.3209 0.9471
vn 0.0000 0.6692 -0.7431
vn 0.0000 0.7431 0.6692
usemtl other
s off
f 7//1 8//1 12//1 11//1
f 6//2 5//2 3//2 1//2
f 7//3 6//3 1//3 2//3
f 8//4 7//4 2//4 4//4
f 5//5 8//5 4//5 3//5
f 12//6 9//6 13//6 16//6
f 5//7 6//7 10//7 9//7
f 8//8 5//8 9//8 12//8
f 6//9 7//9 11//9 10//9
f 15//1 16//1 20//1 19//1
f 10//10 11//10 15//10 14//10
f 11//11 12//11 16//11 15//11
f 9//12 10//12 14//12 13//12
f 20//13 17//13 21//13 24//13
f 13//7 14//7 18//7 17//7
f 16//14 13//14 17//14 20//14
f 14//15 15//15 19//15 18//15
f 22//16 23//16 27//16 26//16
f 18//17 19//17 23//17 22//17
f 19//18 20//18 24//18 23//18
f 17//19 18//19 22//19 21//19
f 27//20 28//20 32//20 31//20
f 23//1 24//1 28//1 27//1
f 21//7 22//7 26//7 25//7
f 24//21 21//21 25//21 28//21
f 32//22 29//22 33//22 36//22
f 25//23 26//23 30//23 29//23
f 28//24 25//24 29//24 32//24
f 26//25 27//25 31//25 30//25
f 35//26 36//26 40//26 39//26
f 30//27 31//27 35//27 34//27
f 31//1 32//1 36//1 35//1
f 29//7 30//7 34//7 33//7
f 39//7 40//7 44//7 43//7
f 33//26 34//26 38//26 37//26
f 36//26 33//26 37//26 40//26
f 34//26 35//26 39//26 38//26
f 42//26 43//26 44//26 41//26
f 37//1 38//1 42//1 41//1
f 40//27 37//27 41//27 44//27
f 38//22 39//22 43//22 42//22
o source_Plane
v -1.000000 0.000000 1.000000
v 1.000000 0.000000 1.000000
v -1.000000 0.000000 -1.000000
v 1.000000 0.000000 -1.000000
vn 0.0000 1.0000 0.0000
usemtl None
s off
f 45//28 46//28 48//28 47//28
