# Blender v2.90.0 OBJ File: 'interiors_modular.blend'
# www.blender.org
mtllib interiors_modular_inner.mtl
o gp_blueprint_shell_Plane.045
v 2.494108 0.178709 3.636250
v 2.494108 0.178709 5.437118
v 2.494108 2.178709 5.437118
v 2.494108 2.178709 3.636250
v 4.294974 0.178709 -4.700459
v 2.494107 0.178709 -4.700459
v 4.294974 0.178709 -4.302197
v 2.494107 0.178709 -4.302197
v 2.494107 2.178709 -4.302197
v 2.494107 2.178709 -4.700459
v 4.294974 2.178709 -4.700459
v 4.294974 2.178709 -4.302197
v 4.294974 0.178709 -8.302197
v 2.494107 0.178709 -8.302197
v 4.294974 0.178709 -6.501328
v 2.494107 2.178709 -8.302197
v 4.294974 2.178709 -8.302197
v 2.494107 0.178709 -6.501328
v 4.294974 4.506228 -4.700459
v 4.294974 2.178709 -6.501328
v 0.693239 0.178709 -8.302197
v 0.693239 2.178709 -8.302197
v -4.575823 2.178709 2.624961
v -3.215360 2.178709 1.379621
v -4.575825 0.178709 -3.689168
v -3.016229 0.178709 -2.788734
v -3.016229 2.178709 -2.788734
v -3.215360 2.178709 -2.443829
v -1.912494 0.178709 -4.700460
v -1.505892 0.178709 -6.501327
v -1.505892 0.178709 -4.700459
v 0.294976 0.178709 -4.700460
v 0.294976 2.178709 -4.700460
v -1.505892 2.178709 -4.700459
v -1.505892 2.178709 -6.501327
v 0.294976 2.178709 -6.501327
v -3.472091 0.178709 -5.600894
v -1.912494 0.178709 -6.501328
v -3.306756 2.506229 -8.302194
v -4.575825 2.178709 -3.689168
v -3.472091 2.178709 -5.600894
v -1.912494 2.178709 -4.700460
v -1.912494 2.178709 -6.501328
v -2.115795 0.178709 -6.853455
v -2.115795 2.178709 -6.853455
v -3.675392 2.178709 -5.953021
v -3.675392 0.178709 -5.953021
v -3.675392 0.178709 -5.248766
v -3.675392 2.178709 -5.248766
v -2.115795 2.178709 -4.348332
v -2.115795 0.178709 -4.348332
v 0.294976 0.178709 -6.501327
v 0.693239 0.178709 -6.501327
v 0.693239 0.178709 -4.700459
v 0.693239 2.178709 -4.700459
v 0.693239 2.178709 -6.501327
v 7.394541 0.178709 6.996716
v 8.954137 0.178709 6.096282
v 6.494106 0.178709 5.437118
v 7.394540 0.178709 2.076653
v 8.053702 0.178709 4.536685
v 6.494106 0.178709 3.636251
v 4.693238 0.178709 3.636251
v 4.693238 2.178709 3.636251
v 6.494106 2.178709 3.636251
v 6.494106 2.178709 5.437118
v 7.394541 2.178709 6.996716
v 8.954138 0.178709 2.977087
v 8.053702 2.178709 4.536685
v 8.954137 2.178709 6.096282
v 8.954138 2.178708 2.977087
v 7.394540 2.178708 2.076653
v 4.294975 0.178709 3.636251
v 4.294975 0.178709 5.437118
v 4.693238 0.178709 5.437118
v 4.693238 2.178709 5.437118
v 4.294975 2.178709 5.437118
v 4.294975 2.178709 3.636251
v -1.912493 0.178709 5.437119
v -1.505891 0.178709 3.636253
v -1.505891 0.178709 5.437119
v 0.294978 0.178709 5.437119
v -1.505891 2.178709 5.437119
v -1.505891 2.178709 3.636253
v -3.472089 0.178709 4.536686
v -1.912493 0.178709 3.636253
v -4.575823 0.178709 2.624961
v -3.016228 0.178709 1.724527
v -3.016227 0.178709 7.348845
v -4.575824 0.178709 6.448412
v -4.575824 2.178708 6.448412
v -3.016227 2.178708 7.348845
v -3.016228 2.178709 1.724527
v -3.472089 2.178709 4.536686
v -1.912493 2.178709 5.437119
v -1.912493 2.178709 3.636253
v -2.115794 0.178709 3.284125
v -2.115794 2.178709 3.284125
v -3.675390 2.178709 4.184559
v -3.675390 0.178709 4.184559
v -3.675390 0.178709 4.888814
v -3.675390 2.178709 4.888814
v -2.115793 2.178709 5.789248
v -2.115793 0.178709 5.789248
v 0.294977 0.178709 3.636253
v 0.294977 2.178709 5.437119
v 0.294977 2.178709 3.636253
v 2.494108 0.178709 1.437119
v 4.294975 0.178709 1.835382
v 2.494108 0.178709 1.835382
v 2.494108 2.178709 1.835382
v 2.494108 2.178709 1.437119
v 4.294975 2.178709 1.437119
v 4.294975 2.178709 1.835382
v 4.294975 0.178709 -2.164617
v 2.494108 0.178709 -2.164617
v 4.294975 0.178709 -0.363748
v 2.494108 2.178709 -2.164617
v 4.294975 2.178709 -2.164617
v 2.494108 0.178709 -0.363748
v 4.294975 0.178709 1.437120
v 2.494108 2.178709 -0.363748
v 4.294975 2.178709 -0.363748
v -4.319095 0.178709 -0.532104
v -5.675391 0.178709 -1.784664
v -4.115794 0.178709 -0.884231
v -4.774956 0.178709 -3.344262
v -3.215361 0.178709 -2.443829
v -4.115794 2.178709 -0.884231
v -5.675391 2.178709 -1.784664
v -4.774956 2.178709 -3.344262
v -5.878692 0.178709 0.368330
v -5.878692 0.178709 -1.432537
v -3.215360 0.178709 1.379621
v -4.774956 0.178709 2.280056
v -4.774956 2.178708 2.280056
v -5.878692 2.178709 0.368330
v -4.319095 2.178709 -0.532104
v -5.878692 2.178709 -1.432537
v -5.675391 0.178709 0.720458
v -5.675391 2.178709 0.720458
v -4.115794 2.178709 -0.179976
v -4.115794 0.178709 -0.179976
v 2.095845 0.178709 3.636250
v 2.095845 0.178709 5.437118
v 2.095845 2.178709 5.437118
v 2.095845 2.178709 3.636250
v 0.294978 0.178709 1.835381
v 0.294978 2.178709 1.835381
v 2.095845 0.178709 1.835382
v 2.095845 2.178709 1.835382
v 0.294977 0.178709 1.437118
v 2.095845 0.178709 1.835381
v 0.294977 0.178709 1.835381
v 0.294977 2.178709 1.835381
v 0.294977 2.178709 1.437118
v 2.095845 2.178709 1.437118
v 2.095845 2.178709 1.835381
v 2.095845 0.178709 1.437119
v 0.294977 0.178709 -0.363750
v 0.294977 2.178709 -0.363750
v 2.095845 2.178709 -0.363750
v 2.095845 0.178709 -0.363749
v 0.294977 0.178709 -2.164618
v 0.294977 2.178709 -2.164618
v 2.095845 2.178709 -2.164618
v 2.095845 0.178709 -2.164617
v 0.294976 0.178709 -3.982793
v 0.294976 2.178709 -3.982793
v 2.095844 2.178709 -3.982793
v 2.095844 0.178709 -3.982792
v -1.505890 0.178709 -3.982794
v -1.505890 2.178709 -3.982794
v -1.505889 2.178709 1.437119
v -1.505889 0.178709 1.437119
v -1.505889 0.178709 -0.363750
v -1.505889 2.178709 -0.363750
v -1.505889 0.178709 -2.164618
v -1.505889 2.178709 -2.164618
v 4.294974 0.178709 -8.700459
v 2.494107 0.178709 -8.700459
v 4.294973 2.178709 -14.439776
v 2.494106 2.178709 -14.439776
v 2.494106 0.178709 -14.439776
v 2.494107 2.178709 -8.700459
v 4.294974 2.178709 -8.700459
v 4.294973 0.178709 -14.439776
v 4.294974 0.178709 -12.302196
v 2.494107 0.178709 -12.302196
v 4.294974 0.178709 -10.501327
v 2.494107 2.178709 -12.302196
v 4.294974 2.178709 -12.302196
v 2.494107 0.178709 -10.501327
v 2.494107 2.178709 -10.501327
v 4.294974 2.178709 -10.501327
v 4.294973 0.178709 -14.838040
v 2.494106 0.178709 -14.838040
v 2.494106 2.178709 -14.838040
v 4.294973 2.178709 -14.838040
v -3.215358 0.178708 7.693751
v -3.215358 2.178708 7.693751
v -4.774955 2.178708 6.793318
v -3.418659 0.178708 8.045878
v -4.774955 0.178708 6.793317
v -4.077821 0.178708 8.705043
v -4.978256 0.178708 7.145446
v -4.077821 2.178708 8.705043
v -3.418659 2.178708 8.045878
v -4.978256 2.178708 7.145446
v -5.330381 0.178708 7.348747
v -5.330381 2.178708 7.348747
v -4.429948 2.178708 8.908343
v -4.429948 0.178708 8.908343
v -6.062655 2.178708 7.771525
v -6.062655 0.178708 7.771525
v -5.162222 0.178708 9.331121
v -5.162222 2.178708 9.331121
v -4.817317 0.178709 9.131988
v -5.717751 0.178709 7.572392
v -5.717751 2.178708 7.572392
v -4.817317 2.178708 9.131988
v 6.095843 0.219425 -4.302197
v 6.095843 4.506229 1.437120
v 4.294974 4.506229 1.437120
v 4.294975 0.219425 -4.302197
v 6.095843 0.219425 -0.363748
v 4.294975 0.219425 -0.363748
v 6.095843 0.178709 -0.363748
v 4.294975 2.506229 1.437120
v 6.095843 2.506229 1.437120
v 6.095843 2.178709 -0.363748
v 6.095843 0.178709 -2.164618
v 6.095843 2.178709 1.437120
v 6.095843 2.178709 -2.164618
v 6.095843 2.506229 -2.164618
v 4.294975 2.506229 -2.164618
v 6.095843 2.506229 -0.363748
v 4.294975 2.506229 -0.363748
v 6.095843 0.178709 1.437120
v 6.095843 0.178709 -4.302197
v 6.095843 2.178709 -4.302197
v 4.294975 2.506229 -4.302197
v 6.095843 2.506229 -4.302197
v 4.294974 4.506229 -0.363748
v 6.095843 4.506229 -0.363748
v 4.294974 4.506229 -2.164618
v 6.095843 4.506229 -2.164618
v 4.294974 4.506229 -4.302197
v 6.095843 4.506229 -4.302197
v 6.095841 2.506229 -8.302197
v 6.095843 4.506229 -4.700459
v 6.095843 2.506229 -4.700459
v 6.095841 4.506229 -8.302197
v 6.095842 2.506229 -6.501328
v 6.095842 4.506229 -6.501328
v 4.294974 2.506229 -4.700459
v 2.494107 2.506229 -4.700459
v 4.294974 2.506229 -8.302197
v 2.494107 2.506229 -8.302197
v 4.294974 2.506229 -6.501328
v 0.693239 2.506229 -8.302197
v 0.693239 2.506229 -4.700459
v 0.693239 2.506229 -6.501327
v 2.494107 4.506228 -4.700459
v 4.294974 4.506229 -8.302197
v 2.494107 4.506229 -8.302197
v 4.294974 4.506229 -6.501328
v 2.494107 4.506229 -6.501328
v 0.693239 4.506229 -8.302197
v 0.693239 4.506229 -4.700459
v 0.693239 4.506229 -6.501327
v 4.294974 3.148296 -4.700459
v 4.294974 3.148296 -8.302197
v 4.294974 3.148296 -6.501328
v 0.693239 2.506229 -10.103066
v 2.494107 2.506229 -10.103066
v 0.693239 4.506229 -10.103066
v 4.294974 2.506229 -10.103066
v 6.095840 2.506229 -10.103066
v 2.494107 4.506229 -10.103066
v 4.294974 4.506229 -10.103066
v 6.095841 4.506229 -10.103066
v 2.494107 3.148296 -8.302197
v 0.693239 3.148296 -8.302197
v -6.020297 2.178709 0.919590
v -6.020297 0.178709 0.919590
v -5.119862 0.178709 2.479187
v -5.119862 2.178708 2.479187
v -6.276956 2.178709 -1.432537
v -6.276956 0.178709 -1.432537
v -6.276955 0.178709 0.368331
v -6.276955 2.178708 0.368331
v -5.119863 2.178709 -3.543394
v -5.119863 0.178709 -3.543394
v -6.020296 0.178709 -1.983796
v -6.020296 2.178708 -1.983796
v 0.294975 2.506229 -4.700456
v -1.107627 2.506229 -12.302200
v 4.294974 2.506229 -10.501330
v 6.095841 2.506229 -10.501330
v 2.494107 2.506229 -10.501330
v 0.693239 2.506229 -10.501330
v 0.693239 4.506229 -10.501330
v 2.494107 4.506229 -10.501330
v 0.294976 2.506229 -10.103064
v 0.294976 2.506229 -8.302197
v 0.294976 4.506229 -8.302197
v 0.294976 4.506229 -10.103064
v 0.693239 2.506229 -12.302200
v 2.494107 2.506229 -12.302200
v 4.294974 2.506229 -12.302200
v 6.095840 2.506229 -12.302200
v -1.107627 2.506229 -10.501330
v 0.294976 2.506228 -6.501323
v 0.693239 2.506229 -14.439776
v 2.494107 2.506229 -14.439776
v 4.294973 2.506229 -14.439776
v 6.095840 2.506229 -14.439776
v -1.107627 2.506229 -14.439776
v -1.505890 2.506229 -8.302194
v -1.505890 2.506228 -6.501323
v -1.505890 2.506229 -10.103064
v 0.294975 2.506228 -2.899583
v -1.505890 2.506228 -4.700453
v -1.505890 2.506228 -2.899583
v -3.306756 4.506229 -4.700453
v -3.306756 4.506229 -6.501323
v -1.505890 4.506229 -2.899583
v 0.294975 4.506229 -2.899583
v 2.494106 4.506229 -14.439777
v -3.306756 2.506228 -6.501323
v 0.294975 4.506228 -4.700456
v -1.505890 4.506230 -10.103064
v -3.306756 2.506228 -4.700453
v -3.306756 4.506230 -8.302194
v 0.294976 4.506228 -6.501323
v 4.294973 4.506229 -14.439777
v 4.294974 4.506229 -10.501330
v -1.107627 4.506229 -12.302200
v 4.294973 2.506229 -14.838039
v 2.494106 2.506229 -14.838039
v 2.494106 4.506229 -14.838039
v 4.294973 4.506229 -14.838039
v 6.095841 4.506229 -10.501330
v 0.693239 4.506229 -14.439776
v 6.095840 4.506229 -12.302200
v -1.107627 4.506228 -10.501330
v 0.693239 4.506229 -12.302200
v 6.095840 4.506229 -14.439776
v -1.107627 4.506229 -14.439776
v 2.494107 4.506229 -12.302200
v 4.294974 4.506229 -12.302200
v -1.505890 4.506230 -8.302194
v -1.505890 4.506229 -6.501323
v -1.505890 4.506229 -4.700453
vn 0.0000 0.0000 1.0000
vn 0.0000 -1.0000 0.0000
vn 0.0000 1.0000 0.0000
vn 0.0000 0.0000 -1.0000
vn -1.0000 0.0000 0.0000
vn 1.0000 0.0000 0.0000
vn -0.8660 -0.0000 0.5000
vn 0.8660 0.0000 -0.5000
vn 0.8660 0.0000 0.5000
vn -0.8660 0.0000 -0.5000
vn 0.5000 0.0000 0.8660
vn -0.5000 0.0000 -0.8660
vn -0.5000 0.0000 0.8660
vn 0.7071 -0.0000 0.7071
vn -0.6088 0.0000 -0.7934
vn -0.7934 0.0000 -0.6088
vn 0.5000 0.0000 -0.8660
vn 0.9239 0.0000 0.3827
vn 0.3827 0.0000 0.9239
vn 0.3827 0.0000 -0.9239
vn 0.9239 0.0000 -0.3827
usemtl default
s off
f 150//1 110//1 111//1 151//1
f 64//1 63//1 62//1 65//1
s 1
f 111//2 114//2 78//2 4//2
f 4//2 78//2 77//2 3//2
f 110//3 150//3 144//3 1//3
f 1//3 144//3 145//3 2//3
f 111//2 4//2 147//2 151//2
f 4//2 3//2 146//2 147//2
f 3//4 2//4 145//4 146//4
f 149//2 151//2 147//2 107//2
f 6//3 8//3 7//3 5//3
f 10//2 11//2 12//2 9//2
f 5//5 7//5 12//5 11//5
f 8//6 6//6 10//6 9//6
f 135//3 87//3 88//3 134//3
f 136//2 24//2 93//2 23//2
f 134//7 88//7 93//7 24//7
f 87//8 135//8 136//8 23//8
f 128//3 26//3 25//3 127//3
f 28//2 131//2 40//2 27//2
f 127//9 25//9 40//9 131//9
f 26//10 128//10 28//10 27//10
f 43//2 42//2 41//2
f 34//2 35//2 36//2 33//2
f 328//2 355//2 332//2 329//2
f 353//2 333//2 308//2 307//2
f 44//11 45//11 46//11 47//11
f 355//2 354//2 336//2 332//2
f 354//2 353//2 307//2 336//2
f 49//2 50//2 27//2 40//2
f 38//7 43//7 45//7 44//7
f 43//2 41//2 46//2 45//2
f 41//8 37//8 47//8 46//8
f 37//3 38//3 44//3 47//3
f 37//9 41//9 49//9 48//9
f 41//2 42//2 50//2 49//2
f 42//10 29//10 51//10 50//10
f 29//3 37//3 48//3 51//3
f 29//4 42//4 34//4 31//4
f 42//2 43//2 35//2 34//2
f 43//1 38//1 30//1 35//1
f 38//3 29//3 31//3 30//3
f 32//3 54//3 53//3 52//3
f 33//2 36//2 56//2 55//2
f 52//1 53//1 56//1 36//1
f 54//4 32//4 33//4 55//4
f 57//8 59//8 66//8 67//8
f 58//12 57//12 67//12 70//12
f 61//7 58//7 70//7 69//7
f 66//2 69//2 70//2 67//2
f 59//3 57//3 58//3 61//3
f 62//3 63//3 75//3 59//3
f 65//2 66//2 76//2 64//2
f 59//4 75//4 76//4 66//4
f 68//10 61//10 69//10 71//10
f 60//13 68//13 71//13 72//13
f 62//9 60//9 72//9 65//9
f 69//2 65//2 72//2 71//2
f 61//3 68//3 60//3 62//3
f 62//3 59//3 61//3
f 66//2 65//2 69//2
f 74//3 75//3 63//3 73//3
f 77//2 78//2 64//2 76//2
f 73//1 63//1 64//1 78//1
f 75//4 74//4 77//4 76//4
f 96//2 95//2 94//2
f 83//2 84//2 107//2 106//2
f 98//2 99//2 23//2 93//2
f 102//2 103//2 92//2 91//2
f 86//7 96//7 98//7 97//7
f 96//2 94//2 99//2 98//2
f 94//8 85//8 100//8 99//8
f 85//3 86//3 97//3 100//3
f 85//9 94//9 102//9 101//9
f 94//2 95//2 103//2 102//2
f 95//10 79//10 104//10 103//10
f 79//3 85//3 101//3 104//3
f 79//4 95//4 83//4 81//4
f 95//2 96//2 84//2 83//2
f 96//1 86//1 80//1 84//1
f 86//3 79//3 81//3 80//3
f 107//2 147//2 146//2 106//2
f 108//3 110//3 109//3 121//3
f 112//2 113//2 114//2 111//2
f 121//5 109//5 114//5 113//5
f 110//6 108//6 112//6 111//6
f 9//2 12//2 119//2 118//2
f 118//2 119//2 123//2 122//2
f 233//4 113//4 229//4 230//4
f 122//2 123//2 113//2 112//2
f 139//2 138//2 137//2
f 129//2 130//2 131//2 28//2
f 141//2 142//2 24//2 136//2
f 132//8 137//8 141//8 140//8
f 137//2 138//2 142//2 141//2
f 138//7 124//7 143//7 142//7
f 124//3 132//3 140//3 143//3
f 124//10 138//10 129//10 126//10
f 138//2 139//2 130//2 129//2
f 139//9 133//9 125//9 130//9
f 133//3 124//3 126//3 125//3
f 152//3 154//3 153//3 159//3
f 156//2 157//2 158//2 155//2
f 159//5 153//5 158//5 157//5
f 154//6 152//6 156//6 155//6
f 161//2 156//2 174//2 177//2
f 157//2 156//2 161//2 162//2
f 162//2 161//2 165//2 166//2
f 166//2 165//2 169//2 170//2
f 165//2 161//2 177//2 179//2
f 169//2 165//2 179//2 173//2
f 181//3 14//3 13//3 180//3
f 185//2 186//2 17//2 16//2
f 180//5 13//5 17//5 186//5
f 14//6 181//6 185//6 16//6
f 183//2 182//2 192//2 191//2
f 191//2 192//2 195//2 194//2
f 194//2 195//2 186//2 185//2
f 197//3 184//3 187//3 196//3
f 198//2 199//2 182//2 183//2
f 196//5 187//5 182//5 199//5
f 184//6 197//6 198//6 183//6
f 200//3 89//3 90//3 204//3
f 201//2 202//2 91//2 92//2
f 204//9 90//9 91//9 202//9
f 89//10 200//10 201//10 92//10
f 209//2 208//2 207//2
f 206//14 209//14 211//11 210//11
f 209//2 207//2 212//2 211//2
f 207//15 205//15 213//12 212//12
f 205//3 206//3 210//3 213//3
f 203//16 208//16 201//10 200//10
f 208//2 209//2 202//2 201//2
f 209//14 206//14 204//9 202//9
f 206//3 203//3 200//3 204//3
f 216//3 218//3 219//3 215//3
f 217//2 214//2 220//2 221//2
f 215//11 219//11 220//11 214//11
f 218//12 216//12 217//12 221//12
f 210//3 219//3 218//3 213//3
f 213//12 218//12 221//12 212//12
f 212//2 221//2 220//2 211//2
f 211//11 220//11 219//11 210//11
f 205//15 207//15 208//16 203//16
f 244//2 245//2 223//2 224//2
f 123//6 238//6 229//6 113//6
f 241//5 234//5 235//5 243//5
f 237//5 231//5 233//5 230//5
f 123//6 119//6 236//6 238//6
f 119//6 12//6 242//6 236//6
f 234//5 231//5 237//5 235//5
f 243//1 242//1 12//1 241//1
f 246//2 248//2 249//2 247//2
f 244//2 246//2 247//2 245//2
f 265//2 253//2 255//2 267//2
f 242//6 256//6 19//6 248//6
f 256//3 242//3 243//3 252//3
f 19//2 251//2 249//2 248//2
f 252//5 243//5 249//5 251//5
f 266//2 269//2 277//2 280//2
f 266//2 265//2 267//2 268//2
f 268//2 267//2 19//2 264//2
f 269//2 266//2 268//2 271//2
f 271//2 268//2 264//2 270//2
f 267//2 255//2 251//2 19//2
f 265//2 266//2 280//2 281//2
f 265//2 281//2 282//2 253//2
f 287//3 135//3 140//3 286//3
f 288//2 285//2 141//2 136//2
f 286//11 140//11 141//11 285//11
f 135//12 287//12 288//12 136//12
f 291//3 132//3 133//3 290//3
f 292//2 289//2 139//2 137//2
f 290//1 133//1 139//1 289//1
f 132//4 291//4 292//4 137//4
f 295//3 125//3 127//3 294//3
f 296//2 293//2 131//2 130//2
f 294//13 127//13 131//13 293//13
f 125//17 295//17 296//17 130//17
f 302//3 275//3 276//3 301//3
f 303//2 304//2 280//2 277//2
f 301//5 276//5 280//5 304//5
f 275//6 302//6 303//6 277//6
f 306//3 261//3 275//3 305//3
f 307//2 308//2 277//2 269//2
f 305//1 275//1 277//1 308//1
f 261//4 306//4 307//4 269//4
f 39//3 320//3 322//3
f 334//3 325//3 324//3
f 341//3 316//3 317//3 340//3
f 342//2 343//2 337//2 330//2
f 340//5 317//5 337//5 343//5
f 316//6 341//6 342//6 330//6
f 347//2 339//2 348//2 303//2
f 339//2 350//2 345//2 348//2
f 348//2 345//2 330//2 351//2
f 303//2 348//2 351//2 304//2
f 304//2 351//2 352//2 338//2
f 351//2 330//2 337//2 352//2
f 352//2 337//2 349//2 346//2
f 338//2 352//2 346//2 344//2
f 327//2 335//2 353//2 354//2
f 335//2 333//2 353//2
f 326//2 327//2 354//2 355//2
f 326//2 355//2 328//2
f 199//4 198//4 341//4 340//4
usemtl floor_def
f 110//3 1//3 73//3 109//3
f 1//3 2//3 74//3 73//3
f 14//3 18//3 15//3 13//3
f 18//3 6//3 5//3 15//3
f 21//3 53//3 18//3 14//3
f 53//3 54//3 6//3 18//3
f 31//3 32//3 52//3 30//3
f 48//3 25//3 26//3 51//3
f 81//3 82//3 105//3 80//3
f 148//3 105//3 144//3 150//3
f 97//3 88//3 87//3 100//3
f 101//3 90//3 89//3 104//3
f 105//3 82//3 145//3 144//3
f 8//3 116//3 115//3 7//3
f 116//3 120//3 117//3 115//3
f 120//3 108//3 121//3 117//3
f 117//3 121//3 239//3 228//3
f 126//3 128//3 127//3 125//3
f 140//3 135//3 134//3 143//3
f 152//3 159//3 163//3 160//3
f 160//3 163//3 167//3 164//3
f 164//3 167//3 171//3 168//3
f 152//3 160//3 176//3 175//3
f 164//3 168//3 172//3 178//3
f 160//3 164//3 178//3 176//3
f 184//3 189//3 188//3 187//3
f 189//3 193//3 190//3 188//3
f 193//3 181//3 180//3 190//3
f 117//3 228//3 232//3 115//3
f 115//3 232//3 240//3 7//3
f 258//3 260//3 254//3 250//3
f 259//3 258//3 278//3 276//3
f 260//3 256//3 252//3 254//3
f 261//3 259//3 276//3 275//3
f 278//3 258//3 250//3 279//3
f 301//3 299//3 311//3 310//3
f 302//3 301//3 310//3 309//3
f 311//3 299//3 300//3 312//3
f 310//3 311//3 317//3 316//3
f 309//3 310//3 316//3 315//3
f 317//3 311//3 312//3 318//3
f 313//3 302//3 309//3 298//3
f 298//3 309//3 315//3 319//3
f 321//3 314//3 306//3 320//3
f 320//3 306//3 305//3 322//3
f 325//3 323//3 297//3 324//3
f 324//3 297//3 314//3 321//3
f 331//3 321//3 320//3 39//3
f 334//3 324//3 321//3 331//3
usemtl door_def
s off
f 157//4 159//4 152//4 156//4
f 202//13 204//13 200//13 201//13
f 218//8 219//8 220//8 221//8
s 1
f 110//1 109//1 114//1 111//1
f 73//5 74//5 77//5 78//5
f 14//1 13//1 17//1 16//1
f 11//4 5//4 6//4 10//4
f 54//6 53//6 56//6 55//6
f 52//5 32//5 33//5 36//5
f 26//17 25//17 40//17 27//17
f 75//6 63//6 64//6 76//6
f 87//11 88//11 93//11 23//11
f 89//17 90//17 91//17 92//17
f 148//1 150//1 151//1 149//1
f 8//1 7//1 12//1 9//1
f 121//4 108//4 112//4 113//4
f 127//13 128//13 28//13 131//13
f 134//12 135//12 136//12 24//12
f 184//1 187//1 182//1 183//1
f 180//4 181//4 185//4 186//4
f 198//4 199//4 196//4 197//4
f 215//7 216//7 217//7 214//7
f 261//6 275//6 277//6 269//6
f 275//1 276//1 280//1 277//1
f 304//4 301//4 302//4 303//4
f 306//5 307//5 308//5 305//5
usemtl wall_bend
f 188//5 190//5 195//5 192//5
f 193//6 189//6 191//6 194//6
f 228//5 231//5 234//5 232//5
f 250//5 254//5 255//5 253//5
usemtl wall_plain
f 53//6 21//6 22//6 56//6
f 21//1 14//1 16//1 22//1
f 6//4 54//4 55//4 10//4
f 32//4 31//4 34//4 33//4
f 100//8 87//8 23//8 99//8
f 105//6 148//6 149//6 107//6
f 116//6 8//6 9//6 118//6
f 120//6 116//6 118//6 122//6
f 108//6 120//6 122//6 112//6
f 159//5 157//5 162//5 163//5
f 163//5 162//5 166//5 167//5
f 156//4 152//4 175//4 174//4
f 167//5 166//5 170//5 171//5
f 169//1 168//1 171//1 170//1
f 173//1 172//1 168//1 169//1
f 174//6 175//6 176//6 177//6
f 177//6 176//6 178//6 179//6
f 179//6 178//6 172//6 173//6
f 238//6 244//6 224//6 229//6
f 230//4 229//4 224//4 223//4
f 121//4 113//4 233//4 239//4
f 244//6 238//6 236//6 246//6
f 237//5 245//5 247//5 235//5
f 246//6 236//6 242//6 248//6
f 235//5 247//5 249//5 243//5
f 245//5 237//5 230//5 223//5
f 240//1 241//1 12//1 7//1
f 257//4 262//4 270//4 264//4
f 256//4 257//4 264//4 19//4
f 39//18 322//19 333//19 335//18
f 322//19 305//1 308//1 333//19
f 323//4 325//20 328//20 329//4
f 331//6 39//18 335//18 327//6
f 334//21 331//6 327//6 326//21
f 325//20 334//21 326//21 328//20
f 297//5 323//5 329//5 332//5
f 319//1 315//1 345//1 350//1
f 318//5 312//5 346//5 349//5
f 312//5 300//5 344//5 346//5
f 313//6 298//6 339//6 347//6
f 298//6 319//6 350//6 339//6
f 302//4 313//4 347//4 303//4
f 317//1 318//1 349//1 337//1
f 315//1 316//1 330//1 345//1
usemtl floor_tri
f 29//3 38//3 37//3
f 79//3 86//3 85//3
f 124//3 133//3 132//3
f 203//3 206//3 205//3
usemtl wall_bend_l
s off
f 250//5 253//5 282//5 279//5
s 1
f 13//5 15//5 20//5 17//5
f 145//4 82//4 106//4 146//4
f 187//5 188//5 192//5 182//5
f 181//6 193//6 194//6 185//6
f 232//5 234//5 241//5 240//5
usemtl wall_bend_r
f 15//5 5//5 11//5 20//5
f 82//4 81//4 83//4 106//4
f 228//5 239//5 233//5 231//5
f 189//6 184//6 183//6 191//6
f 190//5 180//5 186//5 195//5
f 254//5 252//5 251//5 255//5
usemtl wall_bend_c
f 109//5 73//5 78//5 114//5
f 77//4 74//4 2//4 3//4
f 30//1 52//1 36//1 35//1
f 25//9 48//9 49//9 40//9
f 51//10 26//10 27//10 50//10
f 80//1 105//1 107//1 84//1
f 88//7 97//7 98//7 93//7
f 90//9 101//9 102//9 91//9
f 104//10 89//10 92//10 103//10
f 128//10 126//10 129//10 28//10
f 143//7 134//7 24//7 142//7
usemtl ladder
f 227//3 226//3 222//3 225//3
usemtl rail
f 256//6 260//6 274//6 272//6
f 258//6 273//6 274//6 260//6
f 273//4 258//4 259//4 283//4
f 283//4 259//4 261//4 284//4
usemtl inset
f 20//5 11//5 256//5 260//5
f 16//1 17//1 258//1 259//1
f 11//4 10//4 257//4 256//4
f 10//4 55//4 262//4 257//4
f 55//6 56//6 263//6 262//6
f 56//6 22//6 261//6 263//6
f 22//1 16//1 259//1 261//1
f 17//5 20//5 260//5 258//5
usemtl window.001
f 125//9 127//9 131//9 130//9
f 133//6 139//6 137//6 132//6
f 135//8 140//8 141//8 136//8
f 262//6 263//6 271//6 270//6
f 263//6 261//6 269//6 271//6
f 276//1 278//1 281//1 280//1
f 281//1 278//1 279//1 282//1
f 293//10 294//10 295//10 296//10
f 291//5 292//5 289//5 290//5
f 287//7 288//7 285//7 286//7
f 314//5 297//5 332//5 336//5
f 306//5 314//5 336//5 307//5
f 342//4 343//4 340//4 341//4
f 316//1 317//1 337//1 330//1
f 300//4 299//4 338//4 344//4
f 299//4 301//4 304//4 338//4
