# Blender v2.79 (sub 0) OBJ File: 'interiors_modular.blend'
# www.blender.org
mtllib rail.mtl
o source.rail_Plane.003
v -1.057006 2.297686 1.000000
v -2.857872 2.297686 1.000000
v -1.057006 2.939634 1.000000
v -2.857872 2.939634 1.000000
vn 0.0000 0.0000 -1.0000
usemtl None
s 1
f 1//1 2//1 4//1 3//1
o target_rail_Plane.002
v -2.133581 2.297686 1.000000
v -2.081442 2.297686 1.000000
v -2.133581 2.582966 1.045118
v -2.081442 2.582966 1.045118
v -2.133581 2.897374 1.023658
v -2.081442 2.897374 1.023658
v -2.133581 2.213413 0.938536
v -2.081442 2.213413 0.938536
v -2.133581 2.181727 0.738188
v -2.081442 2.181727 0.738188
v -2.133581 2.297686 1.041797
v -2.115674 2.297686 1.069158
v -2.099348 2.297686 1.069158
v -2.081442 2.297686 1.041797
v -2.115674 2.582966 1.114276
v -2.133581 2.582966 1.086915
v -2.081442 2.582966 1.086915
v -2.099348 2.582966 1.114276
v -2.133581 2.897374 1.065455
v -2.115674 2.897374 1.092816
v -2.099348 2.897374 1.092816
v -2.081442 2.897374 1.065455
v -2.133581 2.181733 0.970791
v -2.115674 2.164953 0.987876
v -2.099348 2.164953 0.987876
v -2.081442 2.181733 0.970791
v -2.115674 2.112569 0.738298
v -2.133581 2.132928 0.738266
v -2.081442 2.132928 0.738266
v -2.099348 2.112569 0.738298
v -2.857872 2.297686 1.000000
v -1.057006 2.297686 1.000000
v -2.557728 2.297686 1.000000
v -2.257584 2.297686 1.000000
v -1.957439 2.297686 1.000000
v -1.657295 2.297686 1.000000
v -1.357150 2.297686 1.000000
v -2.433726 2.297686 1.000000
v -2.381586 2.297686 1.000000
v -2.433726 2.582966 1.045118
v -2.381586 2.582966 1.045118
v -2.433726 2.897374 1.023658
v -2.381586 2.897374 1.023658
v -2.433726 2.213413 0.938536
v -2.381586 2.213413 0.938536
v -2.433726 2.181727 0.738188
v -2.381586 2.181727 0.738188
v -2.433726 2.297686 1.041797
v -2.415819 2.297686 1.069158
v -2.399493 2.297686 1.069158
v -2.381586 2.297686 1.041797
v -2.415819 2.582966 1.114276
v -2.433726 2.582966 1.086915
v -2.381586 2.582966 1.086915
v -2.399493 2.582966 1.114276
v -2.433726 2.897374 1.065455
v -2.415819 2.897374 1.092816
v -2.399493 2.897374 1.092816
v -2.381586 2.897374 1.065455
v -2.433726 2.181733 0.970791
v -2.415819 2.164953 0.987876
v -2.399493 2.164953 0.987876
v -2.381586 2.181733 0.970791
v -2.415819 2.112569 0.738298
v -2.433726 2.132928 0.738266
v -2.381586 2.132928 0.738266
v -2.399493 2.112569 0.738298
v -2.733870 2.297686 1.000000
v -2.681731 2.297686 1.000000
v -2.733870 2.582966 1.045118
v -2.681731 2.582966 1.045118
v -2.733870 2.897374 1.023658
v -2.681731 2.897374 1.023658
v -2.733870 2.213413 0.938536
v -2.681731 2.213413 0.938536
v -2.733870 2.181727 0.738188
v -2.681731 2.181727 0.738188
v -2.733870 2.297686 1.041797
v -2.715964 2.297686 1.069158
v -2.699637 2.297686 1.069158
v -2.681731 2.297686 1.041797
v -2.715964 2.582966 1.114276
v -2.733870 2.582966 1.086915
v -2.681731 2.582966 1.086915
v -2.699637 2.582966 1.114276
v -2.733870 2.897374 1.065455
v -2.715964 2.897374 1.092816
v -2.699637 2.897374 1.092816
v -2.681731 2.897374 1.065455
v -2.733870 2.181733 0.970791
v -2.715964 2.164953 0.987876
v -2.699637 2.164953 0.987876
v -2.681731 2.181733 0.970791
v -2.715964 2.112569 0.738298
v -2.733870 2.132928 0.738266
v -2.681731 2.132928 0.738266
v -2.699637 2.112569 0.738298
v -1.833436 2.297686 1.000000
v -1.781297 2.297686 1.000000
v -1.833436 2.582966 1.045118
v -1.781297 2.582966 1.045118
v -1.833436 2.897374 1.023658
v -1.781297 2.897374 1.023658
v -1.833436 2.213413 0.938536
v -1.781297 2.213413 0.938536
v -1.833436 2.181727 0.738188
v -1.781297 2.181727 0.738188
v -1.833436 2.297686 1.041797
v -1.815530 2.297686 1.069158
v -1.799204 2.297686 1.069158
v -1.781297 2.297686 1.041797
v -1.815530 2.582966 1.114276
v -1.833436 2.582966 1.086915
v -1.781297 2.582966 1.086915
v -1.799204 2.582966 1.114276
v -1.833436 2.897374 1.065455
v -1.815530 2.897374 1.092816
v -1.799204 2.897374 1.092816
v -1.781297 2.897374 1.065455
v -1.833436 2.181733 0.970791
v -1.815530 2.164953 0.987876
v -1.799204 2.164953 0.987876
v -1.781297 2.181733 0.970791
v -1.815530 2.112569 0.738298
v -1.833436 2.132928 0.738266
v -1.781297 2.132928 0.738266
v -1.799204 2.112569 0.738298
v -1.533292 2.297686 1.000000
v -1.481153 2.297686 1.000000
v -1.533292 2.582966 1.045118
v -1.481153 2.582966 1.045118
v -1.533292 2.897374 1.023658
v -1.481153 2.897374 1.023658
v -1.533292 2.213413 0.938536
v -1.481153 2.213413 0.938536
v -1.533292 2.181727 0.738188
v -1.481153 2.181727 0.738188
v -1.533292 2.297686 1.041797
v -1.515386 2.297686 1.069158
v -1.499059 2.297686 1.069158
v -1.481153 2.297686 1.041797
v -1.515386 2.582966 1.114276
v -1.533292 2.582966 1.086915
v -1.481153 2.582966 1.086915
v -1.499059 2.582966 1.114276
v -1.533292 2.897374 1.065455
v -1.515386 2.897374 1.092816
v -1.499059 2.897374 1.092816
v -1.481153 2.897374 1.065455
v -1.533292 2.181733 0.970791
v -1.515386 2.164953 0.987876
v -1.499059 2.164953 0.987876
v -1.481153 2.181733 0.970791
v -1.515386 2.112569 0.738298
v -1.533292 2.132928 0.738266
v -1.481153 2.132928 0.738266
v -1.499059 2.112569 0.738298
v -1.233148 2.297686 1.000000
v -1.181008 2.297686 1.000000
v -1.233148 2.582966 1.045118
v -1.181008 2.582966 1.045118
v -1.233148 2.897374 1.023658
v -1.181008 2.897374 1.023658
v -1.233148 2.213413 0.938536
v -1.181008 2.213413 0.938536
v -1.233148 2.181727 0.738188
v -1.181008 2.181727 0.738188
v -1.233148 2.297686 1.041797
v -1.215241 2.297686 1.069158
v -1.198915 2.297686 1.069158
v -1.181008 2.297686 1.041797
v -1.215241 2.582966 1.114276
v -1.233148 2.582966 1.086915
v -1.181008 2.582966 1.086915
v -1.198915 2.582966 1.114276
v -1.233148 2.897374 1.065455
v -1.215241 2.897374 1.092816
v -1.198915 2.897374 1.092816
v -1.181008 2.897374 1.065455
v -1.233148 2.181733 0.970791
v -1.215241 2.164953 0.987876
v -1.198915 2.164953 0.987876
v -1.181008 2.181733 0.970791
v -1.215241 2.112569 0.738298
v -1.233148 2.132928 0.738266
v -1.181008 2.132928 0.738266
v -1.198915 2.112569 0.738298
v -2.857872 2.885406 1.004036
v -2.857872 2.885406 1.117250
v -2.857872 2.918180 1.004036
v -2.857872 2.939634 1.042917
v -2.857872 2.939634 1.078368
v -2.857872 2.918180 1.117250
v -1.057006 2.885406 1.004036
v -1.057006 2.885406 1.117250
v -1.057006 2.939634 1.042917
v -1.057006 2.918180 1.004036
v -1.057006 2.918180 1.117250
v -1.057006 2.939634 1.078368
v -2.857872 2.585012 1.060492
v -2.857872 2.596647 1.069262
v -2.857872 2.596647 1.077258
v -2.857872 2.585012 1.086028
v -1.057006 2.596647 1.069262
v -1.057006 2.585012 1.060492
v -1.057006 2.585012 1.086028
v -1.057006 2.596647 1.077258
v -2.857872 2.574110 1.060492
v -2.857872 2.567239 1.067364
v -2.857872 2.567239 1.079156
v -2.857872 2.574110 1.086028
v -1.057006 2.567239 1.067364
v -1.057006 2.574110 1.060492
v -1.057006 2.574110 1.086028
v -1.057006 2.567239 1.079156
vn -1.0000 0.0000 0.0000
vn -0.9414 -0.1301 0.3112
vn -0.9525 -0.0144 0.3042
vn 0.9525 -0.0144 0.3042
vn 1.0000 0.0000 0.0000
vn 0.9615 0.0187 0.2742
vn 0.9414 -0.1301 0.3112
vn 0.9199 -0.3317 0.2091
vn -0.9199 -0.3317 0.2091
vn 0.0000 -0.0443 0.9990
vn 0.0000 0.0681 0.9977
vn 0.0000 0.3834 -0.9236
vn 0.0000 0.0443 -0.9990
vn 0.4059 -0.7419 0.5337
vn -0.4059 -0.7419 0.5337
vn -0.3862 -0.9027 0.1895
vn 0.3862 -0.9027 0.1895
vn -0.9615 0.0187 0.2742
vn 0.0000 1.0000 -0.0000
vn 0.0000 -0.0681 -0.9977
vn 0.0000 -0.3459 0.9383
vn 0.0000 0.8532 -0.5216
vn 0.0000 0.9877 -0.1562
vn 0.9169 -0.3905 0.0820
vn -0.9169 -0.3905 0.0820
vn -0.8232 -0.1794 0.5387
vn -0.8365 -0.0230 0.5475
vn 0.8365 -0.0230 0.5475
vn 0.8232 -0.1794 0.5387
vn -0.8362 0.0374 0.5472
vn 0.8362 0.0373 0.5472
vn 0.8362 0.0374 0.5472
vn 0.0000 0.0000 -1.0000
vn 0.0000 0.9684 0.2494
vn 0.0000 0.8756 0.4831
vn 0.0000 -1.0000 0.0000
vn 0.0000 -0.0000 1.0000
vn 0.0000 0.9684 -0.2494
vn 0.0000 0.8756 -0.4831
vn 0.0000 -0.3827 -0.9239
vn 0.0000 0.3174 -0.9483
vn 0.0000 0.3174 0.9483
vn 0.0000 -0.3827 0.9239
vn 0.0000 0.6019 0.7986
vn 0.0000 0.6019 -0.7986
vn 0.0000 -0.9239 -0.3827
vn 0.0000 -0.9239 0.3827
usemtl None
s 1
f 5//2 15//3 20//4 7//2
f 21//5 8//6 10//6 26//7
f 6//6 18//8 30//9 12//6
f 15//3 5//2 11//2 27//10
f 19//11 22//11 25//12 24//12
f 6//13 5//13 7//14 8//14
f 29//15 28//16 31//17 34//18
f 7//2 20//4 23//19 9//2
f 10//20 9//20 23//20 24//20 25//20 26//20
f 8//14 7//14 9//21 10//21
f 16//22 17//22 22//11 19//11
f 18//8 6//6 8//6 21//5
f 5//13 6//13 12//23 11//23
f 11//23 12//23 14//24 13//24
f 12//6 30//9 33//25 14//6
f 27//10 11//2 13//2 32//26
f 16//27 19//28 20//4 15//3
f 18//8 21//5 22//29 17//30
f 19//28 24//31 23//19 20//4
f 21//5 26//7 25//32 22//29
f 28//16 16//27 15//3 27//10
f 30//9 18//8 17//30 29//15
f 29//15 34//18 33//25 30//9
f 31//17 28//16 27//10 32//26
f 17//22 16//22 28//16 29//15
f 42//2 52//3 57//4 44//2
f 58//5 45//6 47//6 63//7
f 43//6 55//8 67//9 49//6
f 52//3 42//2 48//2 64//10
f 56//11 59//11 62//12 61//12
f 43//13 42//13 44//14 45//14
f 66//15 65//16 68//17 71//18
f 44//2 57//4 60//19 46//2
f 47//20 46//20 60//20 61//20 62//20 63//20
f 45//14 44//14 46//21 47//21
f 53//22 54//22 59//11 56//11
f 55//8 43//6 45//6 58//5
f 42//13 43//13 49//23 48//23
f 48//23 49//23 51//24 50//24
f 49//6 67//9 70//25 51//6
f 64//10 48//2 50//2 69//26
f 53//27 56//28 57//4 52//3
f 55//8 58//5 59//29 54//30
f 56//28 61//31 60//19 57//4
f 58//5 63//7 62//33 59//29
f 65//16 53//27 52//3 64//10
f 67//9 55//8 54//30 66//15
f 66//15 71//18 70//25 67//9
f 68//17 65//16 64//10 69//26
f 54//22 53//22 65//16 66//15
f 72//2 82//3 87//4 74//2
f 88//5 75//6 77//6 93//7
f 73//6 85//8 97//9 79//6
f 82//3 72//2 78//2 94//10
f 86//11 89//11 92//12 91//12
f 73//13 72//13 74//14 75//14
f 96//15 95//16 98//17 101//18
f 74//2 87//4 90//19 76//2
f 77//20 76//20 90//20 91//20 92//20 93//20
f 75//14 74//14 76//21 77//21
f 83//22 84//22 89//11 86//11
f 85//8 73//6 75//6 88//5
f 72//13 73//13 79//23 78//23
f 78//23 79//23 81//24 80//24
f 79//6 97//9 100//25 81//6
f 94//10 78//2 80//2 99//26
f 83//27 86//28 87//4 82//3
f 85//8 88//5 89//29 84//30
f 86//28 91//31 90//19 87//4
f 88//5 93//7 92//32 89//29
f 95//16 83//27 82//3 94//10
f 97//9 85//8 84//30 96//15
f 96//15 101//18 100//25 97//9
f 98//17 95//16 94//10 99//26
f 84//22 83//22 95//16 96//15
f 102//2 112//3 117//4 104//2
f 118//5 105//6 107//6 123//7
f 103//6 115//8 127//9 109//6
f 112//3 102//2 108//2 124//10
f 116//11 119//11 122//12 121//12
f 103//13 102//13 104//14 105//14
f 126//15 125//16 128//17 131//18
f 104//2 117//4 120//19 106//2
f 107//20 106//20 120//20 121//20 122//20 123//20
f 105//14 104//14 106//21 107//21
f 113//22 114//22 119//11 116//11
f 115//8 103//6 105//6 118//5
f 102//13 103//13 109//23 108//23
f 108//23 109//23 111//24 110//24
f 109//6 127//9 130//25 111//6
f 124//10 108//2 110//2 129//26
f 113//27 116//28 117//4 112//3
f 115//8 118//5 119//29 114//30
f 116//28 121//31 120//19 117//4
f 118//5 123//7 122//33 119//29
f 125//16 113//27 112//3 124//10
f 127//9 115//8 114//30 126//15
f 126//15 131//18 130//25 127//9
f 128//17 125//16 124//10 129//26
f 114//22 113//22 125//16 126//15
f 132//2 142//3 147//4 134//2
f 148//5 135//6 137//6 153//7
f 133//6 145//8 157//9 139//6
f 142//3 132//2 138//2 154//10
f 146//11 149//11 152//12 151//12
f 133//13 132//13 134//14 135//14
f 156//15 155//16 158//17 161//18
f 134//2 147//4 150//19 136//2
f 137//20 136//20 150//20 151//20 152//20 153//20
f 135//14 134//14 136//21 137//21
f 143//22 144//22 149//11 146//11
f 145//8 133//6 135//6 148//5
f 132//13 133//13 139//23 138//23
f 138//23 139//23 141//24 140//24
f 139//6 157//9 160//25 141//6
f 154//10 138//2 140//2 159//26
f 143//27 146//28 147//4 142//3
f 145//8 148//5 149//29 144//30
f 146//28 151//31 150//19 147//4
f 148//5 153//7 152//33 149//29
f 155//16 143//27 142//3 154//10
f 157//9 145//8 144//30 156//15
f 156//15 161//18 160//25 157//9
f 158//17 155//16 154//10 159//26
f 144//22 143//22 155//16 156//15
f 162//2 172//3 177//4 164//2
f 178//5 165//6 167//6 183//7
f 163//6 175//8 187//9 169//6
f 172//3 162//2 168//2 184//10
f 176//11 179//11 182//12 181//12
f 163//13 162//13 164//14 165//14
f 186//15 185//16 188//17 191//18
f 164//2 177//4 180//19 166//2
f 167//20 166//20 180//20 181//20 182//20 183//20
f 165//14 164//14 166//21 167//21
f 173//22 174//22 179//11 176//11
f 175//8 163//6 165//6 178//5
f 162//13 163//13 169//23 168//23
f 168//23 169//23 171//24 170//24
f 169//6 187//9 190//25 171//6
f 184//10 168//2 170//2 189//26
f 173//27 176//28 177//4 172//3
f 175//8 178//5 179//29 174//30
f 176//28 181//31 180//19 177//4
f 178//5 183//7 182//33 179//29
f 185//16 173//27 172//3 184//10
f 187//9 175//8 174//30 186//15
f 186//15 191//18 190//25 187//9
f 188//17 185//16 184//10 189//26
f 174//22 173//22 185//16 186//15
f 193//2 197//2 196//2 195//2 194//2 192//2
f 199//6 198//6 201//6 200//6 203//6 202//6
f 192//34 194//34 201//34 198//34
f 196//35 197//36 202//36 203//35
f 193//37 192//37 198//37 199//37
f 197//38 193//38 199//38 202//38
f 195//39 196//35 203//35 200//39
f 194//40 195//39 200//39 201//40
f 212//41 204//42 209//42 217//41
f 207//43 215//44 218//44 210//43
f 206//45 207//43 210//43 211//45
f 214//2 215//2 207//2 206//2 205//2 204//2 212//2 213//2
f 218//6 219//6 216//6 217//6 209//6 208//6 211//6 210//6
f 205//20 206//20 211//20 208//20
f 204//42 205//46 208//46 209//42
f 216//47 213//47 212//41 217//41
f 218//44 215//44 214//48 219//48
f 214//48 213//47 216//47 219//48
l 41 36
l 35 37
l 37 38
l 38 39
l 39 40
l 40 41
