# Blender v2.79 (sub 0) OBJ File: 'interiors_modular.blend'
# www.blender.org
mtllib stairs.mtl
o source.ladder_Plane.001
v -1.057006 0.000000 2.800869
v 0.743861 0.000000 2.800869
v -1.057006 0.000000 6.275496
v 0.743861 0.000000 6.275496
vn 0.0000 1.0000 -0.0000
usemtl None
s 1
f 4//1 2//1 1//1 3//1
o target_ladder_Plane.094
v 0.550312 0.114672 2.839530
v -0.065247 2.000000 5.959621
v -0.028337 0.114672 3.096865
v 0.615625 0.114672 3.096864
v 0.652535 0.114672 3.116744
v 0.471757 0.114672 3.116744
v 0.471757 2.000000 6.275496
v 0.471757 1.932853 6.275496
v 0.652535 2.000000 6.275496
v 0.652535 1.932853 6.275496
v -0.065247 0.181818 3.116744
v 0.115531 0.181818 3.116744
v 0.652535 0.181818 3.116744
v 0.471757 0.181818 3.116744
v 0.115532 1.932853 6.275496
v 0.115532 2.000000 6.275496
v -0.065247 1.932853 6.275496
v -0.065247 2.000000 6.275496
v -0.065247 0.114672 3.116744
v 0.115531 0.114672 3.116744
v -0.156573 1.818182 5.959621
v 0.743861 1.818182 5.959621
v 0.743861 1.636364 5.643746
v 0.743861 1.454546 5.327870
v 0.743861 1.272727 5.011995
v 0.743861 1.090909 4.696120
v 0.743861 0.909091 4.380245
v 0.743861 0.727273 4.064370
v 0.743861 0.545455 3.748495
v 0.743861 0.363637 3.432619
v 0.743861 0.181818 3.116744
v -0.156573 0.181818 3.116744
v -0.156573 0.363637 3.432619
v -0.156573 0.545455 3.748495
v -0.156573 0.727273 4.064370
v -0.156573 0.909091 4.380245
v -0.156573 1.090909 4.696120
v -0.156573 1.272727 5.011996
v -0.156573 1.454545 5.327871
v -0.156573 1.636364 5.643746
v 0.743861 0.114672 3.116744
v -0.156573 0.114672 3.116744
v 0.743861 0.181818 2.892195
v 0.652535 0.181818 2.800869
v -0.065247 0.181818 2.800869
v -0.156573 0.181818 2.892195
v 0.652535 0.114672 2.800869
v 0.743861 0.114672 2.892195
v -0.156573 0.114672 2.892195
v -0.065247 0.114672 2.800869
v 0.743861 0.296490 3.432619
v -0.156573 0.296490 3.432619
v 0.743861 0.363636 3.208070
v 0.652535 0.363636 3.116744
v -0.065247 0.363636 3.116744
v -0.156573 0.363636 3.208070
v 0.652535 0.296490 3.116744
v 0.743861 0.296490 3.208070
v -0.156573 0.296490 3.208070
v -0.065247 0.296490 3.116744
v 0.743861 0.478308 3.748495
v -0.156573 0.478308 3.748495
v 0.743861 0.545455 3.523945
v 0.652535 0.545455 3.432620
v -0.065247 0.545455 3.432620
v -0.156573 0.545455 3.523945
v 0.652535 0.478308 3.432620
v 0.743861 0.478308 3.523945
v -0.156573 0.478308 3.523945
v -0.065247 0.478308 3.432620
v 0.743861 0.660126 4.064370
v -0.156573 0.660126 4.064370
v 0.743861 0.727273 3.839820
v 0.652535 0.727273 3.748495
v -0.065247 0.727273 3.748495
v -0.156573 0.727273 3.839820
v 0.652535 0.660126 3.748495
v 0.743861 0.660126 3.839820
v -0.156573 0.660126 3.839820
v -0.065247 0.660126 3.748495
v 0.743861 0.841944 4.380245
v -0.156573 0.841944 4.380245
v 0.743861 0.909091 4.155696
v 0.652535 0.909091 4.064370
v -0.065247 0.909091 4.064370
v -0.156573 0.909091 4.155696
v 0.652535 0.841944 4.064370
v 0.743861 0.841944 4.155696
v -0.156573 0.841944 4.155696
v -0.065247 0.841944 4.064370
v 0.743861 1.023762 4.696120
v -0.156573 1.023762 4.696120
v 0.743861 1.090909 4.471571
v 0.652535 1.090909 4.380245
v -0.065247 1.090909 4.380245
v -0.156573 1.090909 4.471571
v 0.652535 1.023762 4.380245
v 0.743861 1.023762 4.471571
v -0.156573 1.023762 4.471571
v -0.065247 1.023762 4.380245
v 0.743861 1.205581 5.011996
v -0.156573 1.205581 5.011996
v 0.743861 1.272727 4.787446
v 0.652535 1.272727 4.696121
v -0.065247 1.272727 4.696121
v -0.156573 1.272727 4.787446
v 0.652535 1.205581 4.696121
v 0.743861 1.205581 4.787446
v -0.156573 1.205581 4.787446
v -0.065247 1.205581 4.696121
v 0.743861 1.387399 5.327871
v -0.156573 1.387399 5.327871
v 0.743861 1.454545 5.103322
v 0.652535 1.454545 5.011996
v -0.065247 1.454545 5.011996
v -0.156573 1.454545 5.103322
v 0.652535 1.387399 5.011996
v 0.743861 1.387399 5.103322
v -0.156573 1.387399 5.103322
v -0.065247 1.387399 5.011996
v 0.743861 1.569217 5.643746
v -0.156573 1.569217 5.643746
v 0.743861 1.636364 5.419197
v 0.652535 1.636364 5.327871
v -0.065247 1.636364 5.327871
v -0.156573 1.636364 5.419197
v 0.652535 1.569217 5.327871
v 0.743861 1.569217 5.419197
v -0.156573 1.569217 5.419197
v -0.065247 1.569217 5.327871
v 0.743861 1.751035 5.959621
v -0.156573 1.751035 5.959621
v 0.743861 1.818182 5.735072
v 0.652535 1.818182 5.643746
v -0.065247 1.818182 5.643746
v -0.156573 1.818182 5.735072
v 0.652535 1.751035 5.643746
v 0.743861 1.751035 5.735072
v -0.156573 1.751035 5.735072
v -0.065247 1.751035 5.643746
v 0.743861 1.932853 6.275496
v -0.156573 1.932853 6.275496
v 0.743861 2.000000 6.050946
v 0.652535 2.000000 5.959620
v 0.615625 0.114672 2.904844
v -0.156573 2.000000 6.050946
v 0.652535 1.932853 5.959620
v 0.743861 1.932853 6.050946
v -0.156573 1.932853 6.050946
v -0.065247 1.932853 5.959620
v -0.028337 0.114672 2.904844
v 0.036977 0.114672 2.839530
v -0.028337 0.000000 2.904844
v -0.028337 0.000000 3.096865
v 0.550312 0.000000 2.839530
v 0.036977 0.000000 2.839530
v 0.615625 0.000000 3.096864
v 0.615625 0.000000 2.904844
v -0.156573 0.882280 3.116744
v -0.156573 0.882280 3.055583
v -0.204944 0.882280 3.116744
v -0.204944 0.882280 3.055583
v -0.204944 0.165623 3.116744
v -0.156573 0.114672 3.055583
v -0.204944 0.165623 3.055583
v -0.143360 2.713794 6.302982
v -0.218222 2.713794 6.302983
v -0.218222 0.822051 2.993282
v -0.143360 0.822051 2.993282
v -0.162522 0.700319 3.116744
v -0.199059 0.700319 3.116744
v -0.162522 2.451354 6.272787
v -0.162522 2.518501 6.272787
v -0.199059 2.451354 6.272787
v -0.199059 2.518501 6.272787
v -0.199059 0.633173 3.116744
v -0.162522 0.633173 3.116744
v -0.156573 1.245917 3.748494
v -0.156573 1.245917 3.687333
v -0.204944 1.245917 3.748494
v -0.204944 1.245917 3.687333
v -0.204944 0.529260 3.748494
v -0.156573 0.478308 3.687333
v -0.204944 0.529260 3.687333
v -0.156573 1.609553 4.380245
v -0.156573 1.609553 4.319084
v -0.204944 1.609553 4.380245
v -0.204944 1.609553 4.319084
v -0.204944 0.892896 4.380245
v -0.156573 0.841944 4.319084
v -0.204944 0.892896 4.319084
v -0.156573 1.973189 5.011995
v -0.156573 1.973189 4.950834
v -0.204944 1.973189 5.011995
v -0.204944 1.973189 4.950834
v -0.204944 1.256533 5.011995
v -0.156573 1.205581 4.950834
v -0.204944 1.256533 4.950834
v -0.156573 2.336826 5.643745
v -0.156573 2.336826 5.582584
v -0.204944 2.336826 5.643745
v -0.204944 2.336826 5.582584
v -0.204944 1.620169 5.643745
v -0.156573 1.569217 5.582584
v -0.204944 1.620169 5.582584
v -0.156573 2.700462 6.275496
v -0.156573 2.700462 6.214334
v -0.204944 2.700462 6.275496
v -0.204944 2.700462 6.214334
v -0.204944 1.983805 6.275496
v -0.156573 1.932853 6.214334
v -0.204944 1.983805 6.214334
v -0.157887 0.859154 2.976492
v -0.143360 0.846067 2.982870
v -0.218222 0.846067 2.982870
v -0.203695 0.859154 2.976492
v -0.143360 2.737811 6.292570
v -0.157887 2.750898 6.286193
v -0.203695 2.750898 6.286193
v -0.218222 2.737811 6.292570
v 0.743861 2.000000 6.275496
v -0.156573 2.000000 6.275496
vn 0.0000 -0.8682 0.4962
vn 0.0000 0.0000 -1.0000
vn 0.0000 -0.0000 1.0000
vn 0.0000 1.0000 -0.0000
vn 0.3827 0.0000 -0.9239
vn -0.3827 0.0000 -0.9239
vn -0.0000 -1.0000 0.0000
vn 1.0000 -0.0000 0.0000
vn 0.0000 0.8667 -0.4989
vn -1.0000 0.0000 0.0000
vn 0.0000 -0.8667 0.4989
vn -0.9239 0.0000 -0.3827
vn 0.9239 0.0000 -0.3827
vn -0.9288 -0.3707 0.0000
vn -0.7252 -0.6885 0.0000
vn 0.0000 0.4103 0.9119
vn 0.9314 0.3159 -0.1806
vn 0.9156 0.3491 -0.1995
vn -0.9314 0.3159 -0.1806
vn -0.9156 0.3491 -0.1995
vn 0.3883 0.8001 -0.4573
vn -0.3883 0.8001 -0.4573
vn -0.3769 0.8042 -0.4596
vn 0.3769 0.8042 -0.4596
vn 0.0000 -0.8665 0.4992
vn 0.0000 0.8665 -0.4992
vn 0.0000 -0.4103 -0.9119
usemtl None
s 1
f 172//2 173//2 170//2 171//2
f 10//3 18//3 17//3 9//3
f 12//4 14//4 13//4 11//4
f 37//5 34//5 57//5 58//5 59//5 60//5
f 48//6 51//6 54//7 49//7
f 53//8 54//8 51//8 52//8 45//8 46//8
f 9//9 17//9 13//9 14//9
f 17//10 18//10 11//10 13//10
f 18//11 10//11 12//11 11//11
f 10//12 9//12 14//12 12//12
f 23//12 24//12 19//12 21//12
f 15//11 23//11 21//11 22//11
f 16//10 15//10 22//10 20//10
f 24//9 16//9 20//9 19//9
f 21//4 19//4 20//4 22//4
f 46//11 36//11 50//13 53//13
f 46//4 45//4 35//4 36//4
f 35//5 47//5 48//5 49//5 50//5 36//5
f 53//13 50//13 49//7 54//7
f 47//14 52//14 51//6 48//6
f 35//9 45//9 52//14 47//14
f 58//6 61//6 64//7 59//7
f 63//8 64//8 61//8 62//8 55//8 56//8
f 56//11 37//11 60//13 63//13
f 56//4 55//4 34//4 37//4
f 23//3 15//3 16//3 24//3
f 63//13 60//13 59//7 64//7
f 57//14 62//14 61//6 58//6
f 34//9 55//9 62//14 57//14
f 68//6 71//6 74//7 69//7
f 73//8 74//8 71//8 72//8 65//8 66//8
f 66//11 38//11 70//13 73//13
f 66//4 65//4 33//4 38//4
f 33//5 67//5 68//5 69//5 70//5 38//5
f 73//13 70//13 69//7 74//7
f 67//14 72//14 71//6 68//6
f 33//9 65//9 72//14 67//14
f 78//6 81//6 84//7 79//7
f 83//8 84//8 81//8 82//8 75//8 76//8
f 76//11 39//11 80//13 83//13
f 76//4 75//4 32//4 39//4
f 32//5 77//5 78//5 79//5 80//5 39//5
f 83//13 80//13 79//7 84//7
f 77//14 82//14 81//6 78//6
f 32//9 75//9 82//14 77//14
f 88//6 91//6 94//7 89//7
f 93//8 94//8 91//8 92//8 85//8 86//8
f 86//11 40//11 90//13 93//13
f 86//4 85//4 31//4 40//4
f 31//5 87//5 88//5 89//5 90//5 40//5
f 93//13 90//13 89//7 94//7
f 87//14 92//14 91//6 88//6
f 31//9 85//9 92//14 87//14
f 98//6 101//6 104//7 99//7
f 103//8 104//8 101//8 102//8 95//8 96//8
f 96//11 41//11 100//13 103//13
f 96//4 95//4 30//4 41//4
f 30//5 97//5 98//5 99//5 100//5 41//5
f 103//13 100//13 99//7 104//7
f 97//14 102//14 101//6 98//6
f 30//9 95//9 102//14 97//14
f 108//6 111//6 114//7 109//7
f 113//8 114//8 111//8 112//8 105//8 106//8
f 106//11 42//11 110//13 113//13
f 106//4 105//4 29//4 42//4
f 29//5 107//5 108//5 109//5 110//5 42//5
f 113//13 110//13 109//7 114//7
f 107//14 112//14 111//6 108//6
f 29//9 105//9 112//14 107//14
f 118//6 121//6 124//7 119//7
f 123//8 124//8 121//8 122//8 115//8 116//8
f 116//11 43//11 120//13 123//13
f 116//4 115//4 28//4 43//4
f 28//5 117//5 118//5 119//5 120//5 43//5
f 123//13 120//13 119//7 124//7
f 117//14 122//14 121//6 118//6
f 28//9 115//9 122//14 117//14
f 128//6 131//6 134//7 129//7
f 133//8 134//8 131//8 132//8 125//8 126//8
f 126//11 44//11 130//13 133//13
f 126//4 125//4 27//4 44//4
f 27//5 127//5 128//5 129//5 130//5 44//5
f 133//13 130//13 129//7 134//7
f 127//14 132//14 131//6 128//6
f 27//9 125//9 132//14 127//14
f 138//6 141//6 144//7 139//7
f 143//8 144//8 141//8 142//8 135//8 136//8
f 136//11 25//11 140//13 143//13
f 136//4 135//4 26//4 25//4
f 26//5 137//5 138//5 139//5 140//5 25//5
f 143//13 140//13 139//7 144//7
f 137//14 142//14 141//6 138//6
f 26//9 135//9 142//14 137//14
f 148//6 151//6 154//7 6//7
f 153//8 154//8 151//8 152//8 145//8 146//8
f 146//11 226//11 150//13 153//13
f 146//4 145//4 225//4 226//4
f 225//5 147//5 148//5 6//5 150//5 226//5
f 153//13 150//13 6//7 154//7
f 147//14 152//14 151//6 148//6
f 225//9 145//9 152//14 147//14
f 46//9 168//9 164//9 163//9
f 5//6 149//14 162//14 159//6
f 156//7 5//6 159//6 160//7
f 155//13 156//7 160//7 157//13
f 149//14 8//9 161//9 162//14
f 7//11 155//13 157//13 158//11
f 8//4 7//4 158//4 161//4
f 164//3 168//3 169//3 166//3
f 167//15 165//11 166//11 169//15
f 168//16 46//16 167//15 169//15
f 46//4 163//4 165//4 167//4
f 171//17 170//17 221//17 222//17 223//17 224//17
f 173//9 218//18 221//19 170//9
f 219//20 172//11 171//11 224//21
f 217//22 220//23 223//24 222//25
f 180//26 181//26 176//26 178//26
f 175//11 180//11 178//11 179//11
f 174//27 175//27 179//27 177//27
f 181//9 174//9 177//9 176//9
f 66//9 187//9 183//9 182//9
f 183//3 187//3 188//3 185//3
f 186//15 184//11 185//11 188//15
f 187//16 66//16 186//15 188//15
f 66//4 182//4 184//4 186//4
f 86//9 194//9 190//9 189//9
f 190//3 194//3 195//3 192//3
f 193//15 191//11 192//11 195//15
f 194//16 86//16 193//15 195//15
f 86//4 189//4 191//4 193//4
f 106//9 201//9 197//9 196//9
f 197//3 201//3 202//3 199//3
f 200//15 198//11 199//11 202//15
f 201//16 106//16 200//15 202//15
f 106//4 196//4 198//4 200//4
f 126//9 208//9 204//9 203//9
f 204//3 208//3 209//3 206//3
f 207//15 205//11 206//11 209//15
f 208//16 126//16 207//15 209//15
f 126//4 203//4 205//4 207//4
f 146//9 215//9 211//9 210//9
f 211//3 215//3 216//3 213//3
f 214//15 212//11 213//11 216//15
f 215//16 146//16 214//15 216//15
f 146//4 210//4 212//4 214//4
f 219//20 224//21 223//24 220//23
f 217//22 222//25 221//19 218//18
f 172//28 219//28 220//28 217//28 218//28 173//28
