# Blender v2.79 (sub 0) OBJ File: 'interiors_modular.blend'
# www.blender.org
mtllib wall_flat_01.mtl
o source.wall_flat_Plane.089
v -1.057006 4.297686 -0.800868
v -1.057006 2.297686 -0.800868
v 0.743861 4.297686 -0.800868
v 0.743861 2.297686 -0.800868
vn -0.0000 0.0000 1.0000
usemtl default
s 1
f 2//1 4//1 3//1 1//1
o target_wall_flat_Plane.059
v -0.156573 2.297686 -0.800868
v 0.331175 2.553895 -0.800868
v 0.331175 3.297697 -0.800868
v 0.331175 4.041523 -0.800868
v -0.156573 4.297686 -0.800868
v 0.331175 4.297686 -0.800868
v 0.331174 2.297686 -0.800868
v -0.644320 2.297686 -0.800868
v -0.644320 2.553895 -0.800868
v -0.644320 3.297697 -0.800868
v -0.644320 4.041523 -0.800868
v -0.644320 4.297686 -0.800868
v 0.146181 2.581792 -0.800868
v -0.506962 2.553895 -0.800868
v -0.156573 2.411948 -0.800868
v 0.146181 3.297697 -0.800868
v -0.506962 3.297697 -0.800868
v -0.459326 4.013627 -0.800868
v 0.193817 4.041523 -0.800868
v -0.156573 4.183470 -0.800868
v -0.156573 2.357329 -0.800868
v 0.193817 2.553895 -0.800868
v -0.459326 2.581792 -0.800868
v -0.156573 4.238090 -0.800868
v -0.506962 4.041523 -0.800868
v 0.146181 4.013627 -0.800868
v 0.193817 3.297697 -0.800868
v -0.459326 3.297697 -0.800868
v -0.156573 2.357329 -0.781234
v 0.193817 2.553895 -0.781234
v -0.506962 2.553895 -0.781234
v -0.156573 4.238090 -0.781234
v -0.506962 4.041523 -0.781234
v 0.193817 4.041523 -0.781234
v 0.193817 3.297697 -0.781234
v -0.506962 3.297697 -0.781234
v -0.156573 2.411948 -0.781234
v 0.146181 2.581792 -0.781234
v -0.459326 2.581792 -0.781234
v -0.156573 4.183470 -0.781234
v -0.459326 4.013627 -0.781234
v 0.146181 4.013627 -0.781234
v 0.146181 3.297697 -0.781234
v -0.459326 3.297697 -0.781234
v -0.800892 2.297686 -0.800868
v -0.800892 2.553895 -0.800868
v -0.800892 3.297697 -0.800868
v -0.800892 4.041523 -0.800868
v -0.800892 4.297686 -0.800868
v 0.487747 2.553895 -0.800868
v 0.487747 3.297697 -0.800868
v 0.487747 4.041523 -0.800868
v 0.487747 4.297686 -0.800868
v 0.487747 2.297686 -0.800868
v 0.743861 2.297686 -0.800868
v 0.487747 4.297686 -0.800868
v 0.743861 2.553895 -0.800868
v 0.487747 4.041523 -0.800868
v 0.743861 3.297697 -0.800868
v 0.487747 3.297697 -0.800868
v 0.743861 4.041523 -0.800868
v 0.743861 4.297686 -0.800868
v 0.487747 2.553895 -0.800868
v 0.487747 2.297686 -0.800868
v 0.699680 4.253505 -0.800868
v 0.531928 4.253505 -0.800868
v 0.699680 2.341867 -0.800868
v 0.699680 2.553895 -0.800868
v 0.531928 2.341867 -0.800868
v 0.699680 3.297697 -0.800868
v 0.699680 4.041523 -0.800868
v 0.531928 4.041523 -0.800868
v 0.531928 3.297697 -0.800868
v 0.531928 2.553895 -0.800868
v 0.674473 4.253505 -0.835485
v 0.557135 4.253505 -0.835485
v 0.674473 4.041523 -0.835485
v 0.557135 4.041523 -0.835485
v 0.674473 2.341867 -0.835485
v 0.674473 2.553895 -0.835485
v 0.557135 2.341867 -0.835485
v 0.674473 3.297697 -0.835485
v 0.557135 3.297697 -0.835485
v 0.557135 2.553895 -0.835485
v -0.800892 2.297686 -0.800868
v -1.057006 4.297686 -0.800868
v -0.800892 2.553896 -0.800868
v -1.057006 4.041523 -0.800868
v -0.800892 3.297698 -0.800868
v -1.057006 3.297698 -0.800868
v -0.800892 4.041523 -0.800868
v -0.800892 4.297686 -0.800868
v -1.057006 2.553896 -0.800868
v -1.057006 2.297686 -0.800868
v -0.845073 4.253505 -0.800868
v -1.012825 4.253505 -0.800868
v -0.845073 2.341867 -0.800868
v -0.845073 2.553896 -0.800868
v -1.012825 2.341867 -0.800868
v -0.845073 3.297698 -0.800868
v -0.845073 4.041523 -0.800868
v -1.012825 4.041523 -0.800868
v -1.012825 3.297698 -0.800868
v -1.012825 2.553896 -0.800868
v -0.870280 4.253505 -0.835485
v -0.987617 4.253505 -0.835485
v -0.870280 4.041523 -0.835485
v -0.987617 4.041523 -0.835485
v -0.870280 2.341867 -0.835485
v -0.870280 2.553896 -0.835485
v -0.987617 2.341867 -0.835485
v -0.870280 3.297698 -0.835485
v -0.987617 3.297698 -0.835485
v -0.987617 2.553896 -0.835485
vt 0.121737 0.132329
vt 0.191093 0.137503
vt 0.143551 0.506828
vt 0.081538 0.505998
vt 0.354526 0.020316
vt 0.585283 0.009015
vt 0.592064 0.131635
vt 0.524439 0.136863
vt 0.354642 0.044616
vt 0.177256 0.863258
vt 0.109601 0.868545
vt 0.347105 0.955461
vt 0.347227 0.979739
vt 0.116579 0.991135
vt 0.558147 0.493218
vt 0.620158 0.494040
vt 0.579992 0.867707
vt 0.510636 0.862542
vt 0.128876 0.009337
vt 0.572872 0.990673
vt 0.483809 0.165094
vt 0.229998 0.162812
vt 0.356486 0.087149
vt 0.217891 0.835013
vt 0.471728 0.837238
vt 0.345250 0.912928
vt 0.518472 0.493084
vt 0.183230 0.506964
vt 0.515123 0.143598
vt 0.355589 0.055333
vt 0.479805 0.841989
vt 0.346157 0.923291
vt 0.208907 0.841237
vt 0.548244 0.493277
vt 0.221922 0.158060
vt 0.355582 0.076786
vt 0.346155 0.944744
vt 0.502278 0.857534
vt 0.492792 0.158872
vt 0.173475 0.507055
vt 0.199451 0.142513
vt 0.186573 0.856520
vt 0.528226 0.492993
vt 0.153454 0.506770
vt 0.033111 0.873536
vt 0.003707 0.504823
vt 0.044197 0.126075
vt 0.053637 0.003707
vt 0.041548 0.996292
vt 0.657531 0.873952
vt 0.648109 0.996293
vt 0.697987 0.495204
vt 0.660337 0.004113
vt 0.668483 0.126490
vt 0.725700 0.132586
vt 0.734186 0.027348
vt 0.753884 0.039691
vt 0.745078 0.133274
vt 0.735833 0.958483
vt 0.725902 0.851052
vt 0.747858 0.849976
vt 0.754412 0.942294
vt 0.726851 0.491241
vt 0.747571 0.491250
vt 0.826590 0.131989
vt 0.825640 0.491791
vt 0.804921 0.491782
vt 0.804634 0.133066
vt 0.818305 0.955672
vt 0.839199 0.977317
vt 0.715693 0.979313
vt 0.816659 0.024537
vt 0.836798 0.003707
vt 0.847090 0.131142
vt 0.713292 0.005703
vt 0.847017 0.491786
vt 0.826790 0.850456
vt 0.847084 0.851045
vt 0.705401 0.851900
vt 0.705474 0.491246
vt 0.705407 0.131997
vt 0.798079 0.040726
vt 0.807413 0.849768
vt 0.798607 0.943329
vt 0.874800 0.132587
vt 0.883284 0.027349
vt 0.902983 0.039691
vt 0.894177 0.133274
vt 0.884937 0.958484
vt 0.875005 0.851053
vt 0.896961 0.849976
vt 0.903516 0.942294
vt 0.875953 0.491242
vt 0.896672 0.491250
vt 0.975690 0.131990
vt 0.974741 0.491791
vt 0.954022 0.491782
vt 0.953734 0.133066
vt 0.967409 0.955672
vt 0.988303 0.977317
vt 0.864797 0.979314
vt 0.965758 0.024537
vt 0.985897 0.003707
vt 0.996190 0.131142
vt 0.862391 0.005703
vt 0.996118 0.491786
vt 0.975894 0.850456
vt 0.996187 0.851045
vt 0.854505 0.851901
vt 0.854576 0.491246
vt 0.854506 0.131998
vt 0.947178 0.040727
vt 0.956516 0.849769
vt 0.947711 0.943330
vn -0.0000 0.0000 1.0000
vn 0.4893 -0.8721 0.0000
vn -0.4893 -0.8721 0.0000
vn 1.0000 0.0000 0.0000
vn 0.4893 0.8721 0.0000
vn -0.4893 0.8721 0.0000
vn -1.0000 0.0000 0.0000
vn 0.8084 0.0000 0.5886
vn -0.8084 0.0000 0.5886
vn 0.0000 1.0000 0.0000
vn 0.0000 -1.0000 0.0000
usemtl flatwall
s 1
f 13/1/2 18/2/2 21/3/2 14/4/2
f 5/5/2 11/6/2 6/7/2 26/8/2 25/9/2
f 14/4/2 21/3/2 29/10/2 15/11/2
f 15/11/2 29/10/2 28/12/2 9/13/2 16/14/2
f 31/15/2 7/16/2 8/17/2 23/18/2
f 12/19/2 5/5/2 25/9/2 18/2/2 13/1/2
f 28/12/2 23/18/2 8/17/2 10/20/2 9/13/2
f 17/21/2 27/22/2 19/23/2
f 22/24/2 30/25/2 24/26/2
f 17/21/2 20/27/2 32/28/2 27/22/2
f 20/27/2 30/25/2 22/24/2 32/28/2
f 26/8/2 6/7/2 7/16/2 31/15/2
f 25/9/3 26/8/3 34/29/3 33/30/3
f 24/26/4 30/25/4 46/31/4 44/32/4
f 22/24/3 24/26/3 44/32/3 45/33/3
f 26/8/5 31/15/5 39/34/5 34/29/5
f 19/23/6 27/22/6 43/35/6 41/36/6
f 23/18/6 28/12/6 36/37/6 38/38/6
f 17/21/7 19/23/7 41/36/7 42/39/7
f 32/28/5 22/24/5 45/33/5 48/40/5
f 42/39/2 41/36/2 33/30/2 34/29/2
f 41/36/2 43/35/2 35/41/2 33/30/2
f 45/33/2 44/32/2 36/37/2 37/42/2
f 44/32/2 46/31/2 38/38/2 36/37/2
f 47/43/2 42/39/2 34/29/2 39/34/2
f 43/35/2 48/40/2 40/44/2 35/41/2
f 46/31/2 47/43/2 39/34/2 38/38/2
f 48/40/2 45/33/2 37/42/2 40/44/2
f 21/3/8 18/2/8 35/41/8 40/44/8
f 20/27/8 17/21/8 42/39/8 47/43/8
f 31/15/5 23/18/5 38/38/5 39/34/5
f 27/22/5 32/28/5 48/40/5 43/35/5
f 18/2/4 25/9/4 33/30/4 35/41/4
f 29/10/8 21/3/8 40/44/8 37/42/8
f 30/25/8 20/27/8 47/43/8 46/31/8
f 28/12/7 29/10/7 37/42/7 36/37/7
f 14/4/2 15/11/2 52/45/2 51/46/2
f 12/19/2 13/1/2 50/47/2 49/48/2
f 15/11/2 16/14/2 53/49/2 52/45/2
f 13/1/2 14/4/2 51/46/2 50/47/2
f 10/20/2 8/17/2 56/50/2 57/51/2
f 8/17/2 7/16/2 55/52/2 56/50/2
f 6/7/2 11/6/2 58/53/2 54/54/2
f 7/16/2 6/7/2 54/54/2 55/52/2
f 78/55/9 73/56/9 85/57/9 88/58/9
f 70/59/9 76/60/9 82/61/9 80/62/9
f 77/63/9 78/55/9 88/58/9 87/64/9
f 72/65/10 74/66/10 86/67/10 84/68/10
f 70/59/2 69/69/2 66/70/2 60/71/2
f 72/65/2 71/72/2 59/73/2 61/74/2
f 71/72/2 73/56/2 68/75/2 59/73/2
f 74/66/2 72/65/2 61/74/2 63/76/2
f 75/77/2 74/66/2 63/76/2 65/78/2
f 76/60/2 70/59/2 60/71/2 62/79/2
f 77/63/2 76/60/2 62/79/2 64/80/2
f 69/69/2 75/77/2 65/78/2 66/70/2
f 78/55/2 77/63/2 64/80/2 67/81/2
f 73/56/2 78/55/2 67/81/2 68/75/2
f 84/68/2 86/67/2 87/64/2 88/58/2
f 83/82/2 84/68/2 88/58/2 85/57/2
f 86/67/2 81/83/2 82/61/2 87/64/2
f 81/83/2 79/84/2 80/62/2 82/61/2
f 71/72/10 72/65/10 84/68/10 83/82/10
f 76/60/9 77/63/9 87/64/9 82/61/9
f 73/56/11 71/72/11 83/82/11 85/57/11
f 75/77/10 69/69/10 79/84/10 81/83/10
f 69/69/12 70/59/12 80/62/12 79/84/12
f 74/66/10 75/77/10 81/83/10 86/67/10
f 108/85/9 103/86/9 115/87/9 118/88/9
f 100/89/9 106/90/9 112/91/9 110/92/9
f 107/93/9 108/85/9 118/88/9 117/94/9
f 102/95/10 104/96/10 116/97/10 114/98/10
f 100/89/2 99/99/2 96/100/2 90/101/2
f 102/95/2 101/102/2 89/103/2 91/104/2
f 101/102/2 103/86/2 98/105/2 89/103/2
f 104/96/2 102/95/2 91/104/2 93/106/2
f 105/107/2 104/96/2 93/106/2 95/108/2
f 106/90/2 100/89/2 90/101/2 92/109/2
f 107/93/2 106/90/2 92/109/2 94/110/2
f 99/99/2 105/107/2 95/108/2 96/100/2
f 108/85/2 107/93/2 94/110/2 97/111/2
f 103/86/2 108/85/2 97/111/2 98/105/2
f 114/98/2 116/97/2 117/94/2 118/88/2
f 113/112/2 114/98/2 118/88/2 115/87/2
f 116/97/2 111/113/2 112/91/2 117/94/2
f 111/113/2 109/114/2 110/92/2 112/91/2
f 101/102/10 102/95/10 114/98/10 113/112/10
f 106/90/9 107/93/9 117/94/9 112/91/9
f 103/86/11 101/102/11 113/112/11 115/87/11
f 105/107/10 99/99/10 109/114/10 111/113/10
f 99/99/12 100/89/12 110/92/12 109/114/12
f 104/96/10 105/107/10 111/113/10 116/97/10
