# Blender v2.79 (sub 0) OBJ File: 'interiors_modular.blend'
# www.blender.org
mtllib wall_panel_1_02.mtl
o source.wall_panel_2_Plane.090
v 1.000000 1.000000 1.000000
v 1.000000 0.999965 0.099601
v 1.000000 1.743861 1.000000
v 1.000000 1.743826 0.099601
vn -1.0000 -0.0000 0.0000
usemtl default
s 1
f 4//1 2//1 1//1 3//1
o target.wall_panel_1_02_Plane.008
v 1.000000 1.743861 1.000000
v 1.000000 1.000000 1.000000
v 1.056232 1.201075 0.963683
v 1.047811 1.209496 0.963683
v 1.047811 1.209474 0.135915
v 1.056232 1.201053 0.135915
v 1.000000 1.743861 0.099566
v 1.000000 0.999965 0.099601
v 1.802973 1.201053 0.135915
v 1.802973 1.201075 0.963683
v 1.802973 1.244217 0.963682
v 1.802973 1.244195 0.135914
v 1.000000 1.653966 0.135888
v 1.000000 1.707543 0.189462
v 1.000000 1.743825 0.099601
v 1.000000 1.036286 0.189494
v 1.000000 1.089860 0.135914
v 1.000000 1.000000 0.099636
v 1.000000 1.089893 0.963682
v 1.000000 1.036314 0.910106
v 1.000000 1.000035 0.999965
v 1.000000 1.707543 0.910106
v 1.000000 1.653966 0.963682
v 1.000000 1.743825 0.999965
v 1.802973 1.036314 0.910106
v 1.802973 1.089893 0.963682
v 1.802973 1.653966 0.963682
v 1.802973 1.707543 0.910106
v 1.802973 1.707543 0.189462
v 1.802973 1.653966 0.135888
v 1.802973 1.089860 0.135914
v 1.802973 1.036286 0.189494
v 1.056232 1.244217 0.963682
v 1.047811 1.235795 0.963682
v 1.047811 1.235774 0.135914
v 1.056232 1.244195 0.135914
v 1.056232 1.455712 0.963683
v 1.047811 1.464133 0.963683
v 1.047811 1.464111 0.135915
v 1.056232 1.455690 0.135915
v 1.802973 1.455690 0.135915
v 1.802973 1.455712 0.963683
v 1.802973 1.498853 0.963682
v 1.802973 1.498832 0.135914
v 1.056232 1.498853 0.963682
v 1.047811 1.490432 0.963682
v 1.047811 1.490411 0.135914
v 1.056232 1.498832 0.135914
v 1.031965 1.089893 0.963682
v 1.031965 1.036314 0.910106
v 1.031965 1.089860 0.135914
v 1.031965 1.036286 0.189494
v 1.031965 1.707543 0.910106
v 1.031965 1.653966 0.963682
v 1.031965 1.707543 0.189462
v 1.031965 1.653966 0.135888
v 1.012444 1.653966 0.135888
v 1.012444 1.707543 0.189462
v 1.012444 1.036286 0.189494
v 1.012444 1.089860 0.135914
v 1.012444 1.089893 0.963682
v 1.012444 1.036314 0.910106
v 1.012444 1.707543 0.910106
v 1.012444 1.653966 0.963682
v 1.044410 1.089893 0.963682
v 1.044410 1.036314 0.910106
v 1.044410 1.089860 0.135914
v 1.044410 1.036286 0.189494
v 1.044410 1.707543 0.910106
v 1.044410 1.653966 0.963682
v 1.044410 1.707543 0.189462
v 1.044410 1.653966 0.135888
v 1.012444 1.215176 0.382315
v 1.012444 1.157179 0.382328
v 1.012444 1.157197 0.717256
v 1.012444 1.215171 0.717259
v 1.044410 1.113775 0.878018
v 1.044410 1.121950 0.213375
v 1.044410 1.621881 0.886221
v 1.044410 1.630082 0.221548
v 1.044410 1.121978 0.886220
v 1.044410 1.113749 0.221576
v 1.044410 1.630082 0.878020
v 1.044410 1.621884 0.213350
v 1.012444 1.625983 0.217449
v 1.028391 1.215176 0.408477
v 1.012444 1.117849 0.217475
v 1.028391 1.215171 0.691098
v 1.012444 1.117876 0.882119
v 1.028391 1.157179 0.408489
v 1.028391 1.157197 0.691095
v 1.012444 1.625981 0.882120
vt 0.005253 0.015023
vt 0.177682 0.015024
vt 0.177681 0.250711
vt 0.005251 0.250710
vt 0.979575 0.759203
vt 0.963197 0.775580
vt 0.790758 0.775572
vt 0.774381 0.759193
vt 0.774389 0.538912
vt 0.790768 0.522534
vt 0.963197 0.522534
vt 0.979575 0.538912
vt 0.444295 0.015025
vt 0.616734 0.015025
vt 0.616734 0.250711
vt 0.444295 0.250711
vt 0.639896 0.015025
vt 0.860176 0.015025
vt 0.860177 0.250711
vt 0.639896 0.250711
vt 0.492555 0.493174
vt 0.519275 0.482669
vt 0.732034 0.485173
vt 0.761832 0.496080
vt 0.763878 0.497590
vt 0.488387 0.497590
vt 0.237554 0.776998
vt 0.237555 0.524376
vt 0.245582 0.524376
vt 0.245581 0.776998
vt 0.492553 0.272051
vt 0.502599 0.297127
vt 0.503249 0.466731
vt 0.491697 0.271225
vt 0.749300 0.467219
vt 0.745488 0.293196
vt 0.755737 0.263193
vt 0.757162 0.261214
vt 0.727903 0.275264
vt 0.517789 0.281153
vt 0.883338 0.015025
vt 0.883338 0.250711
vt 0.616734 0.005254
vt 0.639896 0.005254
vt 0.200844 0.015024
vt 0.200843 0.250711
vt 0.421134 0.015025
vt 0.421134 0.005253
vt 0.444295 0.005254
vt 0.421134 0.250711
vt 0.249991 0.776986
vt 0.249991 0.524364
vt 0.477885 0.524364
vt 0.477884 0.776986
vt 0.233145 0.777010
vt 0.233146 0.524388
vt 0.005251 0.777010
vt 0.005252 0.524388
vt 0.237554 0.513849
vt 0.237555 0.261227
vt 0.245581 0.261227
vt 0.245581 0.513849
vt 0.249991 0.513836
vt 0.249991 0.261214
vt 0.477884 0.261214
vt 0.477884 0.513836
vt 0.233145 0.513861
vt 0.233146 0.261239
vt 0.005251 0.513860
vt 0.005252 0.261238
vt 0.200844 0.005252
vt 0.177682 0.005252
vt 0.883338 0.005254
vt 0.860177 0.005254
vt 0.005253 0.005251
vt 0.536989 0.797285
vt 0.513827 0.797285
vt 0.513827 0.787513
vt 0.536989 0.787513
vt 0.732588 0.797284
vt 0.709427 0.797284
vt 0.709427 0.787513
vt 0.732588 0.787513
vt 0.465970 0.817559
vt 0.465970 0.807788
vt 0.686262 0.807788
vt 0.686262 0.817559
vt 0.442808 0.817559
vt 0.442808 0.807788
vt 0.270383 0.787514
vt 0.293545 0.787514
vt 0.293545 0.797285
vt 0.270383 0.797285
vt 0.270383 0.817559
vt 0.270383 0.807788
vt 0.811576 0.340810
vt 0.834252 0.342450
vt 0.829982 0.351536
vt 0.815496 0.351593
vt 0.233536 0.970948
vt 0.033183 0.970296
vt 0.030304 0.967426
vt 0.031314 0.814304
vt 0.033975 0.811731
vt 0.233351 0.815587
vt 0.235962 0.818138
vt 0.236143 0.968395
vt 0.024443 0.787513
vt 0.243424 0.792053
vt 0.259627 0.808331
vt 0.259880 0.978330
vt 0.985633 0.495449
vt 0.969170 0.512031
vt 0.960665 0.486699
vt 0.985588 0.278163
vt 0.960600 0.286938
vt 0.005251 0.977501
vt 0.007483 0.803907
vt 0.791203 0.512032
vt 0.774705 0.495476
vt 0.799677 0.486693
vt 0.243384 0.994748
vt 0.022534 0.994749
vt 0.774381 0.277804
vt 0.790927 0.261214
vt 0.799393 0.286602
vt 0.969122 0.261581
vt 0.833916 0.431827
vt 0.811511 0.433288
vt 0.816033 0.422458
vt 0.830292 0.423111
vn 0.0000 0.3827 -0.9239
vn 0.0000 -0.3827 -0.9239
vn -1.0000 0.0000 0.0000
vn 0.0000 -0.3827 0.9239
vn 0.0000 0.3827 0.9239
vn 0.0000 0.9239 0.3826
vn 0.0000 0.9239 -0.3827
vn -0.9239 -0.3827 0.0000
vn -0.9239 0.3827 -0.0000
vn 0.0000 -0.9239 -0.3827
vn 0.0000 -0.9239 0.3827
vn -0.3827 0.9239 -0.0000
vn 0.0000 1.0000 -0.0000
vn -0.3827 -0.9239 0.0000
vn 0.0000 -1.0000 0.0000
vn 0.0000 -0.9239 -0.3826
vn 0.0000 0.3826 -0.9239
vn 0.0000 0.9239 0.3827
vn -0.9910 0.0000 -0.1338
vn -0.9628 0.0000 -0.2703
vn 1.0000 0.0000 0.0000
vn -0.9910 0.0000 0.1338
vn -0.9910 0.0000 0.1339
vn -0.9628 0.0001 0.2703
vn -0.0000 1.0000 -0.0001
usemtl hbox
s 1
f 53/1/2 58/2/3 31/3/3 30/4/2
f 33/5/4 34/6/4 35/7/4 36/8/4 29/9/4 30/10/4 31/11/4 32/12/4
f 60/13/5 55/14/6 35/15/6 34/16/5
f 56/17/7 54/18/8 29/19/8 36/20/7
f 25/21/4 24/22/4 20/23/4 22/24/4 12/25/4 6/26/4
f 9/27/9 8/28/9 38/29/10 39/30/10
f 28/31/4 27/32/4 23/33/4 25/21/4 6/26/4 5/34/4
f 22/24/4 21/35/4 17/36/4 19/37/4 11/38/4 12/25/4
f 19/37/4 18/39/4 26/40/4 28/31/4 5/34/4 11/38/4
f 17/36/4 18/39/4 19/37/4
f 20/23/4 21/35/4 22/24/4
f 23/33/4 24/22/4 25/21/4
f 26/40/4 27/32/4 28/31/4
f 53/41/2 30/42/2 29/19/8 54/18/8
f 55/14/6 21/43/6 20/44/7 56/17/7
f 57/45/11 32/46/11 31/3/3 58/2/3
f 59/47/12 18/48/12 17/49/5 60/13/5
f 57/45/11 59/47/12 33/50/12 32/46/11
f 40/51/13 37/52/13 15/53/14 16/54/14
f 10/55/15 7/56/15 8/28/9 9/27/9
f 39/30/10 38/29/10 37/52/13 40/51/13
f 10/55/15 13/57/16 14/58/16 7/56/15
f 43/59/9 42/60/9 50/61/10 51/62/10
f 52/63/13 49/64/13 47/65/14 48/66/14
f 44/67/15 41/68/15 42/60/9 43/59/9
f 51/62/10 50/61/10 49/64/13 52/63/13
f 44/67/15 45/69/16 46/70/16 41/68/15
f 26/71/11 18/48/12 59/47/12 57/45/11
f 33/50/12 59/47/12 60/13/5 34/16/5
f 26/71/11 57/45/11 58/2/3 27/72/3
f 35/15/6 55/14/6 56/17/7 36/20/7
f 23/73/2 53/41/2 54/18/8 24/74/8
f 20/44/7 24/74/8 54/18/8 56/17/7
f 17/49/5 21/43/6 55/14/6 60/13/5
f 23/75/2 27/72/3 58/2/3 53/1/2
f 71/76/3 72/77/17 63/78/17 64/79/3
f 75/80/8 76/81/18 61/82/18 62/83/8
f 67/84/19 73/85/19 75/86/8 62/87/8
f 67/84/19 68/88/6 74/89/6 73/85/19
f 65/90/5 66/91/12 70/92/12 69/93/5
f 63/78/17 72/77/17 70/92/12 66/91/12
f 61/82/18 76/81/18 71/76/3 64/79/3
f 65/94/5 69/95/5 74/89/6 68/88/6
f 79/96/20 80/97/20 92/98/21 95/99/21
f 84/100/22 87/101/22 83/102/22 85/103/22 81/104/22 86/105/22 82/106/22 88/107/22
f 70/108/22 72/109/22 86/105/22 81/104/22
f 71/110/22 76/111/22 88/107/22 82/106/22
f 62/112/4 61/113/4 89/114/4
f 67/115/4 62/112/4 89/114/4 96/116/4
f 74/117/22 69/118/22 85/103/22 83/102/22
f 64/119/4 63/120/4 91/121/4
f 75/122/22 73/123/22 87/101/22 84/100/22
f 61/113/4 64/119/4 91/121/4 89/114/4
f 66/124/4 65/125/4 93/126/4
f 76/111/22 75/122/22 84/100/22 88/107/22
f 63/120/4 66/124/4 93/126/4 91/121/4
f 68/127/4 67/115/4 96/116/4
f 73/123/22 74/117/22 83/102/22 87/101/22
f 65/125/4 68/127/4 96/116/4 93/126/4
f 72/109/22 71/110/22 82/106/22 86/105/22
f 69/118/22 70/108/22 81/104/22 85/103/22
f 77/128/23 78/129/24 94/130/25 90/131/25
f 78/129/26 79/96/26 95/99/26 94/130/26
f 80/97/16 77/128/16 90/131/16 92/98/16
f 90/131/25 94/130/25 95/99/21 92/98/21
f 77/128/23 80/97/20 96/116/4 89/114/4
f 78/129/24 77/128/23 89/114/4 91/121/4
f 79/96/20 78/129/24 91/121/4 93/126/4
f 80/97/20 79/96/20 93/126/4 96/116/4
