# Blender v2.79 (sub 0) OBJ File: 'interiors_modular.blend'
# www.blender.org
mtllib window.mtl
o source.door_frame_01_Plane.087
v 0.743861 0.000000 -0.800869
v 0.743861 2.000000 -0.800869
v -1.057006 2.000000 -0.800869
v -1.057006 0.000000 -0.800869
vn 0.0000 0.0000 1.0000
usemtl default
s 1
f 3//1 4//1 1//1 2//1
o target_window_Plane.035
v 0.587288 0.000000 -0.800869
v -0.900433 2.000000 -0.800869
v 0.587288 2.000000 -0.800869
v -0.900433 0.000000 -0.800869
v -0.685031 1.766042 -0.816256
v 0.577254 1.559611 -0.817058
v 0.537593 0.363284 -0.800869
v -0.890399 1.559611 -0.817058
v -0.850738 0.363284 -0.800869
v 0.371886 1.766042 -0.816256
v -0.156573 1.791097 -0.800869
v -0.156573 2.000000 -0.800869
v 0.743861 0.000000 -0.800869
v 0.743861 2.000000 -0.800869
v 0.743861 1.563728 -0.800869
v 0.743861 0.384923 -0.800869
v -1.057006 2.000000 -0.800869
v -1.057006 0.000000 -0.800869
v -1.057006 1.563728 -0.800869
v -1.057006 0.384923 -0.800869
v 0.343259 0.544130 -0.800869
v -0.890399 0.825312 -0.817058
v 0.577254 0.825312 -0.817058
v -0.656404 0.544130 -0.800869
v -0.156573 0.544130 -0.800869
v 0.743861 0.821195 -0.800869
v -1.057006 0.821195 -0.800869
v 0.534757 0.842758 -0.958514
v 0.340907 0.646218 -0.958514
v 0.340907 1.738705 -0.958514
v 0.534757 1.542165 -0.958514
v -0.156573 0.650610 -0.958514
v -0.654052 0.646218 -0.958514
v -0.654052 1.738705 -0.958514
v -0.156573 1.734313 -0.958514
v -0.847902 0.842758 -0.958514
v -0.847902 1.542165 -0.958514
v -0.672449 1.735918 -0.857969
v -0.857938 1.546279 -0.857169
v 0.534757 1.542165 -0.873357
v 0.359304 1.735918 -0.857969
v -0.156573 1.734313 -0.873357
v 0.359304 0.649005 -0.857969
v 0.544793 0.838643 -0.857169
v -0.857938 0.838643 -0.857169
v -0.672449 0.649005 -0.857969
v -0.156573 0.650610 -0.873357
v -0.663870 1.762473 -1.000000
v -0.871694 1.551924 -1.000000
v 0.558549 1.551924 -1.000000
v 0.350725 1.762473 -1.000000
v -0.156573 1.760029 -1.000000
v 0.350725 0.622450 -1.000000
v 0.558549 0.832998 -1.000000
v -0.871694 0.832998 -1.000000
v -0.663870 0.622450 -1.000000
v -0.156573 0.624894 -1.000000
v -0.900433 0.384923 -0.800869
v -0.850738 0.049695 -0.800869
v 0.537593 0.049695 -0.800869
v 0.587288 0.384923 -0.800869
v -0.156573 0.593825 -0.800869
v -0.685031 0.618881 -0.816256
v 0.371886 0.618881 -0.816256
v -0.850738 0.049695 -0.818673
v 0.537593 0.049695 -0.818673
v -0.850738 0.363284 -0.818673
v 0.537593 0.363284 -0.818673
v -0.156573 0.544130 -0.818673
v -0.656404 0.544130 -0.818673
v 0.343259 0.544130 -0.818673
v -0.675950 1.791097 -0.800869
v -0.900433 1.563728 -0.800869
v 0.587288 1.563728 -0.800869
v 0.362805 1.791097 -0.800869
v 0.362805 0.593825 -0.800869
v 0.587288 0.821195 -0.800869
v -0.900433 0.821195 -0.800869
v -0.675950 0.593825 -0.800869
v 0.340907 1.738705 -0.873357
v -0.654052 1.738705 -0.873357
v -0.847902 1.542165 -0.873357
v 0.544793 1.546279 -0.857169
v 0.340907 0.646218 -0.873357
v 0.534757 0.842758 -0.873357
v -0.847902 0.842758 -0.873357
v -0.654052 0.646218 -0.873357
v 0.555650 0.834133 -0.867168
v 0.588111 0.820800 -0.827057
v 0.588111 1.564122 -0.827057
v 0.555650 1.550790 -0.867168
v -0.901256 0.820800 -0.827057
v -0.868796 0.834133 -0.867168
v -0.868796 1.550790 -0.867168
v -0.901256 1.564122 -0.827057
v -0.693757 1.774653 -0.825632
v 0.380612 1.774653 -0.825632
v 0.380612 0.610270 -0.825632
v -0.693757 0.610270 -0.825632
v 0.368030 1.744529 -0.867346
v -0.681175 1.744529 -0.867346
v 0.368030 0.640394 -0.867346
v -0.681175 0.640394 -0.867346
vt 0.763436 0.965189
vt 0.432575 0.988521
vt 0.428856 0.895995
vt 0.655777 0.875050
vt 0.083567 0.993136
vt 0.193667 0.888843
vt 0.759279 0.765290
vt 0.079146 0.775860
vt 0.831304 0.765757
vt 0.834587 0.964010
vt 0.768907 0.203111
vt 0.765240 0.007293
vt 0.848953 0.002163
vt 0.849056 0.203841
vt 0.766441 0.423383
vt 0.841995 0.424731
vt 0.002163 0.997837
vt 0.002813 0.776193
vt 0.076612 0.032901
vt 0.080052 0.215902
vt 0.004876 0.217027
vt 0.002165 0.034003
vt 0.081480 0.428448
vt 0.006723 0.428025
vt 0.646741 0.281711
vt 0.422307 0.278505
vt 0.422563 0.272805
vt 0.646066 0.272536
vt 0.192128 0.316272
vt 0.653369 0.307781
vt 0.127863 0.750657
vt 0.128429 0.451681
vt 0.157869 0.464562
vt 0.157598 0.737205
vt 0.089521 0.432402
vt 0.188467 0.331744
vt 0.186741 0.335963
vt 0.094233 0.435063
vt 0.427492 0.857989
vt 0.213564 0.846326
vt 0.231436 0.815952
vt 0.426379 0.823983
vt 0.201350 0.354911
vt 0.121245 0.447792
vt 0.115640 0.444488
vt 0.196894 0.354656
vt 0.657250 0.323831
vt 0.757974 0.427233
vt 0.752926 0.429870
vt 0.659087 0.328241
vt 0.211791 0.356199
vt 0.422677 0.336431
vt 0.422973 0.370490
vt 0.229444 0.385085
vt 0.725109 0.442280
vt 0.644238 0.347855
vt 0.648763 0.347470
vt 0.731052 0.439073
vt 0.716137 0.742704
vt 0.635623 0.836747
vt 0.617901 0.809022
vt 0.687540 0.730135
vt 0.633658 0.349413
vt 0.615756 0.379005
vt 0.170098 0.471001
vt 0.170037 0.730402
vt 0.241262 0.802951
vt 0.425593 0.804540
vt 0.423067 0.389990
vt 0.238757 0.396943
vt 0.608497 0.798030
vt 0.675949 0.723801
vt 0.605997 0.391361
vt 0.687852 0.458874
vt 0.675383 0.465264
vt 0.422331 0.298377
vt 0.752033 0.761481
vt 0.658883 0.859999
vt 0.660425 0.855858
vt 0.747962 0.758918
vt 0.717592 0.446065
vt 0.645878 0.837787
vt 0.722638 0.746533
vt 0.727570 0.749778
vt 0.650238 0.837942
vt 0.100560 0.055668
vt 0.103418 0.205202
vt 0.740663 0.034464
vt 0.743763 0.191433
vt 0.199140 0.290772
vt 0.110039 0.202113
vt 0.104871 0.059628
vt 0.735337 0.040928
vt 0.736335 0.187361
vt 0.200649 0.281991
vt 0.087550 0.771496
vt 0.189757 0.872680
vt 0.202785 0.848148
vt 0.120338 0.754898
vt 0.092551 0.768437
vt 0.114399 0.758552
vt 0.187950 0.868200
vt 0.198147 0.848661
vn -0.0000 0.0000 1.0000
vn -0.3660 -0.9306 0.0000
vn 0.0000 -1.0000 0.0000
vn 0.8769 -0.3565 0.3225
vn 0.8769 0.3565 0.3225
vn 0.8846 0.3630 -0.2929
vn 0.8846 -0.3630 -0.2929
vn 0.5864 0.2320 -0.7761
vn 0.4579 0.4493 -0.7671
vn 0.5862 0.2324 -0.7761
vn 0.0000 -0.9486 0.3164
vn 0.3602 -0.8626 0.3552
vn 0.3657 -0.8814 -0.2990
vn 0.0000 -0.9643 -0.2650
vn -0.4587 -0.4483 0.7672
vn -0.5870 -0.2308 0.7760
vn -0.5861 -0.2328 0.7761
vn -0.4579 0.4493 -0.7671
vn -0.5864 0.2320 -0.7761
vn -0.5862 0.2324 -0.7761
vn 0.3602 0.8626 0.3552
vn 0.0000 0.9486 0.3164
vn 0.0000 0.9643 -0.2650
vn 0.3657 0.8814 -0.2990
vn 0.5870 -0.2308 0.7760
vn 0.4587 -0.4483 0.7672
vn 0.5861 -0.2328 0.7761
vn -0.8769 -0.3565 0.3225
vn -0.3602 -0.8626 0.3552
vn -0.3657 -0.8814 -0.2990
vn -0.8846 -0.3630 -0.2929
vn -0.3052 -0.7247 0.6178
vn -0.0000 -0.7991 0.6012
vn -0.3602 0.8626 0.3552
vn -0.3657 0.8814 -0.2990
vn 0.7866 0.3228 -0.5264
vn 0.7866 -0.3228 -0.5264
vn 0.3247 -0.7798 -0.5353
vn 0.0000 -0.8592 -0.5117
vn 0.0000 0.8592 -0.5117
vn 0.3247 0.7798 -0.5353
vn -0.3247 -0.7798 -0.5353
vn -0.7866 -0.3228 -0.5264
vn -0.3247 0.7798 -0.5353
vn -0.8846 0.3630 -0.2929
vn -0.7866 0.3228 -0.5264
vn 0.3052 0.7247 0.6178
vn 0.0000 0.7991 0.6012
vn -0.5864 -0.2320 -0.7761
vn -0.4579 -0.4493 -0.7671
vn -0.5862 -0.2324 -0.7761
vn -0.8769 0.3565 0.3225
vn -0.3052 0.7247 0.6178
vn 0.3052 -0.7247 0.6178
vn 0.4587 0.4483 0.7672
vn 0.5870 0.2308 0.7760
vn 0.5861 0.2328 0.7761
vn 0.0000 1.0000 0.0000
vn -1.0000 0.0000 0.0000
vn -0.9169 -0.3992 0.0000
vn 0.9169 -0.3992 0.0000
vn 1.0000 0.0000 0.0000
vn 0.3660 -0.9306 0.0000
vn 0.7595 -0.3086 0.5726
vn 0.5831 -0.5771 0.5718
vn 0.7596 -0.3086 0.5726
vn -0.5831 -0.5771 0.5718
vn -0.7595 -0.3086 0.5726
vn -0.7596 -0.3086 0.5726
vn -0.7595 0.3086 0.5726
vn -0.5831 0.5771 0.5718
vn -0.7596 0.3086 0.5726
vn 0.5831 0.5771 0.5718
vn 0.7595 0.3086 0.5726
vn 0.7596 0.3086 0.5726
vn -0.5849 -0.5752 0.5719
vn 0.5849 -0.5752 0.5719
vn 0.7608 -0.3063 0.5722
vn -0.7608 -0.3063 0.5722
vn -0.5849 0.5752 0.5719
vn -0.7608 0.3063 0.5722
vn 0.7608 0.3063 0.5722
vn 0.5849 0.5752 0.5719
vn 0.7039 0.2918 0.6476
vn 0.5671 0.5561 0.6075
vn 0.7043 0.2908 0.6476
vn 0.7039 -0.2918 0.6476
vn 0.7043 -0.2908 0.6476
vn -0.5671 0.5561 0.6075
vn -0.7039 0.2918 0.6476
vn -0.7043 0.2908 0.6476
vn -0.7039 -0.2918 0.6476
vn -0.7043 -0.2908 0.6476
vn 0.5671 -0.5561 0.6075
vn -0.5671 -0.5561 0.6075
vn -0.5870 0.2308 0.7760
vn -0.5861 0.2328 0.7761
vn 0.5864 -0.2320 -0.7761
vn 0.5862 -0.2324 -0.7761
vn 0.7851 0.5897 0.1891
vn 0.7851 -0.5897 0.1891
vn -0.7851 0.5897 0.1891
vn -0.4587 0.4483 0.7672
vn 0.4579 -0.4493 -0.7671
vn -0.7852 -0.5897 0.1891
usemtl door
s 1
f 7/1/2 16/2/2 15/3/2 79/4/2
f 15/3/2 16/2/2 6/5/2 76/6/2
f 7/1/2 79/4/2 78/7/2
f 6/5/2 77/8/2 76/6/2
f 7/1/2 78/7/2 19/9/2 18/10/2
f 65/11/2 5/12/2 17/13/2 20/14/2
f 78/7/2 81/15/2 30/16/2 19/9/2
f 77/8/2 6/5/2 21/17/2 23/18/2
f 8/19/2 62/20/2 24/21/2 22/22/2
f 62/20/2 82/23/2 31/24/2 24/21/2
f 25/25/3 29/26/4 73/27/4 75/28/3
f 62/20/2 83/29/2 82/23/2
f 65/11/2 81/15/2 80/30/2
f 30/16/2 81/15/2 65/11/2 20/14/2
f 31/24/2 82/23/2 77/8/2 23/18/2
f 86/31/5 90/32/6 40/33/7 41/34/8
f 26/35/9 67/36/10 103/37/10 96/38/11
f 46/39/12 85/40/13 38/41/14 39/42/15
f 50/43/16 49/44/17 97/45/18 107/46/16
f 68/47/19 27/48/20 93/49/21 102/50/19
f 91/51/22 51/52/23 36/53/24 37/54/25
f 48/55/26 47/56/27 106/57/27 92/58/28
f 44/59/29 84/60/30 34/61/31 35/62/32
f 79/4/33 15/3/34 46/39/12 84/60/30
f 51/52/23 88/63/35 33/64/36 36/53/24
f 41/34/8 40/33/7 59/65/37 53/66/38
f 39/42/15 38/41/14 52/67/39 56/68/40
f 37/54/25 36/53/24 61/69/41 60/70/42
f 35/62/32 34/61/31 55/71/43 54/72/44
f 36/53/24 33/64/36 57/73/45 61/69/41
f 34/61/31 39/42/15 56/68/40 55/71/43
f 33/64/36 32/74/46 58/75/47 57/73/45
f 38/41/14 41/34/8 53/66/38 52/67/39
f 32/74/46 35/62/32 54/72/44 58/75/47
f 40/33/7 37/54/25 60/70/42 59/65/37
f 83/29/48 66/76/49 51/52/23 91/51/22
f 84/60/30 46/39/12 39/42/15 34/61/31
f 10/77/50 14/78/51 101/79/51 94/80/52
f 88/63/35 89/81/53 32/74/46 33/64/36
f 66/76/49 80/30/54 88/63/35 51/52/23
f 85/40/13 86/31/5 41/34/8 38/41/14
f 15/3/34 76/6/55 85/40/13 46/39/12
f 89/81/53 44/59/29 35/62/32 32/74/46
f 90/32/6 91/51/22 37/54/25 40/33/7
f 45/82/56 87/83/57 95/84/58 104/85/56
f 63/86/2 13/87/2 62/20/2 8/19/2
f 64/88/2 63/86/2 8/19/2 5/12/2
f 11/89/2 64/88/2 5/12/2 65/11/2
f 28/90/2 29/26/2 66/76/2 83/29/2
f 29/26/2 25/25/2 80/30/2 66/76/2
f 13/87/2 28/90/2 83/29/2 62/20/2
f 25/25/2 11/89/2 65/11/2 80/30/2
f 71/91/2 69/92/2 70/93/2 72/94/2 75/28/2 73/27/2 74/95/2
f 63/86/59 64/88/59 70/93/59 69/92/59
f 64/88/60 11/89/61 72/94/61 70/93/60
f 13/87/62 63/86/63 69/92/63 71/91/62
f 28/90/64 13/87/62 71/91/62 74/95/64
f 29/26/4 28/90/64 74/95/64 73/27/4
f 11/89/61 25/25/3 75/28/3 72/94/61
f 12/96/65 9/97/66 76/6/55 77/8/67
f 14/78/68 10/77/69 78/7/70 79/4/33
f 27/48/71 68/47/72 80/30/54 81/15/73
f 67/36/74 26/35/75 82/23/76 83/29/48
f 10/77/69 27/48/71 81/15/73 78/7/70
f 26/35/75 12/96/65 77/8/67 82/23/76
f 45/82/77 14/78/68 79/4/33 84/60/30
f 42/98/78 43/99/79 86/31/5 85/40/13
f 87/83/80 45/82/77 84/60/30 44/59/29
f 47/56/81 48/55/82 89/81/53 88/63/35
f 49/44/83 50/43/84 91/51/22 90/32/6
f 48/55/82 87/83/80 44/59/29 89/81/53
f 43/99/79 49/44/83 90/32/6 86/31/5
f 68/47/72 47/56/81 88/63/35 80/30/54
f 50/43/84 67/36/74 83/29/48 91/51/22
f 9/97/66 42/98/78 85/40/13 76/6/55
f 96/38/85 103/37/86 107/46/86 97/45/87
f 99/100/88 96/38/85 97/45/87 98/101/89
f 102/50/90 93/49/91 92/58/92 106/57/90
f 93/49/91 94/80/93 95/84/94 92/58/92
f 100/102/95 99/100/88 98/101/89 105/103/95
f 94/80/93 101/79/96 104/85/96 95/84/94
f 87/83/57 48/55/26 92/58/28 95/84/58
f 27/48/20 10/77/50 94/80/52 93/49/21
f 49/44/17 43/99/97 98/101/98 97/45/18
f 12/96/99 26/35/9 96/38/11 99/100/100
f 47/56/101 68/47/101 102/50/101 106/57/101
f 14/78/102 45/82/102 104/85/102 101/79/102
f 67/36/103 50/43/103 107/46/103 103/37/103
f 43/99/97 42/98/104 105/103/104 98/101/98
f 9/97/105 12/96/99 99/100/100 100/102/105
f 42/98/106 9/97/106 100/102/106 105/103/106
