# Blender v2.79 (sub 0) OBJ File: 'figures_2.blend'
# www.blender.org
mtllib fcell_door01.mtl
o source.010_Cube.028
v 5.000000 0.000000 0.000000
v 5.000000 2.000000 0.000000
v 7.000000 0.000000 0.000000
v 7.000000 2.000000 0.000000
vn 0.0000 0.0000 -1.0000
usemtl None
s off
f 1//1 2//1 4//1 3//1
o target_ffcompl_01_Cube.010
v 5.000000 0.000000 0.000000
v 7.000000 0.000000 0.000000
v 7.000000 2.000000 0.000000
v 5.000000 2.000000 0.000000
v 5.000000 1.846642 0.000000
v 5.000000 0.398633 0.000000
v 7.000000 1.846642 0.000000
v 7.000000 0.398633 0.000000
v 6.303051 1.789054 0.000000
v 5.696949 1.789054 0.000000
v 5.696949 0.000000 0.000000
v 6.303051 0.000000 0.000000
v 5.696949 0.398633 0.000000
v 5.057588 1.789054 0.000000
v 5.057588 0.398633 0.000000
v 6.942412 1.789054 0.000000
v 6.942412 0.398633 0.000000
v 6.303051 0.398633 0.000000
v 5.696949 1.846642 0.000000
v 6.303051 1.846642 0.000000
v 5.057588 1.600938 0.000000
v 6.942412 1.600938 0.000000
v 5.057588 1.600938 0.033976
v 5.057588 0.398633 0.033976
v 6.942412 1.600938 0.033976
v 6.942412 0.398633 0.033976
v 6.303051 0.000000 0.033976
v 5.696949 0.000000 0.033976
v 5.696949 0.398633 0.033976
v 6.303051 0.398633 0.033976
v 6.942412 1.789054 0.033976
v 5.057588 1.789054 0.033976
v 5.696949 1.789054 0.033976
v 6.303051 1.789054 0.033976
v 6.303051 1.600938 0.033976
v 5.696949 1.600938 0.033976
v 6.857152 1.789054 0.033976
v 5.142848 1.789054 0.033976
v 6.857152 0.398633 0.033976
v 5.142848 0.398633 0.033976
v 5.142848 1.600938 0.033976
v 6.857152 1.600938 0.033976
v 6.580102 1.600938 0.033976
v 5.419898 1.600938 0.033976
v 5.419898 1.789054 0.033976
v 6.580102 1.789054 0.033976
v 6.303051 0.000000 0.268014
v 5.696949 0.000000 0.268014
v 5.696949 0.398633 0.268014
v 6.303051 0.398633 0.268014
v 5.696949 1.600938 0.268014
v 6.303051 1.600938 0.268014
v 6.303051 0.199317 0.268014
v 5.696949 0.199317 0.268014
v 6.303051 0.199317 0.289426
v 6.303051 0.398633 0.289426
v 5.696949 1.600938 0.289426
v 5.696949 0.398633 0.289426
v 6.303051 1.600938 0.289426
v 5.696949 0.199317 0.289426
v 6.320567 1.618454 0.033976
v 6.320567 1.771538 0.033976
v 6.562585 1.771538 0.033976
v 6.562585 1.618454 0.033976
v 5.714465 1.618454 0.033976
v 5.714465 1.771538 0.033976
v 6.285535 1.771538 0.033976
v 6.285535 1.618454 0.033976
v 6.303051 1.583421 0.051492
v 6.303051 0.416150 0.051492
v 6.303051 0.416150 0.250498
v 6.303051 1.583421 0.250498
v 5.160364 0.416150 0.033976
v 5.160364 1.583421 0.033976
v 5.419898 1.583421 0.033976
v 5.679433 1.583421 0.033976
v 5.679433 0.416150 0.033976
v 6.320567 0.416150 0.033976
v 6.320567 1.583421 0.033976
v 6.580102 1.583421 0.033976
v 6.839636 1.583421 0.033976
v 6.839636 0.416150 0.033976
v 5.437415 1.618454 0.033976
v 5.437415 1.771538 0.033976
v 5.679433 1.771538 0.033976
v 5.679433 1.618454 0.033976
v 5.160364 1.618454 0.033976
v 5.160364 1.771538 0.033976
v 5.402382 1.771538 0.033976
v 5.402382 1.618454 0.033976
v 6.597618 1.618454 0.033976
v 6.597618 1.771538 0.033976
v 6.839636 1.771538 0.033976
v 6.839636 1.618454 0.033976
v 5.696949 0.416150 0.051492
v 5.696949 1.583421 0.051492
v 5.696949 1.583421 0.250498
v 5.696949 0.416150 0.250498
v 6.320567 1.618454 0.044967
v 6.320567 1.771538 0.044967
v 6.562585 1.618454 0.044967
v 6.562585 1.771538 0.044967
v 5.714465 1.771538 0.044967
v 5.714465 1.618454 0.044967
v 6.285535 1.618454 0.044967
v 6.285535 1.771538 0.044967
v 6.314042 0.416150 0.051492
v 6.314042 1.583421 0.051492
v 6.314042 1.583421 0.250498
v 6.314042 0.416150 0.250498
v 5.160364 1.583421 0.044967
v 5.160364 0.416150 0.044967
v 5.679433 0.416150 0.044967
v 5.419898 1.583421 0.044967
v 5.679433 1.583421 0.044967
v 6.320567 0.416150 0.044967
v 6.320567 1.583421 0.044967
v 6.839636 0.416150 0.044967
v 6.580102 1.583421 0.044967
v 6.839636 1.583421 0.044967
v 5.437415 1.771538 0.044967
v 5.437415 1.618454 0.044967
v 5.679433 1.618454 0.044967
v 5.679433 1.771538 0.044967
v 5.160364 1.771538 0.044967
v 5.160364 1.618454 0.044967
v 5.402382 1.618454 0.044967
v 5.402382 1.771538 0.044967
v 6.597618 1.771538 0.044967
v 6.597618 1.618454 0.044967
v 6.839636 1.618454 0.044967
v 6.839636 1.771538 0.044967
v 5.685958 1.583421 0.051492
v 5.685958 0.416150 0.051492
v 5.685958 0.416150 0.250498
v 5.685958 1.583421 0.250498
v 5.000000 2.000000 -0.044594
v 7.000000 2.000000 -0.044594
v 5.000000 1.846642 -0.120926
v 7.000000 1.846642 -0.120926
vn 0.0000 -1.0000 0.0000
vn -1.0000 0.0000 0.0000
vn -0.0000 1.0000 -0.0000
vn 0.0000 0.0000 -1.0000
vn 1.0000 0.0000 0.0000
vn 0.0000 0.4456 -0.8952
vn 0.0000 0.0000 1.0000
usemtl wall
s off
f 23//2 9//2 143//2 144//2 11//2 24//2
f 20//3 26//3 29//3 35//3
f 18//2 14//2 37//2 49//2 42//2 36//2
f 17//4 19//4 28//4 44//4 33//4
f 13//2 20//2 35//2 41//2 50//2 38//2
f 18//5 25//5 19//5 10//5 9//5
f 21//5 26//5 20//5 11//5 12//5
f 13//5 14//5 23//5 24//5
f 20//5 13//5 24//5 11//5
f 14//5 18//5 9//5 23//5
f 5//5 10//5 19//5 17//5 15//5
f 6//5 16//5 22//5 21//5 12//5
f 19//6 25//6 27//6 28//6
f 21//4 22//4 34//4 43//4 30//4
f 16//4 15//4 32//4 31//4
f 31//4 32//4 52//4 51//4
f 46//5 41//5 35//5 29//5
f 43//5 46//5 29//5 30//5
f 22//3 16//3 31//3 34//3
f 26//3 21//3 30//3 29//3
f 25//6 18//6 36//6 27//6
f 14//2 13//2 38//2 37//2
f 15//6 17//6 33//6 32//6
f 28//5 27//5 45//5 44//5
f 27//5 36//5 42//5 45//5
f 32//6 33//6 53//6 58//6 52//6
f 34//3 31//3 51//3 57//3 54//3
f 58//5 57//5 51//5 52//5
f 143//7 141//7 142//7 144//7
f 7//6 11//6 144//6 142//6
f 9//3 8//3 141//3 143//3
f 8//4 7//4 142//4 141//4
usemtl frame
f 92//2 93//2 132//2 129//2
f 79//2 80//2 119//2 118//2
f 65//6 66//6 104//6 103//6
f 94//4 91//4 130//4 131//4
f 78//2 79//2 118//2 115//2
f 91//6 92//6 129//6 130//6
f 55//2 56//2 63//2 61//2
f 81//4 77//4 116//4 117//4
f 85//3 86//3 122//3 124//3
f 71//3 72//3 109//3 110//3
f 40//2 39//2 56//2 55//2
f 53//6 55//6 61//6 62//6
f 57//4 58//4 64//4 59//4
f 54//3 57//3 59//3 60//3
f 56//3 54//3 60//3 63//3
f 58//6 53//6 62//6 64//6
f 39//5 38//5 66//5 65//5
f 38//5 50//5 67//5 66//5
f 50//5 47//5 68//5 67//5
f 47//5 39//5 65//5 68//5
f 40//5 37//5 70//5 69//5
f 37//5 38//5 71//5 70//5
f 38//5 39//5 72//5 71//5
f 39//5 40//5 69//5 72//5
f 39//3 34//3 74//3 73//3
f 34//3 54//3 75//3 74//3
f 54//3 56//3 76//3 75//3
f 56//3 39//3 73//3 76//3
f 44//5 45//5 78//5 77//5
f 45//5 48//5 79//5 78//5
f 48//5 40//5 80//5 79//5
f 40//5 33//5 81//5 80//5
f 33//5 44//5 77//5 81//5
f 34//5 39//5 83//5 82//5
f 39//5 47//5 84//5 83//5
f 47//5 46//5 85//5 84//5
f 46//5 43//5 86//5 85//5
f 43//5 34//5 82//5 86//5
f 48//5 49//5 88//5 87//5
f 49//5 37//5 89//5 88//5
f 37//5 40//5 90//5 89//5
f 40//5 48//5 87//5 90//5
f 45//5 42//5 92//5 91//5
f 42//5 49//5 93//5 92//5
f 49//5 48//5 94//5 93//5
f 48//5 45//5 91//5 94//5
f 47//5 50//5 96//5 95//5
f 50//5 41//5 97//5 96//5
f 41//5 46//5 98//5 97//5
f 46//5 47//5 95//5 98//5
f 33//6 40//6 100//6 99//6
f 40//6 55//6 101//6 100//6
f 55//6 53//6 102//6 101//6
f 53//6 33//6 99//6 102//6
f 99//8 100//8 137//8 138//8
f 68//4 65//4 103//4 105//4
f 80//3 81//3 117//3 119//3
f 93//3 94//3 131//3 132//3
f 102//4 99//4 138//4 139//4
f 66//2 67//2 106//2 104//2
f 73//8 74//8 111//8 112//8
f 100//2 101//2 140//2 137//2
f 67//3 68//3 105//3 106//3
f 76//2 73//2 112//2 113//2
f 87//6 88//6 125//6 126//6
f 101//5 102//5 139//5 140//5
f 74//4 75//4 114//4 111//4
f 90//4 87//4 126//4 127//4
f 75//5 76//5 113//5 114//5
f 88//2 89//2 128//2 125//2
f 95//6 96//6 133//6 134//6
f 89//3 90//3 127//3 128//3
f 82//6 83//6 121//6 120//6
f 98//4 95//4 134//4 135//4
f 69//6 70//6 107//6 108//6
f 86//4 82//4 120//4 122//4
f 96//2 97//2 136//2 133//2
f 72//4 69//4 108//4 109//4
f 83//2 84//2 123//2 121//2
f 97//3 98//3 135//3 136//3
f 70//2 71//2 110//2 107//2
f 84//2 85//2 124//2 123//2
f 77//6 78//6 115//6 116//6
usemtl window
f 103//5 104//5 106//5 105//5
f 108//5 107//5 110//5 109//5
f 112//3 111//3 114//3 113//3
f 116//5 115//5 118//5 119//5 117//5
f 120//5 121//5 123//5 124//5 122//5
f 126//5 125//5 128//5 127//5
f 130//5 129//5 132//5 131//5
f 134//5 133//5 136//5 135//5
f 138//6 137//6 140//6 139//6
usemtl door
f 62//5 61//5 63//5 60//5 59//5 64//5
