# Blender v2.79 (sub 0) OBJ File: 'figures_2.blend'
# www.blender.org
mtllib fcell_special01.mtl
o source.013_Cube.031
v -12.187157 0.000000 0.000000
v -12.187157 3.723977 0.000000
v -7.812843 0.000000 0.000000
v -7.812843 3.723977 0.000000
vn 0.0000 0.0000 -1.0000
usemtl None
s off
f 1//1 2//1 4//1 3//1
o target_special01_Cube.032
v -12.187157 0.000001 0.000000
v -12.187157 3.723977 0.000000
v -7.812843 0.000001 0.000000
v -7.812843 3.723977 0.000000
v -12.187157 1.536821 -0.000000
v -12.145132 1.963514 -0.000000
v -12.020670 2.373809 -0.000000
v -11.818555 2.751940 -0.000000
v -11.546554 3.083375 -0.000000
v -11.215119 3.355376 -0.000000
v -10.836988 3.557491 -0.000000
v -10.426693 3.681953 -0.000000
v -9.999999 3.723978 -0.000000
v -9.573306 3.681952 -0.000000
v -9.163011 3.557490 -0.000000
v -8.784880 3.355375 -0.000000
v -8.453445 3.083374 -0.000000
v -8.181444 2.751939 -0.000000
v -7.979330 2.373808 -0.000000
v -7.854868 1.963512 -0.000000
v -7.812843 1.536819 -0.000000
v -11.963872 1.536821 -0.000000
v -11.926137 1.919953 -0.000000
v -11.814381 2.288362 -0.000000
v -11.632900 2.627890 -0.000000
v -11.388667 2.925488 -0.000000
v -11.091068 3.169721 -0.000000
v -10.751541 3.351202 -0.000000
v -10.383132 3.462958 -0.000000
v -9.999999 3.500692 -0.000000
v -9.616867 3.462957 -0.000000
v -9.248458 3.351202 -0.000000
v -8.908931 3.169720 -0.000000
v -8.611332 2.925487 -0.000000
v -8.367100 2.627888 -0.000000
v -8.185618 2.288361 -0.000000
v -8.073863 1.919952 -0.000000
v -8.036129 1.536819 -0.000000
v -8.036129 -0.000000 -0.000000
v -11.963872 0.000001 -0.000000
v -11.926137 1.919953 0.505833
v -11.963872 1.536821 0.505833
v -11.814381 2.288362 0.505833
v -11.632900 2.627890 0.505833
v -11.388667 2.925488 0.505833
v -11.091068 3.169721 0.505833
v -10.751541 3.351202 0.505833
v -10.383132 3.462958 0.505833
v -9.999999 3.500692 0.505833
v -9.616867 3.462957 0.505833
v -9.248458 3.351202 0.505833
v -8.908931 3.169720 0.505833
v -8.611332 2.925487 0.505833
v -8.367100 2.627888 0.505833
v -8.185618 2.288361 0.505833
v -8.073863 1.919952 0.505833
v -8.036129 1.536819 0.505833
v -11.963872 0.000001 0.505833
v -8.036129 -0.000000 0.505833
v -11.926137 1.919953 1.459283
v -11.963872 1.536821 1.459283
v -11.814381 2.288362 1.459283
v -11.632900 2.627890 1.459283
v -11.388667 2.925488 1.459283
v -11.091068 3.169721 1.459283
v -10.751541 3.351202 1.459283
v -10.383132 3.462958 1.459283
v -9.999999 3.500692 1.459283
v -9.616867 3.462957 1.459283
v -9.248458 3.351202 1.459283
v -8.908931 3.169720 1.459283
v -8.611332 2.925487 1.459283
v -8.367100 2.627888 1.459283
v -8.185618 2.288361 1.459283
v -8.073863 1.919952 1.459283
v -8.036129 1.536819 1.459283
v -11.963872 0.000001 1.459283
v -8.036129 -0.000000 1.459283
v -12.201246 1.974676 0.505833
v -12.244033 1.550585 0.505833
v -12.073528 2.395704 0.505833
v -11.866126 2.783726 0.505833
v -11.587009 3.123831 0.505833
v -11.246905 3.402947 0.505833
v -10.858883 3.610349 0.505833
v -10.437855 3.738067 0.505833
v -9.999999 3.781191 0.505833
v -9.562144 3.738067 0.505833
v -9.141115 3.610349 0.505833
v -8.753094 3.402946 0.505833
v -8.412989 3.123830 0.505833
v -8.133873 2.783725 0.505833
v -7.926471 2.395703 0.505833
v -7.798754 1.974674 0.505833
v -7.755967 1.550582 0.505833
v -12.244370 0.000001 0.505833
v -7.755630 -0.000000 0.505833
v -12.201246 1.974676 1.459283
v -12.244033 1.550585 1.459283
v -12.073528 2.395704 1.459283
v -11.866126 2.783726 1.459283
v -11.587009 3.123831 1.459283
v -11.246905 3.402947 1.459283
v -10.858883 3.610349 1.459283
v -10.437855 3.738067 1.459283
v -9.999999 3.781191 1.459283
v -9.562144 3.738067 1.459283
v -9.141115 3.610349 1.459283
v -8.753094 3.402946 1.459283
v -8.412989 3.123830 1.459283
v -8.133873 2.783725 1.459283
v -7.926471 2.395703 1.459283
v -7.798754 1.974674 1.459283
v -7.755967 1.550582 1.459283
v -12.244370 0.000001 1.459283
v -7.755630 -0.000000 1.459283
v -11.894832 1.914745 1.620586
v -11.929152 1.568290 1.620586
v -11.769762 2.305081 1.620586
v -11.606062 2.610986 1.620586
v -11.365740 2.903594 1.620586
v -11.045048 3.158637 1.620586
v -10.739058 3.322104 1.620586
v -10.376760 3.431964 1.620586
v -10.031468 3.465972 1.620586
v -9.623240 3.431964 1.620586
v -9.260942 3.322104 1.620586
v -8.902540 3.123766 1.620586
v -8.634260 2.903594 1.620586
v -8.393937 2.610986 1.620586
v -8.230238 2.305080 1.620586
v -8.105168 1.914743 1.620586
v -8.070849 1.568288 1.620586
v -11.963872 0.000001 1.620586
v -8.036129 -0.000000 1.620586
v -10.785781 1.730205 1.620586
v -10.725407 1.908548 1.620586
v -10.666452 2.019201 1.620586
v -10.566875 2.140762 1.620586
v -10.417513 2.255490 1.620586
v -10.306866 2.314721 1.620586
v -10.156447 2.360391 1.620586
v -10.031469 2.372700 1.620586
v -9.843553 2.360391 1.620586
v -9.693134 2.314720 1.620586
v -9.530206 2.220433 1.620586
v -9.433125 2.140762 1.620586
v -9.333548 2.019200 1.620586
v -9.274593 1.908548 1.620586
v -9.214219 1.730205 1.620586
v -9.198468 1.568289 1.620586
v -9.226990 -0.000000 1.620586
v -10.773010 0.000000 1.620586
v -10.801532 1.568290 1.620586
v -10.751541 3.351202 1.620586
v -11.097458 3.123767 1.620586
v -10.383132 3.462958 1.620586
v -9.968531 3.465972 1.620586
v -8.611332 2.925487 1.620586
v -8.954951 3.158637 1.620586
v -8.367100 2.627888 1.620586
v -8.205951 2.246980 1.620586
v -10.220160 2.106435 1.654466
v -10.469794 2.220434 1.620586
v -10.112237 2.139173 1.654466
v -9.968531 2.372700 1.620586
v -9.593197 1.981724 1.654466
v -9.582487 2.255490 1.620586
v -9.521650 1.894544 1.654466
v -9.250654 1.850315 1.620586
v -11.632900 2.627890 1.620586
v -11.794048 2.246981 1.620586
v -11.388667 2.925488 1.620586
v -11.091068 3.169721 1.620586
v -9.616867 3.462957 1.620586
v -9.999999 3.500692 1.620586
v -9.248458 3.351202 1.620586
v -8.908931 3.169720 1.620586
v -10.478350 1.894544 1.654466
v -10.749346 1.850315 1.620586
v -10.406803 1.981724 1.654466
v -10.319623 2.053271 1.654466
v -9.887762 2.139173 1.654466
v -10.000000 2.150227 1.654466
v -9.779840 2.106435 1.654466
v -9.680377 2.053271 1.654466
v -11.926137 1.919953 1.620586
v -11.896979 1.469929 1.620586
v -11.814381 2.288362 1.620586
v -8.073863 1.919952 1.620586
v -8.185618 2.288361 1.620586
v -8.103021 1.469927 1.620586
v -10.531513 1.795081 1.654466
v -10.564252 1.687158 1.654466
v -10.839902 1.469929 1.620586
v -9.435749 1.687158 1.654466
v -9.468487 1.795081 1.654466
v -9.160098 1.469928 1.620586
v -11.896979 0.081168 1.620586
v -8.103021 0.081166 1.620586
v -9.160098 0.081167 1.620586
v -10.839902 0.081168 1.620586
v -11.963872 0.081168 1.620586
v -11.963872 1.536821 1.620586
v -10.579960 0.274185 1.654466
v -10.682054 1.536821 1.620586
v -8.036129 1.536819 1.620586
v -9.317947 1.536820 1.620586
v -8.036129 0.081166 1.620586
v -9.420041 0.274184 1.654466
v -10.785781 1.730205 1.671579
v -11.894832 1.914745 1.671579
v -11.606062 2.610986 1.671579
v -10.666452 2.019201 1.671579
v -11.365740 2.903594 1.671579
v -10.566875 2.140762 1.671579
v -10.739058 3.322104 1.671579
v -10.306866 2.314721 1.671579
v -10.376760 3.431964 1.671579
v -10.156447 2.360391 1.671579
v -9.623240 3.431964 1.671579
v -9.843553 2.360391 1.671579
v -9.260942 3.322104 1.671579
v -9.693134 2.314720 1.671579
v -8.634260 2.903594 1.671579
v -9.433125 2.140762 1.671579
v -8.393937 2.610986 1.671579
v -9.333548 2.019200 1.671579
v -8.105168 1.914743 1.671579
v -9.214219 1.730205 1.671579
v -11.045048 3.158637 1.671579
v -10.031468 3.465972 1.671579
v -8.902540 3.123766 1.671579
v -8.230238 2.305080 1.671579
v -10.417513 2.255490 1.671579
v -10.031469 2.372700 1.671579
v -9.530206 2.220433 1.671579
v -9.274593 1.908548 1.671579
v -11.769762 2.305081 1.671579
v -11.097458 3.123767 1.671579
v -9.968531 3.465972 1.671579
v -8.954951 3.158637 1.671579
v -10.725407 1.908548 1.671579
v -10.469794 2.220434 1.671579
v -9.968531 2.372700 1.671579
v -9.582487 2.255490 1.671579
v -11.929152 1.568290 1.671579
v -11.794048 2.246981 1.671579
v -8.205951 2.246980 1.671579
v -8.070849 1.568288 1.671579
v -10.749346 1.850315 1.671579
v -10.801532 1.568290 1.671579
v -9.250654 1.850315 1.671579
v -9.198468 1.568289 1.671579
v -11.896979 0.081168 1.736969
v -11.896979 1.469929 1.736969
v -10.839902 0.081168 1.736969
v -10.839902 1.469929 1.736969
v -8.103021 1.469927 1.736969
v -9.160098 1.469928 1.736969
v -8.103021 0.081166 1.736969
v -9.160098 0.081167 1.736969
v -10.710701 1.869303 1.620586
v -10.754477 1.724996 1.620586
v -10.773010 1.536821 1.620586
v -10.639614 2.002298 1.620586
v -10.543947 2.118869 1.620586
v -10.427376 2.214535 1.620586
v -10.294382 2.285623 1.620586
v -10.150075 2.329397 1.620586
v -10.000000 2.344178 1.620586
v -9.849924 2.329397 1.620586
v -9.705618 2.285622 1.620586
v -9.572623 2.214535 1.620586
v -9.456053 2.118868 1.620586
v -9.360386 2.002297 1.620586
v -9.289299 1.869303 1.620586
v -9.245523 1.724996 1.620586
v -9.226991 1.536820 1.620586
v -10.773010 0.081167 1.620586
v -9.226991 0.081167 1.620586
v -10.626668 1.834496 1.620586
v -10.665267 1.707251 1.620586
v -10.579059 1.536821 1.654466
v -10.563987 1.951765 1.620586
v -10.479631 2.054552 1.620586
v -10.376843 2.138908 1.620586
v -10.259574 2.201590 1.620586
v -10.132330 2.240189 1.620586
v -10.000000 2.253222 1.620586
v -9.867669 2.240188 1.620586
v -9.740425 2.201589 1.620586
v -9.623157 2.138908 1.620586
v -9.520369 2.054552 1.620586
v -9.436013 1.951765 1.620586
v -9.373332 1.834495 1.620586
v -9.334733 1.707251 1.620586
v -9.420942 1.536820 1.654466
v -10.682491 0.171686 1.620586
v -9.317509 0.171685 1.620586
vn 0.0000 -0.0000 -1.0000
vn 1.0000 0.0000 0.0000
vn 0.0000 1.0000 0.0000
vn -0.8819 -0.4714 0.0000
vn 0.2903 -0.9569 0.0000
vn -0.9569 -0.2903 0.0000
vn 0.0980 -0.9952 0.0000
vn -1.0000 0.0000 0.0000
vn 0.9952 -0.0980 0.0000
vn -0.9952 -0.0980 0.0000
vn -0.0980 -0.9952 0.0000
vn 0.9569 -0.2903 0.0000
vn -0.2903 -0.9569 0.0000
vn 0.8819 -0.4714 0.0000
vn -0.4714 -0.8819 0.0000
vn 0.7730 -0.6344 0.0000
vn -0.6344 -0.7730 0.0000
vn 0.6344 -0.7730 0.0000
vn -0.7730 -0.6344 0.0000
vn 0.4714 -0.8819 0.0000
vn 0.0000 0.0000 1.0000
vn -0.9949 -0.1004 0.0000
vn 1.0000 -0.0002 0.0000
vn -1.0000 -0.0002 0.0000
vn 0.9949 -0.1004 0.0000
vn 0.9953 0.0968 0.0000
vn 0.3550 0.9349 0.0000
vn 0.9569 0.2903 0.0000
vn -0.0000 -1.0000 0.0000
vn 0.4719 0.8816 0.0000
vn -0.9953 0.0968 0.0000
vn 0.2905 0.9569 0.0000
vn -0.9569 0.2903 0.0000
vn -0.3550 0.9349 0.0000
vn 0.0980 0.9952 0.0000
vn -0.9951 -0.0986 0.0000
vn 0.8212 -0.5706 0.0000
vn -0.6344 0.7730 0.0000
vn -0.8212 -0.5706 0.0000
vn -0.3550 -0.9349 0.0000
vn 0.3550 -0.9349 0.0000
vn -0.8212 0.5706 0.0000
vn 0.4712 -0.8820 0.0000
vn 0.2902 -0.9570 0.0000
vn -0.7728 -0.6347 0.0000
vn -0.8817 -0.4718 0.0000
vn 0.8817 -0.4718 0.0000
vn -0.4719 0.8816 0.0000
vn 0.7728 -0.6347 0.0000
vn -0.2905 0.9569 0.0000
vn -0.0980 0.9952 0.0000
vn 0.6344 0.7730 0.0000
vn -0.2902 -0.9570 0.0000
vn 0.7736 0.6337 0.0000
vn -0.4712 -0.8820 0.0000
vn 0.8826 0.4702 0.0000
vn 0.9951 -0.0986 0.0000
vn -0.8826 0.4702 0.0000
vn 0.8212 0.5706 0.0000
vn -0.7736 0.6337 0.0000
vn 0.3003 -0.0911 -0.9495
vn 0.3123 -0.0308 -0.9495
vn 0.2768 -0.1479 -0.9495
vn 0.2426 -0.1991 -0.9495
vn 0.1991 -0.2426 -0.9495
vn 0.1479 -0.2768 -0.9495
vn 0.0911 -0.3003 -0.9495
vn 0.0308 -0.3123 -0.9495
vn -0.0308 -0.3123 -0.9495
vn -0.0911 -0.3003 -0.9495
vn -0.1479 -0.2768 -0.9495
vn -0.1991 -0.2426 -0.9495
vn -0.2426 -0.1991 -0.9495
vn -0.2768 -0.1479 -0.9495
vn -0.3003 -0.0911 -0.9495
vn -0.3123 -0.0308 -0.9495
vn 0.3132 -0.0002 -0.9497
vn -0.3132 -0.0002 -0.9497
vn 0.0000 0.3138 -0.9495
usemtl wall
s off
f 25//2 7//2 43//2 42//2
f 19//2 36//2 35//2 18//2
f 20//2 37//2 36//2 19//2
f 21//2 38//2 37//2 20//2
f 22//2 39//2 38//2 21//2
f 23//2 40//2 39//2 22//2
f 10//2 27//2 26//2 9//2
f 24//2 41//2 40//2 23//2
f 11//2 28//2 27//2 10//2
f 25//2 42//2 41//2 24//2
f 12//2 29//2 28//2 11//2
f 13//2 30//2 29//2 12//2
f 14//2 31//2 30//2 13//2
f 15//2 32//2 31//2 14//2
f 16//2 33//2 32//2 15//2
f 17//2 34//2 33//2 16//2
f 18//2 35//2 34//2 17//2
f 26//2 44//2 5//2 9//2
f 17//2 8//2 18//2
f 5//2 6//2 10//2 9//2
f 44//3 26//3 46//3 62//3
f 63//4 82//4 120//4 101//4
f 39//5 40//5 59//5 58//5
f 32//6 33//6 52//6 51//6
f 40//7 41//7 60//7 59//7
f 33//8 34//8 53//8 52//8
f 42//9 43//9 63//9 61//9
f 26//10 27//10 45//10 46//10
f 41//11 42//11 61//11 60//11
f 34//12 35//12 54//12 53//12
f 27//13 28//13 47//13 45//13
f 35//14 36//14 55//14 54//14
f 28//15 29//15 48//15 47//15
f 36//16 37//16 56//16 55//16
f 29//17 30//17 49//17 48//17
f 37//18 38//18 57//18 56//18
f 30//19 31//19 50//19 49//19
f 38//20 39//20 58//20 57//20
f 43//4 44//4 62//4 63//4
f 31//21 32//21 51//21 50//21
f 78//7 79//7 194//7 195//7
f 67//2 66//2 104//2 105//2
f 58//22 59//22 97//22 96//22
f 80//2 79//2 117//2 118//2
f 46//22 45//22 83//22 84//22
f 66//2 64//2 102//2 104//2
f 57//22 58//22 96//22 95//22
f 79//2 78//2 116//2 117//2
f 64//2 65//2 103//2 102//2
f 63//4 62//4 81//4 82//4
f 56//22 57//22 95//22 94//22
f 78//2 77//2 115//2 116//2
f 81//4 62//4 100//4 119//4
f 55//22 56//22 94//22 93//22
f 77//2 76//2 114//2 115//2
f 54//22 55//22 93//22 92//22
f 76//2 75//2 113//2 114//2
f 53//22 54//22 92//22 91//22
f 75//2 74//2 112//2 113//2
f 98//23 99//23 118//23 117//23
f 91//12 92//12 111//12 110//12
f 83//13 85//13 104//13 102//13
f 100//24 84//24 103//24 119//24
f 92//14 93//14 112//14 111//14
f 85//15 86//15 105//15 104//15
f 99//25 101//25 120//25 118//25
f 93//16 94//16 113//16 112//16
f 86//17 87//17 106//17 105//17
f 94//18 95//18 114//18 113//18
f 87//19 88//19 107//19 106//19
f 95//20 96//20 115//20 114//20
f 88//21 89//21 108//21 107//21
f 96//5 97//5 116//5 115//5
f 89//6 90//6 109//6 108//6
f 84//26 83//26 102//26 103//26
f 97//7 98//7 117//7 116//7
f 90//8 91//8 110//8 109//8
f 65//2 81//2 119//2 103//2
f 59//22 60//22 98//22 97//22
f 68//2 67//2 105//2 106//2
f 45//22 47//22 85//22 83//22
f 82//2 80//2 118//2 120//2
f 60//22 61//22 99//22 98//22
f 69//2 68//2 106//2 107//2
f 47//22 48//22 86//22 85//22
f 62//22 46//22 84//22 100//22
f 70//2 69//2 107//2 108//2
f 48//22 49//22 87//22 86//22
f 61//22 63//22 101//22 99//22
f 71//2 70//2 108//2 109//2
f 49//22 50//22 88//22 87//22
f 72//2 71//2 109//2 110//2
f 50//22 51//22 89//22 88//22
f 73//2 72//2 110//2 111//2
f 51//22 52//22 90//22 89//22
f 74//2 73//2 111//2 112//2
f 52//22 53//22 91//22 90//22
f 284//2 285//2 156//2 157//2
f 71//8 72//8 180//8 161//8
f 65//10 64//10 191//10 208//10
f 79//11 80//11 211//11 194//11
f 72//12 73//12 179//12 180//12
f 64//13 66//13 193//13 191//13
f 81//3 65//3 208//3 207//3 138//3
f 73//14 74//14 181//14 179//14
f 66//15 67//15 175//15 193//15
f 80//9 82//9 139//9 213//9 211//9
f 74//16 75//16 182//16 181//16
f 67//17 68//17 177//17 175//17
f 81//4 138//4 157//4 156//4 139//4 82//4
f 75//18 76//18 163//18 182//18
f 68//19 69//19 178//19 177//19
f 76//20 77//20 165//20 163//20
f 69//21 70//21 159//21 178//21
f 77//5 78//5 195//5 165//5
f 70//6 71//6 161//6 159//6
f 157//2 138//2 207//2 203//2 206//2 284//2
f 139//2 156//2 285//2 205//2 204//2 213//2
f 206//4 203//4 259//4 261//4
f 204//4 205//4 266//4 265//4
f 10//2 6//2 11//2
f 11//2 6//2 12//2
f 12//2 6//2 13//2
f 13//2 6//2 14//2
f 14//2 6//2 15//2
f 15//2 6//2 16//2
f 16//2 6//2 17//2
f 18//2 8//2 19//2
f 19//2 8//2 20//2
f 20//2 8//2 21//2
f 21//2 8//2 22//2
f 22//2 8//2 23//2
f 23//2 8//2 24//2
f 24//2 8//2 7//2 25//2
usemtl frame
f 155//27 154//27 234//27 258//27
f 196//9 204//9 265//9 263//9
f 141//28 123//28 243//28 247//28
f 154//29 174//29 257//29 234//29
f 192//30 199//30 262//30 260//30
f 172//31 149//31 228//31 250//31
f 140//32 158//32 256//32 215//32
f 202//30 196//30 263//30 264//30
f 149//33 148//33 226//33 228//33
f 184//34 140//34 215//34 255//34
f 199//9 206//9 261//9 262//9
f 135//35 153//35 242//35 238//35
f 148//36 170//36 249//36 226//36
f 136//37 137//37 254//37 233//37
f 203//3 192//3 260//3 259//3
f 150//38 132//38 237//38 241//38
f 168//39 143//39 220//39 248//39
f 127//2 126//2 178//2 159//2
f 128//2 127//2 159//2 161//2
f 129//2 128//2 161//2 180//2
f 133//2 132//2 182//2 163//2
f 134//2 133//2 163//2 165//2
f 135//2 134//2 165//2 195//2
f 144//2 145//2 273//2 272//2
f 145//2 146//2 274//2 273//2
f 146//2 147//2 275//2 274//2
f 150//2 151//2 279//2 278//2
f 151//2 152//2 280//2 279//2
f 152//2 153//2 281//2 280//2
f 126//2 144//2 272//2 178//2
f 147//2 129//2 180//2 275//2
f 132//2 150//2 278//2 182//2
f 153//2 135//2 195//2 281//2
f 124//2 123//2 193//2 175//2
f 125//2 124//2 175//2 177//2
f 160//2 125//2 177//2 178//2
f 130//2 162//2 180//2 179//2
f 131//2 130//2 179//2 181//2
f 164//2 131//2 181//2 182//2
f 141//2 142//2 270//2 267//2
f 142//2 143//2 271//2 270//2
f 143//2 168//2 272//2 271//2
f 170//2 148//2 276//2 275//2
f 148//2 149//2 277//2 276//2
f 149//2 172//2 278//2 277//2
f 123//2 141//2 267//2 193//2
f 168//2 160//2 178//2 272//2
f 162//2 170//2 275//2 180//2
f 172//2 164//2 182//2 278//2
f 121//2 122//2 208//2 191//2
f 176//2 121//2 191//2 193//2
f 136//2 166//2 195//2 194//2
f 137//2 136//2 194//2 211//2
f 140//2 184//2 267//2 268//2
f 158//2 140//2 268//2 269//2
f 174//2 154//2 282//2 281//2
f 154//2 155//2 283//2 282//2
f 184//2 176//2 193//2 267//2
f 166//2 174//2 281//2 195//2
f 155//2 137//2 211//2 283//2
f 122//2 158//2 269//2 208//2
f 166//7 136//7 233//7 253//7
f 198//2 197//2 183//2 185//2 186//2 167//2 169//2 188//2 187//2 189//2 190//2 171//2 173//2 201//2 200//2 302//2 288//2
f 192//2 203//2 207//2 208//2
f 206//2 199//2 269//2 284//2
f 196//2 202//2 283//2 211//2
f 199//2 192//2 208//2 269//2
f 204//2 196//2 211//2 213//2
f 202//2 205//2 285//2 283//2
f 160//40 168//40 248//40 244//40
f 205//3 202//3 264//3 266//3
f 176//41 184//41 255//41 252//41
f 170//3 162//3 245//3 249//3
f 174//42 166//42 253//42 257//42
f 164//43 172//43 250//43 246//43
f 137//4 155//4 258//4 254//4
f 158//4 122//4 251//4 256//4
f 126//44 127//44 221//44 235//44
f 127//45 128//45 223//45 221//45
f 128//8 129//8 236//8 223//8
f 132//18 133//18 229//18 237//18
f 133//46 134//46 231//46 229//46
f 134//47 135//47 238//47 231//47
f 123//48 124//48 217//48 243//48
f 145//49 144//49 239//49 222//49
f 124//50 125//50 219//50 217//50
f 146//51 145//51 222//51 224//51
f 125//19 160//19 244//19 219//19
f 147//52 146//52 224//52 240//52
f 162//12 130//12 225//12 245//12
f 151//53 150//53 241//53 230//53
f 130//54 131//54 227//54 225//54
f 152//55 151//55 230//55 232//55
f 131//56 164//56 246//56 227//56
f 153//57 152//57 232//57 242//57
f 122//58 121//58 216//58 251//58
f 142//59 141//59 247//59 218//59
f 144//60 126//60 235//60 239//60
f 121//13 176//13 252//13 216//13
f 143//61 142//61 218//61 220//61
f 129//9 147//9 240//9 236//9
f 288//2 302//2 214//2 209//2
f 286//2 287//2 268//2 267//2
f 287//2 210//2 269//2 268//2
f 289//2 286//2 267//2 270//2
f 290//2 289//2 270//2 271//2
f 291//2 290//2 271//2 272//2
f 292//2 291//2 272//2 273//2
f 293//2 292//2 273//2 274//2
f 294//2 293//2 274//2 275//2
f 295//2 294//2 275//2 276//2
f 296//2 295//2 276//2 277//2
f 297//2 296//2 277//2 278//2
f 298//2 297//2 278//2 279//2
f 299//2 298//2 279//2 280//2
f 300//2 299//2 280//2 281//2
f 301//2 300//2 281//2 282//2
f 212//2 301//2 282//2 283//2
f 210//2 303//2 284//2 269//2
f 304//2 212//2 283//2 285//2
f 303//2 304//2 285//2 284//2
f 197//62 198//62 287//62 286//62
f 198//63 288//63 210//63 287//63
f 183//64 197//64 286//64 289//64
f 185//65 183//65 289//65 290//65
f 186//66 185//66 290//66 291//66
f 167//67 186//67 291//67 292//67
f 169//68 167//68 292//68 293//68
f 188//69 169//69 293//69 294//69
f 187//70 188//70 294//70 295//70
f 189//71 187//71 295//71 296//71
f 190//72 189//72 296//72 297//72
f 171//73 190//73 297//73 298//73
f 173//74 171//74 298//74 299//74
f 201//75 173//75 299//75 300//75
f 200//76 201//76 300//76 301//76
f 302//77 200//77 301//77 212//77
f 288//78 209//78 303//78 210//78
f 214//79 302//79 212//79 304//79
f 209//80 214//80 304//80 303//80
usemtl window
f 216//2 252//2 255//2 215//2
f 243//2 217//2 218//2 247//2
f 217//2 219//2 220//2 218//2
f 219//2 244//2 248//2 220//2
f 235//2 221//2 222//2 239//2
f 221//2 223//2 224//2 222//2
f 223//2 236//2 240//2 224//2
f 245//2 225//2 226//2 249//2
f 225//2 227//2 228//2 226//2
f 227//2 246//2 250//2 228//2
f 237//2 229//2 230//2 241//2
f 229//2 231//2 232//2 230//2
f 231//2 238//2 242//2 232//2
f 253//2 233//2 234//2 257//2
f 233//2 254//2 258//2 234//2
f 251//2 216//2 215//2 256//2
usemtl door
f 259//2 260//2 262//2 261//2
f 263//2 265//2 266//2 264//2
