# Blender v2.79 (sub 0) OBJ File: 'figures_2.blend'
# www.blender.org
mtllib window01.mtl
o source.004_Cube.022
v 1.548197 2.204493 0.000000
v 1.548197 3.765596 0.000000
v 2.451803 2.204493 0.000000
v 2.451803 3.765596 0.000000
vn 0.0000 0.0000 -1.0000
usemtl None
s off
f 1//1 2//1 4//1 3//1
o target_window_01_full_Cube.002
v 1.548197 3.765596 0.000000
v 2.451803 3.765596 0.000000
v 1.583753 3.609697 0.000000
v 1.583753 2.256701 0.000000
v 2.416247 2.256701 0.000000
v 2.416247 3.609697 0.000000
v 2.000000 2.256701 0.000000
v 2.000000 3.743299 0.000000
v 2.138749 3.732806 0.000000
v 2.277498 3.688555 0.000000
v 1.722502 3.688555 0.000000
v 1.861251 3.732806 0.000000
v 1.583753 3.084947 0.000000
v 2.416247 3.084947 0.000000
v 1.583753 3.084947 0.031811
v 1.583753 2.256701 0.031811
v 2.277498 3.688555 0.031811
v 2.416247 3.609697 0.031811
v 2.416247 3.084947 0.031811
v 2.416247 2.256701 0.031811
v 1.861251 3.732806 0.031811
v 2.000000 3.743299 0.031811
v 2.000000 3.084947 0.031811
v 2.000000 2.256701 0.031811
v 2.138749 3.732806 0.031811
v 1.583753 3.609697 0.031811
v 1.722502 3.688555 0.031811
v 2.262484 3.654272 0.031811
v 2.379023 3.588037 0.031811
v 2.131593 3.696017 0.031811
v 2.379023 3.122171 0.031811
v 2.037225 3.122171 0.031811
v 2.037225 3.703153 0.031811
v 1.868407 3.696017 0.031811
v 1.962776 3.703153 0.031811
v 1.737516 3.654272 0.031811
v 1.962776 3.122171 0.031811
v 1.620977 3.122171 0.031811
v 1.620977 3.588037 0.031811
v 1.962776 3.047723 0.031811
v 1.962776 2.293926 0.031811
v 1.620977 3.047723 0.031811
v 1.620977 2.293926 0.031811
v 2.379023 3.047723 0.031811
v 2.379023 2.293926 0.031811
v 2.037225 3.047723 0.031811
v 2.037224 2.293926 0.031811
v 2.379023 3.471121 0.031811
v 2.379023 3.296646 0.031811
v 2.037225 3.471121 0.031811
v 2.037225 3.296646 0.031811
v 1.962776 3.471121 0.031811
v 1.962776 3.296646 0.031811
v 1.620977 3.471121 0.031811
v 1.620977 3.296646 0.031811
v 1.962776 2.859273 0.031811
v 1.962776 2.670824 0.031811
v 1.962776 2.482375 0.031811
v 1.620977 2.859273 0.031811
v 1.620977 2.670824 0.031811
v 1.620977 2.482375 0.031811
v 2.379023 2.859273 0.031811
v 2.379023 2.670824 0.031811
v 2.379023 2.482375 0.031811
v 2.037225 2.859273 0.031811
v 2.037225 2.670824 0.031811
v 2.037224 2.482375 0.031811
v 1.791876 3.047723 0.031811
v 1.791876 2.293926 0.031811
v 2.208124 3.047723 0.031811
v 2.208124 2.293926 0.031811
v 2.208124 2.859273 0.031811
v 2.208124 2.670824 0.031811
v 2.208124 2.482375 0.031811
v 1.791876 2.859273 0.031811
v 1.791876 2.670824 0.031811
v 1.791876 2.482375 0.031811
v 2.208124 3.675144 0.031811
v 2.208124 3.122171 0.031811
v 1.791876 3.675144 0.031811
v 1.791876 3.122171 0.031811
v 1.791876 3.471121 0.031811
v 1.791876 3.296646 0.031811
v 2.208124 3.471121 0.031811
v 2.208124 3.296646 0.031811
v 2.211809 3.292961 0.035248
v 2.375338 3.292961 0.035248
v 2.375338 3.125856 0.035248
v 2.211809 3.125856 0.035248
v 1.795561 3.292961 0.035248
v 1.959091 3.292961 0.035248
v 1.959091 3.125856 0.035248
v 1.795561 3.125856 0.035248
v 1.788191 2.478690 0.035248
v 1.788191 2.297611 0.035248
v 1.624662 2.297611 0.035248
v 1.624662 2.478690 0.035248
v 2.204439 2.478690 0.035248
v 2.204439 2.297611 0.035248
v 2.040909 2.297611 0.035248
v 2.040909 2.478690 0.035248
v 1.788191 3.669782 0.035248
v 1.788191 3.474805 0.035248
v 1.624662 3.474805 0.035248
v 1.624662 3.585893 0.035248
v 1.739095 3.650931 0.035248
v 1.795561 3.467436 0.035248
v 1.959091 3.467436 0.035248
v 1.959091 3.300331 0.035248
v 1.795561 3.300331 0.035248
v 2.204439 3.672330 0.035248
v 2.204439 3.474805 0.035248
v 2.040909 3.474805 0.035248
v 2.040909 3.699179 0.035248
v 2.130964 3.692369 0.035248
v 2.211809 3.467436 0.035248
v 2.375338 3.467436 0.035248
v 2.375338 3.300331 0.035248
v 2.211809 3.300331 0.035248
v 2.204439 3.044038 0.035248
v 2.204439 2.862958 0.035248
v 2.040909 2.862958 0.035248
v 2.040909 3.044038 0.035248
v 2.204439 2.855588 0.035248
v 2.204439 2.674509 0.035248
v 2.040909 2.674509 0.035248
v 2.040909 2.855588 0.035248
v 2.204439 2.667139 0.035248
v 2.204439 2.486060 0.035248
v 2.040909 2.486060 0.035248
v 2.040909 2.667139 0.035248
v 1.788191 3.044038 0.035248
v 1.788191 2.862958 0.035248
v 1.624662 2.862958 0.035248
v 1.624662 3.044038 0.035248
v 1.788191 2.855588 0.035248
v 1.788191 2.674509 0.035248
v 1.624662 2.674509 0.035248
v 1.624662 2.855588 0.035248
v 1.788191 2.667139 0.035248
v 1.788191 2.486060 0.035248
v 1.624662 2.486060 0.035248
v 1.624662 2.667139 0.035248
v 1.959091 2.667139 0.035248
v 1.959091 2.486060 0.035248
v 1.795561 2.486060 0.035248
v 1.795561 2.667139 0.035248
v 1.959091 2.855588 0.035248
v 1.959091 2.674509 0.035248
v 1.795561 2.674509 0.035248
v 1.795561 2.855588 0.035248
v 1.959091 3.044038 0.035248
v 1.959091 2.862958 0.035248
v 1.795561 2.862958 0.035248
v 1.795561 3.044038 0.035248
v 2.375338 2.667139 0.035248
v 2.375338 2.486060 0.035248
v 2.211809 2.486060 0.035248
v 2.211809 2.667139 0.035248
v 2.375338 2.855589 0.035248
v 2.375338 2.674509 0.035248
v 2.211809 2.674509 0.035248
v 2.211809 2.855588 0.035248
v 2.375338 3.044038 0.035248
v 2.375338 2.862958 0.035248
v 2.211809 2.862958 0.035248
v 2.211809 3.044038 0.035248
v 2.375338 2.478690 0.035248
v 2.375338 2.297611 0.035248
v 2.211809 2.297611 0.035248
v 2.211809 2.478690 0.035248
v 1.959091 2.478690 0.035248
v 1.959091 2.297611 0.035248
v 1.795561 2.297611 0.035248
v 1.795561 2.478690 0.035248
v 2.040909 3.467436 0.035248
v 2.204439 3.467436 0.035248
v 2.204439 3.300331 0.035248
v 2.040909 3.300331 0.035248
v 2.260905 3.650931 0.035248
v 2.375338 3.585893 0.035248
v 2.375338 3.474805 0.035248
v 2.211809 3.474805 0.035248
v 2.211809 3.669782 0.035248
v 1.624662 3.467436 0.035248
v 1.788191 3.467436 0.035248
v 1.788191 3.300331 0.035248
v 1.624662 3.300331 0.035248
v 1.869036 3.692369 0.035248
v 1.959091 3.699179 0.035248
v 1.959091 3.474805 0.035248
v 1.795561 3.474805 0.035248
v 1.795561 3.672330 0.035248
v 1.624662 3.292961 0.035248
v 1.788191 3.292961 0.035248
v 1.788191 3.125856 0.035248
v 1.624662 3.125856 0.035248
v 2.040909 3.292961 0.035248
v 2.204439 3.292961 0.035248
v 2.204439 3.125856 0.035248
v 2.040909 3.125856 0.035248
v 1.583753 2.256701 -0.084303
v 2.416247 2.256701 -0.084303
v 2.000000 2.256701 -0.084303
v 1.583753 2.204493 -0.084303
v 2.416247 2.204493 -0.084303
v 2.000000 2.204493 -0.084303
v 1.583753 2.204493 0.000000
v 2.416247 2.204493 0.000000
v 2.000000 2.204493 0.000000
v 2.451803 2.256701 0.000000
v 2.451803 2.256701 -0.084303
v 1.548197 2.256701 -0.084303
v 1.548197 2.256701 0.000000
v 2.451803 2.204493 -0.084303
v 1.548197 2.204493 -0.084303
v 2.451803 2.204493 0.000000
v 1.548197 2.204493 0.000000
v 1.583753 2.454815 -0.084303
v 2.416247 2.454815 -0.084303
v 2.000000 2.454815 -0.084303
v 2.451803 2.454815 0.000000
v 2.451803 2.454815 -0.084303
v 1.548197 2.454815 -0.084303
v 1.548197 2.454815 0.000000
vn 0.0000 0.0000 -1.0000
vn -1.0000 0.0000 0.0000
vn 1.0000 0.0000 0.0000
vn -0.3039 -0.9527 0.0000
vn -0.4941 -0.8694 0.0000
vn 0.3039 -0.9527 0.0000
vn 0.0754 -0.9972 0.0000
vn -0.0754 -0.9972 0.0000
vn 0.4941 -0.8694 0.0000
vn 0.0000 1.0000 0.0000
vn 0.0000 -1.0000 0.0000
vn 0.0000 0.0000 1.0000
vn 0.0000 -0.6821 -0.7313
vn -0.6821 0.0000 -0.7313
vn 0.0000 0.6820 -0.7313
vn 0.6820 0.0000 -0.7313
vn 0.0000 -0.6820 -0.7313
vn 0.6821 0.0000 -0.7313
vn -0.6820 0.0000 -0.7313
vn 0.0000 0.6821 -0.7313
vn 0.3370 -0.5930 -0.7313
vn 0.2445 -0.6367 -0.7313
vn -0.0514 -0.6801 -0.7313
vn -0.1795 -0.6580 -0.7313
vn -0.3370 -0.5930 -0.7313
vn -0.2445 -0.6367 -0.7313
vn 0.0514 -0.6801 -0.7313
vn 0.1795 -0.6580 -0.7313
usemtl wall
s off
f 7//2 17//2 8//2 222//2 5//2
f 8//2 11//2 9//2 221//2 222//2
f 10//2 14//2 6//2
f 9//2 18//2 10//2 6//2 221//2
f 18//3 9//3 24//3 23//3
f 17//4 7//4 30//4 19//4
f 13//5 14//5 21//5 29//5
f 14//6 10//6 22//6 21//6
f 15//7 16//7 25//7 31//7
f 16//8 12//8 26//8 25//8
f 12//9 13//9 29//9 26//9
f 7//10 15//10 31//10 30//10
f 8//4 17//4 19//4 20//4
f 10//3 18//3 23//3 22//3
f 11//11 8//11 20//11 28//11
f 9//11 11//11 28//11 24//11
f 11//11 9//11 207//11 208//11
f 8//11 11//11 208//11 206//11
f 208//2 207//2 210//2 211//2
f 206//2 208//2 211//2 209//2
f 211//12 210//12 213//12 214//12
f 209//12 211//12 214//12 212//12
f 206//2 209//2 220//2 217//2
f 213//12 210//12 219//12 221//12
f 217//3 220//3 222//3 218//3
f 215//4 221//4 219//4 216//4
f 9//13 213//13 221//13 215//13
f 209//12 212//12 222//12 220//12
f 207//11 9//11 215//11 216//11
f 210//2 207//2 216//2 219//2
f 212//13 8//13 218//13 222//13
f 8//11 206//11 217//11 218//11
f 6//2 12//2 5//2
f 5//2 12//2 16//2
f 16//2 15//2 5//2
f 15//2 7//2 5//2
f 12//2 6//2 13//2
f 13//2 6//2 14//2
usemtl frame
f 21//2 22//2 33//2 32//2
f 22//2 23//2 35//2 53//2 52//2 33//2
f 23//2 27//2 36//2 83//2 35//2
f 27//2 26//2 37//2 54//2 55//2 36//2
f 26//2 29//2 34//2 37//2
f 29//2 21//2 32//2 82//2 34//2
f 25//2 26//2 39//2 38//2
f 26//2 27//2 41//2 57//2 56//2 39//2
f 27//2 19//2 42//2 85//2 41//2
f 19//2 30//2 43//2 58//2 59//2 42//2
f 30//2 31//2 40//2 43//2
f 31//2 25//2 38//2 84//2 40//2
f 27//2 28//2 45//2 62//2 61//2 60//2 44//2
f 28//2 20//2 47//2 73//2 45//2
f 20//2 19//2 46//2 63//2 64//2 65//2 47//2
f 19//2 27//2 44//2 72//2 46//2
f 23//2 24//2 49//2 68//2 67//2 66//2 48//2
f 24//2 28//2 51//2 75//2 49//2
f 28//2 27//2 50//2 69//2 70//2 71//2 51//2
f 27//2 23//2 48//2 74//2 50//2
f 89//14 53//14 91//14 90//14
f 53//15 35//15 92//15 91//15
f 35//16 83//16 93//16 92//16
f 83//17 89//17 90//17 93//17
f 87//18 57//18 95//18 94//18
f 57//15 41//15 96//15 95//15
f 41//16 85//16 97//16 96//16
f 85//19 87//19 94//19 97//19
f 81//15 73//15 99//15 98//15
f 73//16 47//16 100//16 99//16
f 47//19 65//19 101//19 100//19
f 65//14 81//14 98//14 101//14
f 78//20 75//20 103//20 102//20
f 75//21 51//21 104//21 103//21
f 51//17 71//17 105//17 104//17
f 71//14 78//14 102//14 105//14
f 84//15 86//15 107//15 106//15
f 86//16 58//16 108//16 107//16
f 58//19 43//19 109//19 108//19
f 43//22 40//22 110//22 109//22
f 40//23 84//23 106//23 110//23
f 86//14 56//14 112//14 111//14
f 56//15 57//15 113//15 112//15
f 57//21 87//21 114//21 113//21
f 87//19 86//19 111//19 114//19
f 82//20 88//20 116//20 115//20
f 88//21 54//21 117//21 116//21
f 54//19 37//19 118//19 117//19
f 37//24 34//24 119//24 118//24
f 34//25 82//25 115//25 119//25
f 88//14 52//14 121//14 120//14
f 52//15 53//15 122//15 121//15
f 53//16 89//16 123//16 122//16
f 89//17 88//17 120//17 123//17
f 74//20 76//20 125//20 124//20
f 76//21 69//21 126//21 125//21
f 69//19 50//19 127//19 126//19
f 50//14 74//14 124//14 127//14
f 76//20 77//20 129//20 128//20
f 77//21 70//21 130//21 129//21
f 70//19 69//19 131//19 130//19
f 69//14 76//14 128//14 131//14
f 77//20 78//20 133//20 132//20
f 78//21 71//21 134//21 133//21
f 71//19 70//19 135//19 134//19
f 70//14 77//14 132//14 135//14
f 72//15 79//15 137//15 136//15
f 79//16 63//16 138//16 137//16
f 63//19 46//19 139//19 138//19
f 46//18 72//18 136//18 139//18
f 79//15 80//15 141//15 140//15
f 80//16 64//16 142//16 141//16
f 64//19 63//19 143//19 142//19
f 63//18 79//18 140//18 143//18
f 80//15 81//15 145//15 144//15
f 81//21 65//21 146//21 145//21
f 65//19 64//19 147//19 146//19
f 64//14 80//14 144//14 147//14
f 61//15 62//15 149//15 148//15
f 62//21 81//21 150//21 149//21
f 81//19 80//19 151//19 150//19
f 80//14 61//14 148//14 151//14
f 60//15 61//15 153//15 152//15
f 61//16 80//16 154//16 153//16
f 80//19 79//19 155//19 154//19
f 79//18 60//18 152//18 155//18
f 44//15 60//15 157//15 156//15
f 60//16 79//16 158//16 157//16
f 79//19 72//19 159//19 158//19
f 72//18 44//18 156//18 159//18
f 67//15 68//15 161//15 160//15
f 68//16 78//16 162//16 161//16
f 78//17 77//17 163//17 162//17
f 77//14 67//14 160//14 163//14
f 66//15 67//15 165//15 164//15
f 67//21 77//21 166//21 165//21
f 77//17 76//17 167//17 166//17
f 76//14 66//14 164//14 167//14
f 48//15 66//15 169//15 168//15
f 66//21 76//21 170//21 169//21
f 76//17 74//17 171//17 170//17
f 74//14 48//14 168//14 171//14
f 68//15 49//15 173//15 172//15
f 49//21 75//21 174//21 173//21
f 75//17 78//17 175//17 174//17
f 78//14 68//14 172//14 175//14
f 62//15 45//15 177//15 176//15
f 45//16 73//16 178//16 177//16
f 73//19 81//19 179//19 178//19
f 81//14 62//14 176//14 179//14
f 54//14 88//14 181//14 180//14
f 88//20 89//20 182//20 181//20
f 89//16 55//16 183//16 182//16
f 55//19 54//19 180//19 183//19
f 32//26 33//26 185//26 184//26
f 33//15 52//15 186//15 185//15
f 52//21 88//21 187//21 186//21
f 88//17 82//17 188//17 187//17
f 82//27 32//27 184//27 188//27
f 58//14 86//14 190//14 189//14
f 86//15 87//15 191//15 190//15
f 87//21 59//21 192//21 191//21
f 59//19 58//19 189//19 192//19
f 38//28 39//28 194//28 193//28
f 39//15 56//15 195//15 194//15
f 56//16 86//16 196//16 195//16
f 86//19 84//19 197//19 196//19
f 84//29 38//29 193//29 197//29
f 59//18 87//18 199//18 198//18
f 87//15 85//15 200//15 199//15
f 85//16 42//16 201//16 200//16
f 42//19 59//19 198//19 201//19
f 55//14 89//14 203//14 202//14
f 89//20 83//20 204//20 203//20
f 83//16 36//16 205//16 204//16
f 36//19 55//19 202//19 205//19
usemtl window
f 90//2 91//2 92//2 93//2
f 94//2 95//2 96//2 97//2
f 98//2 99//2 100//2 101//2
f 102//2 103//2 104//2 105//2
f 106//2 107//2 108//2 109//2 110//2
f 111//2 112//2 113//2 114//2
f 115//2 116//2 117//2 118//2 119//2
f 120//2 121//2 122//2 123//2
f 124//2 125//2 126//2 127//2
f 128//2 129//2 130//2 131//2
f 132//2 133//2 134//2 135//2
f 136//2 137//2 138//2 139//2
f 140//2 141//2 142//2 143//2
f 144//2 145//2 146//2 147//2
f 148//2 149//2 150//2 151//2
f 152//2 153//2 154//2 155//2
f 156//2 157//2 158//2 159//2
f 160//2 161//2 162//2 163//2
f 164//2 165//2 166//2 167//2
f 168//2 169//2 170//2 171//2
f 172//2 173//2 174//2 175//2
f 176//2 177//2 178//2 179//2
f 180//2 181//2 182//2 183//2
f 184//2 185//2 186//2 187//2 188//2
f 189//2 190//2 191//2 192//2
f 193//2 194//2 195//2 196//2 197//2
f 198//2 199//2 200//2 201//2
f 202//2 203//2 204//2 205//2
usemtl fence
f 217//2 228//2 223//2 206//2
f 216//4 227//4 226//4 215//4
f 208//2 206//2 223//2 225//2
f 216//2 207//2 224//2 227//2
f 218//3 229//3 228//3 217//3
f 207//2 208//2 225//2 224//2
